<?xml version="1.0" standalone="no"?>
<!DOCTYPE svg PUBLIC "-//W3C//DTD SVG 1.1//EN" "http://www.w3.org/Graphics/SVG/1.1/DTD/svg11.dtd" >
<svg xmlns="http://www.w3.org/2000/svg" xmlns:xlink="http://www.w3.org/1999/xlink" version="1.1">
<metadata>
Created by FontForge 20170731 at Thu Jan  6 09:33:05 2022
 By Aleksey,,,
Copyright (c) WOORI FINANCIAL GROUP. All rights reserved. Font designed by FontBank.
</metadata>
<defs>
<font id="WooridaumB" horiz-adv-x="960" >
  <font-face 
    font-family="Wooridaum B"
    font-weight="400"
    font-stretch="normal"
    units-per-em="1000"
    panose-1="2 0 8 0 0 0 0 0 0 0"
    ascent="800"
    descent="-200"
    x-height="545"
    cap-height="726"
    bbox="-40 -191 1156 860"
    underline-thickness="25"
    underline-position="-236"
    unicode-range="U+000D-FFE6"
  />
<missing-glyph 
d="M79 -101v801h801v-801h-801zM129 -51h701v701h-701v-701z" />
    <glyph glyph-name=".notdef" 
d="M79 -101v801h801v-801h-801zM129 -51h701v701h-701v-701z" />
    <glyph glyph-name=".null" horiz-adv-x="0" 
 />
    <glyph glyph-name="nonmarkingreturn" unicode="&#xd;" horiz-adv-x="250" 
 />
    <glyph glyph-name="NULL" horiz-adv-x="0" 
 />
    <glyph glyph-name="NULL" horiz-adv-x="0" 
 />
    <glyph glyph-name="space" unicode=" " horiz-adv-x="250" 
 />
    <glyph glyph-name="space" unicode="&#xa0;" horiz-adv-x="250" 
 />
    <glyph glyph-name="exclam" unicode="!" horiz-adv-x="327" 
d="M238 756l-21 -575h-105l-23 575h149zM85 40q0 15 6.5 29t17 24t25 16t30.5 6q32 0 54.5 -22t22.5 -53q0 -32 -22.5 -54t-54.5 -22t-55.5 22t-23.5 54z" />
    <glyph glyph-name="quotedbl" unicode="&#x22;" horiz-adv-x="423" 
d="M375 758l-19 -278h-107l-20 278h146zM192 758l-18 -278h-106l-20 278h144z" />
    <glyph glyph-name="numbersign" unicode="#" horiz-adv-x="783" 
d="M735 449h-141v1l-42 -173h127v-80h-145l-47 -197h-120l48 197h-125v1l-48 -198h-119l48 197h-123v80h141l40 172h-125v78h146l48 199h120l-48 -199h124v-1l46 200h120l-47 -199h122v-78zM475 450h-126v1l-42 -174h126v-1z" />
    <glyph glyph-name="dollar" unicode="$" horiz-adv-x="707" 
d="M647 205q0 -59 -29 -100t-74 -67t-99 -38q-19 -4 -37 -7v-109h-101v105q-61 3 -113 14q-65 16 -134 48v118q85 -51 157 -76q49 -17 90 -23v257q-28 6 -58 13q-49 12 -90 34.5t-67.5 60t-26.5 97.5q0 55 27.5 94.5t69.5 64.5t92 36q27 6 53 9v103h101v-102q48 -4 89 -14
q65 -16 122 -41v-108q-72 38 -139 61q-37 13 -72 19v-251q24 -5 49 -11q50 -11 92 -33t70 -59t28 -95zM244 626q-40 -32 -40 -84q0 -42 12.5 -65.5t34 -35.5t50.5 -18q3 0 6 -1v233q-37 -8 -63 -29zM464 101q44 34 44 91q0 40 -13.5 63.5t-36.5 36.5q-22 12 -50 18v-235
q33 8 56 26z" />
    <glyph glyph-name="percent" unicode="%" horiz-adv-x="1023" 
d="M431 525q0 -109 -50 -161t-147 -52t-146 52t-49 161t50.5 162t144.5 53q197 0 197 -215zM754 726l-366 -726h-118l365 726h119zM302 525q0 86 -16 120.5t-52 34.5q-35 0 -50 -34.5t-15 -120.5q0 -87 15.5 -120t49.5 -33q36 0 52 33t16 120zM984 200q0 -109 -50 -161.5
t-146 -52.5q-196 0 -196 213q0 112 49.5 163t146.5 51t146.5 -51t49.5 -162zM856 200q0 86 -16 120t-52 34t-52 -34t-16 -121q0 -85 16 -119t52 -34t52 34t16 120z" />
    <glyph glyph-name="ampersand" unicode="&#x26;" horiz-adv-x="737" 
d="M651 441v-44q0 -46 -13 -105q-7 -31 -18 -60.5t-25 -57.5l172 -174h-144l-89 90q-51 -61 -107.5 -83t-122.5 -22q-48 0 -93 14t-80 41t-56 67t-21 91q0 42 11 73t30 55t44 43.5t53 38.5q-48 38 -77 77.5t-29 87.5q0 43 20.5 74.5t52 52.5t70.5 31t76 10q46 0 84 -11
t65 -31t42 -47.5t15 -60.5q0 -36 -14 -64t-36 -50t-50.5 -39t-56.5 -32l156 -144v-1q4 29 5 58t1 58q-1 5 -1 10.5v10.5v43h136zM373 582q0 42 -20 60.5t-51 18.5q-35 0 -56.5 -22.5t-21.5 -60.5q0 -40 18.5 -71.5t50.5 -57.5q33 17 56.5 49.5t23.5 83.5zM259 362
q-68 -54 -68 -141q0 -72 36 -114.5t100 -42.5q36 0 73.5 20t66.5 65z" />
    <glyph glyph-name="quotesingle" unicode="'" horiz-adv-x="240" 
d="M192 758l-18 -278h-106l-20 278h144z" />
    <glyph glyph-name="parenleft" unicode="(" horiz-adv-x="436" 
d="M295 -155q-87 103 -134 227.5t-47 268.5q0 147 47 270t134 226h141q-47 -48 -83.5 -106t-61 -122t-37.5 -132t-13 -136q0 -65 13 -133t37.5 -133.5t61 -124.5t83.5 -105h-141z" />
    <glyph glyph-name="parenright" unicode=")" horiz-adv-x="436" 
d="M0 -155q47 46 83.5 105t61 124.5t37.5 133.5t13 133q0 68 -13 136t-37.5 132t-61 122t-83.5 106h141q87 -103 134 -226t47 -270q0 -144 -47 -268.5t-134 -227.5h-141z" />
    <glyph glyph-name="asterisk" unicode="*" horiz-adv-x="645" 
d="M238 535l-186 108l61 88l159 -115l-10 172h121l-9 -172l158 115l62 -90l-185 -106l185 -106l-62 -88l-158 115l9 -173h-121l10 173l-159 -115l-61 86z" />
    <glyph glyph-name="plus" unicode="+" horiz-adv-x="792" 
d="M700 300h-243v-255h-123v255h-243v100h243v255h123v-255h243v-100z" />
    <glyph glyph-name="comma" unicode="," horiz-adv-x="256" 
d="M239 135l-130 -306h-111l81 306h160z" />
    <glyph glyph-name="hyphen" unicode="-" horiz-adv-x="483" 
d="M411 300h-339v100h339v-100z" />
    <glyph glyph-name="period" unicode="." horiz-adv-x="256" 
d="M51 40q0 31 23 53t55 22t54.5 -22t22.5 -53q0 -32 -22.5 -54t-54.5 -22t-55 22t-23 54z" />
    <glyph glyph-name="slash" unicode="/" horiz-adv-x="366" 
d="M418 829l-335 -979h-123l335 979h123z" />
    <glyph glyph-name="zero" unicode="0" horiz-adv-x="620" 
d="M577 365q0 -196 -65.5 -287.5t-202.5 -91.5t-202 92t-65 286q0 195 65 286.5t202 91.5q141 0 204.5 -92.5t63.5 -284.5zM309 662q-34 0 -56.5 -16t-36.5 -42t-21 -58.5t-10 -66t-3 -64v-52.5q0 -24 1 -55.5t4.5 -64.5t11.5 -64.5t22.5 -56.5t35.5 -40.5t52 -15.5
q32 0 53.5 15.5t36 40.5t22 57t11.5 65t4.5 63.5t0.5 53.5t-0.5 54t-4.5 64.5t-11.5 66t-22 58.5t-36 42t-53.5 16z" />
    <glyph glyph-name="one" unicode="1" horiz-adv-x="620" 
d="M533 0h-427v80h144v476h-144v70q16 0 33.5 1.5t34 3.5t31 5.5t23.5 7.5q17 10 27.5 29.5t13.5 54.5h121v-648h143v-80z" />
    <glyph glyph-name="two" unicode="2" horiz-adv-x="620" 
d="M576 0h-519v86q66 54 129.5 107.5t113 108.5t79.5 113t30 122q0 60 -31.5 92.5t-85.5 32.5q-48 0 -107 -19t-111 -51v98q18 10 44 19t55.5 16.5t60.5 12t60 4.5q58 0 105.5 -14t80.5 -40.5t51 -63.5t18 -83q0 -65 -23.5 -123t-66 -112.5t-102 -109t-131.5 -112.5h350v-84
z" />
    <glyph glyph-name="three" unicode="3" horiz-adv-x="620" 
d="M56 133q63 -32 123 -49.5t105 -17.5q36 0 62 12t43.5 33t26 49.5t8.5 61.5q0 39 -9 65t-27 41t-44.5 21t-60.5 6h-66v80h56q63 0 100 30t37 93q0 59 -32.5 81.5t-83.5 22.5q-40 0 -97 -16t-120 -51v95q18 10 43.5 19t55 16.5t60.5 12t60 4.5q40 0 85 -8.5t82 -28.5
t61.5 -53.5t24.5 -83.5q0 -27 -11 -53t-30 -48t-44.5 -39t-53.5 -26q68 -17 111 -64.5t43 -124.5q0 -57 -24 -99.5t-63 -71t-89 -42.5t-102 -14q-66 0 -127 16t-103 36v95z" />
    <glyph glyph-name="four" unicode="4" horiz-adv-x="620" 
d="M598 196h-100v-196h-139v196h-337v93l345 449h131v-457h100v-85zM136 281h223v295z" />
    <glyph glyph-name="five" unicode="5" horiz-adv-x="620" 
d="M561 229q0 -60 -22.5 -105.5t-61 -76t-89 -46t-106.5 -15.5q-64 0 -123 14t-101 34v93q132 -61 222 -61q37 0 63.5 13t44 35t25.5 51.5t8 63.5q0 43 -11.5 71t-33 44t-52 22.5t-67.5 6.5q-20 0 -42 -2t-44 -5.5t-43 -7.5t-39 -8v378h467v-85h-327v-195q28 3 52 3
q54 0 104.5 -11t89.5 -37t62.5 -68.5t23.5 -105.5z" />
    <glyph glyph-name="six" unicode="6" horiz-adv-x="620" 
d="M581 235q0 -58 -21.5 -104t-58 -78.5t-85 -49.5t-102.5 -17q-74 0 -126 25.5t-85 70t-48.5 105.5t-15.5 132q0 93 21.5 170.5t66 133.5t114 87.5t165.5 31.5q25 0 55 -5t51 -12v-87q-40 13 -69 18.5t-52 5.5q-87 0 -140.5 -62t-68.5 -164q32 15 66.5 23.5t77.5 8.5
q54 0 100.5 -14.5t81 -44t54 -73t19.5 -101.5zM441 230q0 78 -31.5 118.5t-106.5 40.5q-31 0 -61.5 -9.5t-63.5 -26.5v-29q0 -37 2.5 -82t15.5 -84t41 -65.5t78 -26.5q60 0 93 41.5t33 122.5z" />
    <glyph glyph-name="seven" unicode="7" horiz-adv-x="620" 
d="M577 628l-319 -628h-140l331 643h-397v85h525v-100z" />
    <glyph glyph-name="eight" unicode="8" horiz-adv-x="620" 
d="M173 391q-60 33 -88.5 72.5t-28.5 87.5q0 49 24 85t61 59.5t82 35t86 11.5q58 0 105 -13.5t80 -38t51 -58t18 -73.5q0 -54 -31 -98.5t-92 -73.5q70 -29 105.5 -74t35.5 -109q0 -54 -24.5 -94.5t-63.5 -68t-87.5 -41.5t-96.5 -14q-62 0 -111.5 16t-85 44.5t-54.5 68
t-19 87.5q0 60 33.5 110.5t100.5 78.5zM424 557q0 48 -32 76.5t-84 28.5q-49 0 -80.5 -26t-31.5 -74q0 -33 13.5 -56t34.5 -39t47.5 -27t53.5 -21q2 -1 5 -2t7 -3q38 29 52.5 62t14.5 81zM441 194q0 38 -11 62.5t-30 40.5t-44 26t-52 19q-14 5 -25.5 9t-25.5 10
q-35 -22 -56 -60.5t-21 -92.5q0 -67 38 -104.5t96 -37.5q60 0 95.5 34t35.5 94z" />
    <glyph glyph-name="nine" unicode="9" horiz-adv-x="620" 
d="M36 492q0 58 21.5 104t58 78.5t84.5 50t101 17.5q75 0 127.5 -25.5t86 -70t49 -105.5t15.5 -133q0 -93 -21.5 -170.5t-66.5 -133.5t-114.5 -87t-165.5 -31q-26 0 -55 4.5t-52 12.5v86q42 -14 70 -19t51 -5q43 0 78.5 16.5t62 46t44 71t24.5 92.5q-60 -30 -143 -30
q-54 0 -100.5 14.5t-81 43.5t-54 72t-19.5 101zM176 497q0 -78 31 -118t106 -40q32 0 62.5 9t62.5 26l1 22q0 25 -1 54t-5 58.5t-12.5 57t-24 49t-39 34.5t-57.5 13q-58 0 -91 -41.5t-33 -123.5z" />
    <glyph glyph-name="colon" unicode=":" horiz-adv-x="256" 
d="M51 477q0 32 22.5 53t54.5 21q33 0 55.5 -21t22.5 -53t-22.5 -53.5t-55.5 -21.5q-32 0 -54.5 21.5t-22.5 53.5zM51 60q0 31 22.5 53t54.5 22q33 0 55.5 -22t22.5 -53q0 -32 -22.5 -54t-55.5 -22q-32 0 -54.5 22t-22.5 54z" />
    <glyph glyph-name="semicolon" unicode=";" horiz-adv-x="256" 
d="M51 477q0 32 22.5 53t54.5 21q33 0 55.5 -21t22.5 -53t-22.5 -53.5t-55.5 -21.5q-32 0 -54.5 21.5t-22.5 53.5zM226 135l-129 -306h-111l81 306h159z" />
    <glyph glyph-name="less" unicode="&#x3c;" horiz-adv-x="734" 
d="M225 317l437 -197v-115l-590 270v86l590 270v-117z" />
    <glyph glyph-name="equal" unicode="=" horiz-adv-x="792" 
d="M699 410h-605v80h605v-80zM699 209h-605v81h605v-81z" />
    <glyph glyph-name="greater" unicode="&#x3e;" horiz-adv-x="734" 
d="M508 317l-436 197v117l590 -270v-86l-590 -270v115z" />
    <glyph glyph-name="question" unicode="?" horiz-adv-x="512" 
d="M482 566q0 -43 -16 -81.5t-42.5 -71.5t-61 -61t-70.5 -50v-126h-138v158q37 17 71.5 39t60 50t41 62t15.5 74q0 28 -9.5 51t-26 38.5t-38.5 24t-46 8.5q-43 0 -87 -14.5t-98 -38.5v93q21 8 46.5 15t52 12.5t53 9t50.5 3.5q56 0 101 -14.5t76.5 -41t48.5 -62t17 -77.5z
M146 40q0 31 22.5 53t54.5 22q16 0 30.5 -6t25 -16t17 -24t6.5 -29q0 -32 -23.5 -54t-55.5 -22t-54.5 22t-22.5 54z" />
    <glyph glyph-name="at" unicode="@" 
d="M912 323q0 -66 -20 -128t-55 -117h-259l-9 32q-25 -17 -50 -26.5t-64 -9.5q-45 0 -84 15.5t-68.5 45.5t-46.5 73t-17 98q0 51 17 95t47 76.5t72.5 51t93.5 18.5q52 0 94 -17v9h131v-381h84q14 34 20 79t6 83q0 73 -19 135.5t-58 108t-98 71.5t-138 26q-76 0 -137 -26.5
t-104 -73t-66.5 -110t-23.5 -137.5q0 -80 22.5 -143.5t65.5 -108.5t103.5 -69t137.5 -24q37 0 83.5 3.5t103.5 16.5v-80q-56 -12 -99.5 -15.5t-88.5 -3.5q-92 0 -172 28.5t-139.5 83.5t-93.5 133.5t-34 179.5q0 96 36 175t96.5 134.5t140.5 86t168 30.5q93 0 170.5 -29
t133.5 -83t87 -131.5t31 -174.5zM575 451q-26 11 -44.5 14.5t-36.5 3.5q-51 0 -79.5 -38.5t-28.5 -122.5q0 -81 26.5 -113t74.5 -32q22 0 43 7.5t45 22.5v258z" />
    <glyph glyph-name="A" unicode="A" horiz-adv-x="699" 
d="M686 0h-140l-65 196h-268l-65 -196h-135l235 677q4 12 0.5 26.5t-13.5 22.5h168q18 0 26.5 -7t16.5 -28zM239 276h216l-108 327z" />
    <glyph glyph-name="B" unicode="B" horiz-adv-x="693" 
d="M309 726q63 0 115 -6.5t90 -24t59 -49t21 -82.5q0 -44 -22.5 -85.5t-78.5 -70.5q75 -20 118 -68.5t43 -117.5q0 -56 -21 -97.5t-59.5 -69t-92.5 -41.5t-120 -14h-281v658q0 15 -2 35t-11 33h242zM454 550q0 30 -8.5 48.5t-26.5 29t-46 14.5t-67 4h-87v-213h95q36 0 62 4
t43.5 16.5t26 35.5t8.5 61zM515 218q0 47 -13 74t-36 40.5t-55 17t-71 3.5h-121v-273h97q40 0 76 3t63.5 16.5t43.5 41t16 77.5z" />
    <glyph glyph-name="C" unicode="C" horiz-adv-x="729" 
d="M679 59q-32 -16 -62 -29.5t-61 -23t-65.5 -14.5t-74.5 -5q-86 0 -154 25t-115.5 72.5t-72.5 117.5t-25 160q0 88 25.5 158t73.5 119t116 74.5t153 25.5q62 0 124.5 -15.5t137.5 -54.5v-110q-45 27 -81.5 46t-68.5 31t-61 17.5t-58 5.5q-61 0 -103 -25.5t-68.5 -67
t-38 -95t-11.5 -109.5t12 -109t38.5 -94t69 -66.5t102.5 -25.5q30 0 60.5 6t62.5 18.5t68 31.5t77 45v-109z" />
    <glyph glyph-name="D" unicode="D" horiz-adv-x="767" 
d="M80 0v650q0 14 -2 37t-13 39h211q90 0 170 -18t140 -60.5t95.5 -112t35.5 -172.5q0 -101 -36 -170.5t-96.5 -112t-140 -61.5t-166.5 -19h-198zM577 364q0 78 -20 132t-58 87.5t-92.5 48t-123.5 14.5h-64v-566h64q70 0 125 14.5t92.5 48t57 87.5t19.5 134z" />
    <glyph glyph-name="E" unicode="E" horiz-adv-x="626" 
d="M577 0h-497v658q0 15 -2 35t-11 33h510v-80h-357v-208h357v-80h-357v-279h357v-79z" />
    <glyph glyph-name="F" unicode="F" horiz-adv-x="584" 
d="M572 726v-80h-352v-213h303v-80h-303v-353h-140v650q0 14 -1.5 37t-12.5 39h506z" />
    <glyph glyph-name="G" unicode="G" horiz-adv-x="799" 
d="M719 61q-62 -31 -136.5 -52.5t-143.5 -21.5q-88 0 -160 23.5t-123.5 70.5t-79.5 117.5t-28 165.5q0 90 28 160t79 117.5t123 72.5t161 25q66 0 133.5 -16.5t146.5 -54.5v-111q-44 26 -82 45.5t-73.5 32t-70 18.5t-71.5 6q-54 0 -97 -20.5t-73.5 -58t-47 -92t-16.5 -121.5
q0 -71 17 -127t49 -94.5t77.5 -58.5t102.5 -20q37 0 74 6t71 19v191h-185v80h325v-302z" />
    <glyph glyph-name="H" unicode="H" horiz-adv-x="742" 
d="M522 658q0 15 -2 35t-12 33h106q48 0 48 -34v-692h-140v358h-302v-358h-140v658q0 15 -2 35t-11 33h106q47 0 47 -34v-254h302v220z" />
    <glyph glyph-name="I" unicode="I" horiz-adv-x="440" 
d="M382 0h-324v80h92v566h-92v80h324v-80h-92v-566h92v-80z" />
    <glyph glyph-name="J" unicode="J" horiz-adv-x="485" 
d="M405 186q0 -47 -18 -83.5t-49.5 -61.5t-76 -38t-96.5 -13q-12 0 -30 1.5t-38.5 4t-41 5.5t-37.5 6v87q41 -13 71 -18.5t63 -5.5q38 0 60.5 12t34 33t15 49.5t3.5 61.5v433q0 15 -2 34.5t-11 32.5h104q49 0 49 -34v-506z" />
    <glyph glyph-name="K" unicode="K" horiz-adv-x="669" 
d="M220 0h-140v658q0 15 -2 35t-11 33h106q47 0 47 -34v-302l273 301q11 13 11 20q0 4 -6 15h105q17 0 26 -6.5t9 -16.5q0 -8 -7 -15l-286 -308l335 -380h-172l-241 295l-47 -50v-245z" />
    <glyph glyph-name="L" unicode="L" horiz-adv-x="586" 
d="M80 650q0 14 -1.5 37t-12.5 39h106q48 0 48 -33v-613h348v-80h-488v650z" />
    <glyph glyph-name="M" unicode="M" horiz-adv-x="843" 
d="M714 726q49 0 49 -34v-692h-140v541l-153 -340h-98l-152 339v-540h-140v658q0 15 -2 35t-11 33h165q19 0 26.5 -6.5t16.5 -28.5q38 -82 75.5 -162.5t75.5 -164.5q35 78 70 155.5t69 156.5q10 19 10 34q0 6 -5 16h144z" />
    <glyph glyph-name="N" unicode="N" horiz-adv-x="760" 
d="M540 211v448q0 15 -1.5 34t-10.5 33h104q48 0 48 -34v-692h-167l-293 571v-571h-140v658q0 15 -2 35t-11 33h186q10 0 16 -1.5t10 -5.5t7.5 -11l8.5 -17z" />
    <glyph glyph-name="O" unicode="O" horiz-adv-x="796" 
d="M747 362q0 -85 -22.5 -154.5t-67 -119t-109.5 -76.5t-149 -27t-149.5 27t-110 76t-67.5 118.5t-23 155.5q0 85 23 155t67.5 120t109.5 77t150 27t150 -27t109 -76.5t66.5 -119.5t22.5 -156zM607 362q0 146 -55.5 222.5t-152.5 76.5q-99 0 -154.5 -76.5t-55.5 -222.5
q0 -72 15 -127.5t42.5 -93t66.5 -57t86 -19.5q96 0 152 75.5t56 221.5z" />
    <glyph glyph-name="P" unicode="P" horiz-adv-x="615" 
d="M293 726q51 0 103 -10t93.5 -35t68 -67t26.5 -106q0 -65 -26.5 -109.5t-68.5 -72.5t-95 -40.5t-105 -12.5h-69v-273h-140v658q0 15 -2 35t-11 33h226zM445 507q0 41 -11 68t-31 42.5t-49.5 22t-65.5 6.5h-68v-293h54q79 0 125 34t46 120z" />
    <glyph glyph-name="Q" unicode="Q" horiz-adv-x="793" 
d="M747 362q0 -129 -49 -218t-146 -131q4 -54 22.5 -84t65.5 -30q15 0 38.5 4t66.5 15v-80q-19 -6 -34 -9.5t-29 -5.5t-27.5 -2.5t-29.5 -0.5q-88 0 -142.5 42t-63.5 123h-20q-84 0 -149.5 27t-110 76t-67.5 118.5t-23 155.5q0 85 23 155t67.5 120t109.5 77t150 27t150 -27
t109 -76.5t66.5 -119.5t22.5 -156zM607 362q0 146 -55.5 222.5t-152.5 76.5q-99 0 -154.5 -76.5t-55.5 -222.5q0 -72 15 -127.5t42.5 -93t66.5 -57t86 -19.5q96 0 152 75.5t56 221.5z" />
    <glyph glyph-name="R" unicode="R" horiz-adv-x="673" 
d="M80 650q0 14 -1.5 37t-12.5 39h233q49 0 99.5 -7.5t92 -29.5t67.5 -60.5t26 -99.5q0 -72 -40.5 -123.5t-109.5 -83.5l263 -322h-154l-221 291h-102v-291h-140v650zM443 523q0 37 -9.5 61t-27 38t-43 19.5t-57.5 5.5h-86v-276h70q79 0 116 34.5t37 117.5z" />
    <glyph glyph-name="S" unicode="S" horiz-adv-x="707" 
d="M650 205q0 -59 -29 -100t-74 -67t-99 -38t-103 -12q-82 0 -147.5 15.5t-134.5 47.5v118q85 -51 157 -76t126 -25q78 0 121.5 33.5t43.5 90.5q0 40 -13.5 63.5t-36.5 36.5t-52.5 18.5t-61.5 10.5q-45 8 -94.5 19.5t-90.5 34t-67.5 60t-26.5 97.5q0 55 27.5 94.5t69.5 64.5
t92.5 36.5t96.5 11.5q81 0 146 -16t122 -41v-108q-72 38 -139 61.5t-130 23.5q-66 0 -106 -32.5t-40 -84.5q0 -42 12.5 -65.5t34 -35.5t50.5 -17.5t61 -11.5q45 -8 95 -19.5t92 -33.5t70 -59t28 -95z" />
    <glyph glyph-name="T" unicode="T" horiz-adv-x="644" 
d="M641 646h-249v-646h-140v646h-250v80h639v-80z" />
    <glyph glyph-name="U" unicode="U" horiz-adv-x="744" 
d="M79 659q0 14 -1.5 33.5t-11.5 33.5h105q48 0 48 -33v-407q0 -41 5 -80.5t21.5 -70.5t46.5 -50t80 -19q48 0 78 18.5t47 48.5t23 69.5t6 81.5v375q0 15 -2 34.5t-11 32.5h104q48 0 48 -33v-401q0 -306 -293 -306q-150 0 -221.5 75t-71.5 231v367z" />
    <glyph glyph-name="V" unicode="V" horiz-adv-x="692" 
d="M438 0h-167l-246 702q-2 4 -6.5 11.5t-11.5 12.5h119q19 0 27 -6.5t16 -28.5l188 -567l183 553q4 12 5.5 19t1.5 15q0 4 -6 15h116q25 0 25 -20q0 -9 -4 -18z" />
    <glyph glyph-name="W" unicode="W" horiz-adv-x="937" 
d="M516 726q18 0 25 -6.5t12 -28.5l117 -505l116 492q2 6 4 16t2 16q0 5 -6 16h112q26 0 26 -19q0 -7 -3 -17l-172 -690h-149l-125 533l-124 -533h-147l-177 697q-5 19 -19 29h119q19 0 27 -6.5t13 -28.5l118 -501l112 484q2 11 4 20.5t2 14.5q0 6 -6 17h119z" />
    <glyph glyph-name="X" unicode="X" horiz-adv-x="668" 
d="M336 460l136 218q5 7 11 18t6 18q0 4 -5 12h126q22 0 22 -14q0 -10 -10 -26l-217 -318l243 -368h-153l-163 269l-166 -269h-147l244 362l-192 303q-11 17 -21 29t-27 32h118q19 0 30 -6.5t23 -26.5z" />
    <glyph glyph-name="Y" unicode="Y" horiz-adv-x="626" 
d="M317 432l138 244q5 9 11 20t6 18q0 5 -5 12h125q22 0 22 -14q0 -10 -10 -26l-217 -365v-321h-140v321l-198 344q-11 18 -20.5 30t-28.5 31h120q17 0 30.5 -6t24.5 -29z" />
    <glyph glyph-name="Z" unicode="Z" horiz-adv-x="689" 
d="M642 0h-593v81l416 565h-401v80h567v-77l-422 -569h433v-80z" />
    <glyph glyph-name="bracketleft" unicode="[" horiz-adv-x="400" 
d="M390 -160h-274v1000h274v-80h-144v-840h144v-80z" />
    <glyph glyph-name="backslash" unicode="\" 
d="M526 726q18 0 25 -6.5t12 -28.5l54 -257h101l48 244q2 6 4 16t2 16q0 5 -6 16h112q26 0 26 -19q0 -4 -1 -9t-2 -8l-57 -256h90v-84h-108l-77 -350h-149l-76 350h-78l-75 -350h-147l-79 350h-118v84h99l-59 263q-4 17 -19 29h119q19 0 27 -6.5t13 -28.5l50 -257h99l51 240
q2 11 4 20.5t2 14.5q0 6 -6 17h119zM670 186l32 164h-67zM305 190l33 160h-64zM464 434h42l-21 99z" />
    <glyph glyph-name="bracketright" unicode="]" horiz-adv-x="400" 
d="M10 -160v80h144v840h-144v80h274v-1000h-274z" />
    <glyph glyph-name="asciicircum" unicode="^" horiz-adv-x="819" 
d="M733 337h-157l-166 250l-166 -251h-157l273 390h99z" />
    <glyph glyph-name="underscore" unicode="_" horiz-adv-x="500" 
d="M495 0h-490v80h490v-80z" />
    <glyph glyph-name="grave" unicode="`" horiz-adv-x="351" 
d="M291 640h-108l-123 178h151z" />
    <glyph glyph-name="a" unicode="a" horiz-adv-x="610" 
d="M540 0h-140v33q-38 -26 -76.5 -37t-91.5 -11q-36 0 -70.5 11.5t-61.5 33t-43.5 53.5t-16.5 73q0 46 17.5 78.5t46 55t66 36t77.5 21t79.5 11t73.5 5.5v13q0 33 -8.5 54t-24 32.5t-37.5 15.5t-50 4q-15 0 -37.5 -3t-49 -8.5t-54 -13t-53.5 -16.5v89q15 4 37.5 9.5t49 10.5
t54.5 8.5t53 3.5q46 0 92.5 -7.5t83.5 -28.5t60.5 -58t23.5 -95v-373zM400 284q-35 -1 -73.5 -4.5t-71 -15.5t-54 -35.5t-21.5 -65.5q0 -48 19.5 -73t64.5 -25q36 0 71.5 17t64.5 42v160z" />
    <glyph glyph-name="b" unicode="b" horiz-adv-x="628" 
d="M70 685q0 13 -1.5 36.5t-11.5 38.5h104q25 0 37 -7.5t12 -25.5v-214q30 20 65 35t88 15q51 0 93 -19t71.5 -55t45.5 -89t16 -120q0 -59 -17 -112.5t-50 -94t-80.5 -64.5t-108.5 -24q-42 0 -71.5 9t-54.5 24l-2 -18h-135v685zM449 277q0 102 -25.5 154t-83.5 52
q-29 0 -63.5 -17t-66.5 -43v-325q31 -17 54.5 -25t49.5 -8q63 0 99 50.5t36 161.5z" />
    <glyph glyph-name="c" unicode="c" horiz-adv-x="553" 
d="M513 38q-51 -24 -96 -37.5t-96 -13.5q-68 0 -120.5 20t-88 57t-54 90.5t-18.5 120.5t20 120t56.5 90.5t88.5 57.5t116 20q51 0 100.5 -15t91.5 -35v-101q-57 42 -102 56.5t-84 14.5q-66 0 -106.5 -52.5t-40.5 -155.5t39 -155.5t108 -52.5q40 0 82 15.5t104 51.5v-96z" />
    <glyph glyph-name="d" unicode="d" horiz-adv-x="628" 
d="M418 685q0 13 -2 36.5t-12 38.5h106q26 0 37 -7.5t11 -25.5v-727h-140v31q-29 -23 -66.5 -34.5t-80.5 -11.5q-53 0 -95.5 19.5t-72.5 56.5t-46.5 90t-16.5 120q0 59 18 112t51.5 92.5t82 63t109.5 23.5q35 0 63 -7t54 -19v149zM418 455q-26 15 -50 21t-53 6
q-66 0 -100.5 -54.5t-34.5 -154.5q0 -103 26.5 -155.5t86.5 -52.5q28 0 61 16t64 43v331z" />
    <glyph glyph-name="e" unicode="e" horiz-adv-x="610" 
d="M567 256h-393q1 -41 11.5 -75.5t30.5 -60.5t51 -40.5t73 -14.5t98 17.5t119 47.5v-93q-51 -22 -105 -37t-111 -15q-145 0 -223 73t-78 211q0 66 19.5 120.5t55.5 92.5t87.5 59t115.5 21q118 0 183.5 -65.5t65.5 -183.5v-57zM432 336q-3 72 -32 109t-87 37t-94 -41.5
t-44 -104.5h257z" />
    <glyph glyph-name="f" unicode="f" horiz-adv-x="366" 
d="M397 672q-29 7 -55 10.5t-52 3.5q-23 0 -38 -5.5t-24 -19.5t-12.5 -37.5t-3.5 -58.5v-20h153v-80h-153v-465h-140v465h-60v80h60v19q0 100 51.5 150.5t154.5 50.5q32 0 62 -4.5t57 -9.5v-79z" />
    <glyph glyph-name="g" unicode="g" horiz-adv-x="628" 
d="M558 79q0 -70 -17.5 -119t-52 -80t-86.5 -45.5t-121 -14.5q-48 0 -93 10.5t-91 28.5v88q48 -22 98 -34.5t93 -12.5q73 0 101.5 35.5t28.5 107.5v6q-29 -18 -63 -27.5t-85 -9.5q-105 0 -167.5 69.5t-62.5 198.5q0 59 18 110.5t51.5 89.5t81.5 60t108 22q40 0 68.5 -8
t53.5 -19l2 10h135v-466zM418 455q-30 15 -56 21t-49 6q-63 0 -98 -51.5t-35 -148.5q0 -96 25 -143t86 -47q30 0 63.5 11.5t63.5 33.5v318z" />
    <glyph glyph-name="h" unicode="h" horiz-adv-x="630" 
d="M210 0h-140v685q0 13 -1.5 36.5t-11.5 38.5h104q25 0 37 -7.5t12 -25.5v-215q37 25 74.5 37.5t79.5 12.5q100 0 148 -54t48 -151v-357h-140v341q0 24 -2 49t-10 45.5t-24.5 33.5t-45.5 13q-25 0 -58 -18t-70 -47v-417z" />
    <glyph glyph-name="i" unicode="i" horiz-adv-x="280" 
d="M63 667q0 31 23 53t54 22q32 0 55 -22t23 -53q0 -32 -23 -53t-55 -21q-31 0 -54 21t-23 53zM70 469q0 15 -2 38t-13 38h106q49 0 49 -32v-513h-140v469z" />
    <glyph glyph-name="j" unicode="j" horiz-adv-x="371" 
d="M152 667q0 31 23 53t55 22t55 -22t23 -53q0 -32 -23 -53t-55 -21t-55 21t-23 53zM161 479q0 16 -2 34t-13 32h106q49 0 49 -32v-500q0 -96 -53.5 -144.5t-142.5 -48.5q-11 0 -27 1.5t-33.5 4t-34.5 6t-30 8.5v81q29 -11 59.5 -16t47.5 -5q25 0 39.5 9.5t22 25t10 35
t2.5 39.5v470z" />
    <glyph glyph-name="k" unicode="k" horiz-adv-x="594" 
d="M396 512q12 13 12 20q0 2 -3 8l-3 5h125q35 0 35 -20q0 -8 -8 -16l-223 -220l274 -289h-167l-185 212l-43 -42v-170h-140v685q0 13 -1.5 36.5t-11.5 38.5h104q25 0 37 -7.5t12 -25.5v-416z" />
    <glyph glyph-name="l" unicode="l" horiz-adv-x="280" 
d="M210 0h-140v685q0 13 -1.5 36.5t-11.5 38.5h104q25 0 37 -7.5t12 -25.5v-727z" />
    <glyph glyph-name="m" unicode="m" horiz-adv-x="974" 
d="M70 469q0 14 -1.5 38t-11.5 38h104q49 0 49 -32v-2q36 25 72 38t78 13q60 0 100.5 -19.5t64.5 -56.5q45 38 87.5 57t94.5 19q100 0 148.5 -54t48.5 -151v-357h-140v341q0 24 -2 48.5t-10.5 44.5t-25 32.5t-45.5 12.5q-28 0 -59.5 -17.5t-69.5 -49.5q2 -13 3.5 -26.5
t1.5 -28.5v-357h-140v337q0 24 -2 49.5t-10.5 46t-25 33.5t-45.5 13q-26 0 -56.5 -17t-67.5 -46v-416h-140v469z" />
    <glyph glyph-name="n" unicode="n" horiz-adv-x="630" 
d="M70 469q0 14 -1.5 38t-11.5 38h104q49 0 49 -32v-1q37 25 74.5 37.5t79.5 12.5q100 0 148 -54t48 -151v-357h-140v341q0 24 -2 49t-10 46t-24.5 34t-45.5 13q-25 0 -58 -18.5t-70 -47.5v-417h-140v469z" />
    <glyph glyph-name="o" unicode="o" horiz-adv-x="616" 
d="M308 -15q-61 0 -110.5 20t-84.5 57t-54 90t-19 120t19 120.5t54 91.5t84.5 58.5t110.5 20.5t110.5 -20.5t84.5 -58.5t54 -91.5t19 -120.5t-19 -120t-54 -90t-84.5 -57t-110.5 -20zM308 483q-63 0 -95.5 -51t-32.5 -160q0 -106 32.5 -156.5t95.5 -50.5t95.5 50.5
t32.5 156.5q0 109 -32.5 160t-95.5 51z" />
    <glyph glyph-name="p" unicode="p" horiz-adv-x="628" 
d="M210 513q30 20 65 35t88 15q51 0 93 -19t71.5 -55t45.5 -89t16 -120q0 -59 -17 -112.5t-50 -94t-80.5 -64.5t-108.5 -24q-39 0 -69 8.5t-54 22.5v-196h-140v649q0 15 -1.5 38t-12.5 38h105q49 0 49 -32zM449 277q0 102 -25.5 154t-83.5 52q-29 0 -63.5 -17t-66.5 -43
v-325q31 -17 54.5 -25t49.5 -8q63 0 99 50.5t36 161.5z" />
    <glyph glyph-name="q" unicode="q" horiz-adv-x="628" 
d="M418 31q-29 -23 -66.5 -34.5t-80.5 -11.5q-53 0 -95.5 19.5t-72.5 56.5t-46.5 90t-16.5 120q0 59 18 112t51.5 92.5t82 63t109.5 23.5q35 0 65 -7.5t55 -19.5l2 10h135v-725h-140v211zM418 455q-26 15 -50 21t-53 6q-66 0 -100.5 -54.5t-34.5 -154.5q0 -103 26.5 -155.5
t86.5 -52.5q28 0 61 16t64 43v331z" />
    <glyph glyph-name="r" unicode="r" horiz-adv-x="464" 
d="M70 469q0 14 -1.5 38t-11.5 38h104q49 0 49 -32v-19q40 28 74.5 38.5t74.5 10.5q14 0 34 -1t53 -6v-85q-21 5 -47 8.5t-55 3.5q-26 0 -62.5 -16t-71.5 -45v-402h-140v469z" />
    <glyph glyph-name="s" unicode="s" horiz-adv-x="549" 
d="M513 155q0 -37 -18 -68t-50.5 -53.5t-78.5 -35.5t-102 -13q-63 0 -117 17t-94 37v97q63 -37 120 -54t99 -17q48 0 74.5 18t26.5 61q0 21 -3.5 34t-12 21.5t-21.5 13.5t-32 10q-26 7 -52.5 13t-52.5 12q-80 19 -112 56t-32 88q0 47 21.5 79.5t55 53t75.5 29.5t83 9
q54 0 108 -14t90 -32v-94q-55 28 -105.5 44t-98.5 16q-42 0 -65.5 -19.5t-23.5 -59.5q0 -38 14 -54t48 -24q27 -6 53.5 -12t53.5 -14q30 -8 57 -19.5t47.5 -28.5t32.5 -40.5t12 -56.5z" />
    <glyph glyph-name="t" unicode="t" horiz-adv-x="410" 
d="M72 625v17t-1.5 20.5t-4.5 21t-9 18.5h105q50 0 50 -33v-124h177v-80h-177v-284q0 -21 2 -41.5t9 -37t21 -27t39 -10.5q26 0 54.5 6t51.5 14v-79q-31 -10 -66.5 -15.5t-62.5 -5.5q-93 0 -140.5 44t-47.5 143v293h-60v80h60v80z" />
    <glyph glyph-name="u" unicode="u" horiz-adv-x="625" 
d="M420 469v17t-1.5 21t-4.5 21t-8 17h106q26 0 37 -7.5t11 -24.5v-513h-140v34q-37 -25 -74.5 -37.5t-79.5 -12.5q-100 0 -148 54t-48 151v280q0 14 -1.5 38t-11.5 38h104q49 0 49 -32v-308q0 -25 2 -50t10 -45.5t24.5 -33t45.5 -12.5q51 0 128 63v342z" />
    <glyph glyph-name="v" unicode="v" horiz-adv-x="578" 
d="M421 503q3 8 5 15t2 13q0 5 -6 14h113q26 0 26 -19q0 -9 -4 -18l-198 -508h-133l-201 521q-8 16 -19 24h118q18 0 25.5 -6.5t15.5 -27.5l131 -365z" />
    <glyph glyph-name="w" unicode="w" horiz-adv-x="796" 
d="M438 545q19 0 26 -6t13 -27l98 -327l63 308q2 6 3.5 17t1.5 17q0 9 -6 18h112q24 0 26 -18q0 -6 -3 -16l-127 -511h-127l-114 374l-111 -374h-128l-126 505q-3 13 -9.5 23.5t-13.5 16.5h117q18 0 26 -6.5t13 -26.5l70 -328l92 313q3 10 5 17.5t2 14.5t-6 16h103z" />
    <glyph glyph-name="x" unicode="x" horiz-adv-x="584" 
d="M299 363l95 135q8 11 13 19t5 16q0 5 -5 12h120q24 0 24 -14q0 -9 -12 -25l-179 -227l205 -279h-146l-129 184l-134 -184h-135l204 272l-159 213q-11 15 -24 30.5t-27 29.5h120q18 0 29 -6.5t25 -25.5z" />
    <glyph glyph-name="y" unicode="y" horiz-adv-x="578" 
d="M273 -180h-136l87 207l-199 494q-8 16 -19 24h118q18 0 25.5 -6.5t15.5 -27.5l130 -339l126 331q3 8 5 15t2 13q0 5 -6 14h113q26 0 26 -19q0 -9 -4 -18z" />
    <glyph glyph-name="z" unicode="z" horiz-adv-x="539" 
d="M505 0h-471v65l312 401h-306v79h458v-61l-315 -405h322v-79z" />
    <glyph glyph-name="braceleft" unicode="{" horiz-adv-x="500" 
d="M490 -160h-74q-94 0 -148.5 47.5t-54.5 140.5v101q0 42 -4 74.5t-15.5 55t-33 34t-55.5 11.5h-46v80h46q34 0 55.5 12t33 34.5t15.5 55.5t4 75v92q0 93 54.5 140t148.5 47h74v-72h-48q-53 0 -76 -26.5t-23 -96.5v-106q0 -32 -5 -60.5t-18 -53.5t-35 -45.5t-56 -35.5
q66 -32 90 -82.5t24 -111.5v-114q0 -71 23.5 -98t75.5 -27h48v-71z" />
    <glyph glyph-name="bar" unicode="|" horiz-adv-x="481" 
d="M306 -160h-130v1000h130v-1000z" />
    <glyph glyph-name="braceright" unicode="}" horiz-adv-x="500" 
d="M10 -160v71h48q53 0 76 27t23 98v114q0 61 24 111.5t90 82.5q-34 15 -56 35.5t-35 45.5t-18 53.5t-5 60.5v106q0 70 -23 96.5t-76 26.5h-48v72h74q94 0 148.5 -47t54.5 -140v-92q0 -42 4 -75t15.5 -55.5t32.5 -34.5t56 -12h46v-80h-46q-35 0 -56 -11.5t-32.5 -34
t-15.5 -55t-4 -74.5v-101q0 -93 -54.5 -140.5t-148.5 -47.5h-74z" />
    <glyph glyph-name="asciitilde" unicode="~" horiz-adv-x="754" 
d="M706 450q-1 -47 -10.5 -93t-31.5 -82t-58.5 -58.5t-91.5 -22.5q-38 0 -67 10t-51.5 25.5t-40 35t-32.5 38.5q-20 25 -38.5 44t-40.5 19q-35 0 -57 -38t-26 -134h-113q1 48 11.5 94t33 82t59 57.5t89.5 21.5q36 0 64 -10t50 -25.5t39.5 -34.5t32.5 -37q22 -26 41.5 -44.5
t41.5 -18.5q78 0 83 171h113z" />
    <glyph glyph-name="exclamdown" unicode="&#xa1;" horiz-adv-x="327" 
d="M85 536q0 32 23.5 54t55.5 22t54.5 -22t22.5 -54q0 -31 -22.5 -53t-54.5 -22q-16 0 -30.5 6t-25 16t-17 24t-6.5 29zM238 -180h-149l23 575h105z" />
    <glyph glyph-name="cent" unicode="&#xa2;" horiz-adv-x="553" 
d="M513 38q-34 -16 -65 -27.5t-63 -17.5v-179h-91v174q-125 8 -189.5 83t-64.5 204q0 63 18 114t51 88t80 59t105 26v187h91v-192q35 -7 67 -18.5t61 -25.5v-101q-37 27 -68.5 42t-59.5 22v-401q27 8 58 22t70 37v-96zM294 479q-52 -12 -83 -62.5t-31 -141.5t30 -142t84 -63
v409z" />
    <glyph glyph-name="cent" unicode="&#xffe0;" horiz-adv-x="553" 
d="M513 38q-34 -16 -65 -27.5t-63 -17.5v-179h-91v174q-125 8 -189.5 83t-64.5 204q0 63 18 114t51 88t80 59t105 26v187h91v-192q35 -7 67 -18.5t61 -25.5v-101q-37 27 -68.5 42t-59.5 22v-401q27 8 58 22t70 37v-96zM294 479q-52 -12 -83 -62.5t-31 -141.5t30 -142t84 -63
v409z" />
    <glyph glyph-name="sterling" unicode="&#xa3;" horiz-adv-x="642" 
d="M592 80v-80h-543v83q57 17 82.5 74.5t27.5 154.5h-88v80h88v118q0 50 17.5 92t49.5 72.5t77 47.5t100 17q57 0 98.5 -9t77.5 -20v-89q-54 22 -93 30t-77 8q-62 0 -86 -40.5t-24 -118.5v-108h193v-80h-193q0 -78 -30.5 -134t-99.5 -98h423z" />
    <glyph glyph-name="sterling" unicode="&#xffe1;" horiz-adv-x="642" 
d="M592 80v-80h-543v83q57 17 82.5 74.5t27.5 154.5h-88v80h88v118q0 50 17.5 92t49.5 72.5t77 47.5t100 17q57 0 98.5 -9t77.5 -20v-89q-54 22 -93 30t-77 8q-62 0 -86 -40.5t-24 -118.5v-108h193v-80h-193q0 -78 -30.5 -134t-99.5 -98h423z" />
    <glyph glyph-name="currency" unicode="&#xa4;" horiz-adv-x="664" 
d="M62 537l80 80l99 -103q40 18 91 18t92 -18l100 103l80 -80l-94 -99q26 -44 26 -102t-25 -101l92 -97l-78 -81l-100 102q-42 -19 -93 -19q-52 0 -92 18l-99 -102l-78 83l91 95q-25 43 -25 102q0 60 26 104zM241 336q0 -40 25.5 -67t65.5 -27t66 27t26 67t-26 67t-66 27
t-65.5 -27t-25.5 -67z" />
    <glyph glyph-name="yen" unicode="&#xa5;" horiz-adv-x="626" 
d="M549 331h-156l-6 -10v-58h162v-75h-162v-188h-140v188h-164v75h164v58l-7 10h-157v75h115l-149 259q-11 18 -20.5 30t-28.5 31h120q17 0 30.5 -6t24.5 -29l142 -259l138 244q5 9 11 20t6 18q0 5 -5 12h125q23 0 23 -14q0 -6 -11 -26l-166 -280h111v-75z" />
    <glyph glyph-name="yen" unicode="&#xffe5;" horiz-adv-x="626" 
d="M549 331h-156l-6 -10v-58h162v-75h-162v-188h-140v188h-164v75h164v58l-7 10h-157v75h115l-149 259q-11 18 -20.5 30t-28.5 31h120q17 0 30.5 -6t24.5 -29l142 -259l138 244q5 9 11 20t6 18q0 5 -5 12h125q23 0 23 -14q0 -6 -11 -26l-166 -280h111v-75z" />
    <glyph glyph-name="section" unicode="&#xa7;" horiz-adv-x="630" 
d="M574 323q0 -58 -33 -104.5t-84 -73.5q54 -25 77.5 -60.5t23.5 -77.5q0 -53 -27 -89t-68.5 -58t-90 -31t-90.5 -9q-48 0 -92.5 8t-95.5 25v83q30 -11 56.5 -18.5t51 -12.5t48 -7.5t48.5 -2.5q60 0 95 25t35 73q0 35 -11 55t-30 31.5t-44.5 18t-54.5 14.5q-35 9 -74 19.5
t-72 29.5t-55 51t-22 85q0 64 32.5 104t83.5 64q-55 28 -77.5 63.5t-22.5 77.5q0 94 69.5 139.5t189.5 45.5q46 0 100 -10.5t105 -32.5v-78q-51 22 -100.5 34t-104.5 12q-56 0 -93.5 -25t-36.5 -71q1 -39 14.5 -61t36 -34t51.5 -18t61 -14q33 -8 68.5 -19.5t65 -31
t48.5 -48.5t19 -71zM446 299q0 36 -16 59t-42 38t-59.5 24.5t-67.5 19.5q-32 -20 -50.5 -55.5t-18.5 -73.5q0 -39 16.5 -62t43 -37t59.5 -22.5t65 -18.5q37 23 53.5 54t16.5 74z" />
    <glyph glyph-name="dieresis" unicode="&#xa8;" horiz-adv-x="452" 
d="M70 795q0 24 17 41.5t42 17.5q24 0 41.5 -17.5t17.5 -41.5q0 -26 -17.5 -43t-41.5 -17q-25 0 -42 17t-17 43zM264 795q0 24 17.5 41.5t41.5 17.5q25 0 42 -17.5t17 -41.5q0 -26 -17 -43t-42 -17q-24 0 -41.5 17t-17.5 43z" />
    <glyph glyph-name="copyright" unicode="&#xa9;" 
d="M906 343q0 -89 -32.5 -169t-89.5 -140t-135 -95.5t-169 -35.5t-169 35.5t-135 96t-89.5 140.5t-32.5 168q0 89 32.5 168.5t89.5 139.5t135 95.5t169 35.5t169 -35t135 -95t89.5 -140t32.5 -169zM846 343q0 77 -28 146t-77 122t-116 84t-145 31t-145 -31t-116 -84
t-77 -122t-28 -146q0 -76 28 -145.5t77 -122.5t116 -84t145 -31q79 0 146 31t116 83.5t76.5 122t27.5 146.5zM651 141q-42 -20 -76.5 -29.5t-65.5 -9.5q-59 0 -108 15.5t-84 46.5t-54 76t-19 105q0 56 19 101t53.5 77t83.5 49.5t109 17.5q35 0 73.5 -12t68.5 -26v-87
q-27 20 -67.5 35t-77.5 15q-31 0 -57 -11t-45 -32t-29.5 -53t-10.5 -74q0 -81 38.5 -125t103.5 -44q34 0 71.5 12.5t73.5 38.5v-86z" />
    <glyph glyph-name="ordfeminine" unicode="&#xaa;" horiz-adv-x="438" 
d="M386 362h-102v21q-27 -17 -53 -24.5t-64 -7.5q-26 0 -51 8.5t-44.5 24t-31.5 38.5t-12 52q0 49 26.5 78t65.5 43.5t83.5 19t80.5 6.5v11q0 46 -23 60t-60 14q-22 0 -62 -8.5t-79 -22.5v65q11 3 27.5 7t35.5 8t39.5 6.5t38.5 2.5q33 0 66.5 -5.5t59.5 -20.5t42.5 -41.5
t16.5 -68.5v-266zM284 563q-24 -1 -51 -3t-49.5 -10.5t-37.5 -24.5t-15 -46q0 -34 13.5 -52t44.5 -18q26 0 49.5 12.5t45.5 29.5v112z" />
    <glyph glyph-name="guillemotleft" unicode="&#xab;" horiz-adv-x="910" 
d="M832 -44l-507 307v75l507 306v-101l-397 -242l397 -243v-102zM577 -44l-507 307v75l507 306v-101l-397 -242l397 -243v-102z" />
    <glyph glyph-name="logicalnot" unicode="&#xac;" 
d="M807 79h-140v300h-522v80h662v-380z" />
    <glyph glyph-name="logicalnot" unicode="&#xffe2;" 
d="M807 79h-140v300h-522v80h662v-380z" />
    <glyph glyph-name="endash" unicode="&#xad;" horiz-adv-x="513" 
d="M513 310h-513v80h513v-80z" />
    <glyph glyph-name="endash" unicode="&#x2013;" horiz-adv-x="513" 
d="M513 310h-513v80h513v-80z" />
    <glyph glyph-name="registered" unicode="&#xae;" 
d="M310 100v438q0 9 -1.5 20.5t-12.5 32.5h170q36 0 72 -5.5t64.5 -20.5t46 -41.5t17.5 -68.5q0 -46 -25.5 -80t-68.5 -57q19 -25 42 -53t46.5 -56.5t46 -56.5t41.5 -52h-131l-144 192h-44v-192h-119zM429 362h31q45 0 66 20t21 69q0 42 -20.5 56t-55.5 14h-42v-159z
M906 343q0 -89 -32.5 -169t-89.5 -140t-135 -95.5t-169 -35.5t-169 35.5t-135 96t-89.5 140t-32.5 168.5q0 88 32.5 168t89.5 140t135 95.5t169 35.5t169 -35t135 -95t89.5 -140t32.5 -169zM846 343q0 76 -28 145.5t-77 122.5t-116 84t-145 31t-145 -31t-116 -84t-77 -122.5
t-28 -145.5q0 -77 28 -146t77 -122t116 -84t145 -31q79 0 146 31t116 83.5t76.5 122t27.5 146.5z" />
    <glyph glyph-name="degree" unicode="&#xb0;" horiz-adv-x="462" 
d="M412 646q0 -38 -15 -67t-40 -49.5t-57.5 -31t-68.5 -10.5t-69 10.5t-57.5 30.5t-39.5 49.5t-15 67.5q0 37 15 67t39.5 50t57.5 31t69 11t68.5 -11t57.5 -31t40 -50t15 -67zM315 646q0 48 -23.5 75.5t-60.5 27.5q-38 0 -61.5 -27.5t-23.5 -75.5t25 -75t60 -27
q37 0 60.5 28t23.5 74z" />
    <glyph glyph-name="plusminus" unicode="&#xb1;" 
d="M784 87h-608v78h247v248h-247v76h247v254h115v-254h246v-76h-246v-248h246v-78z" />
    <glyph glyph-name="twosuperior" unicode="&#xb2;" horiz-adv-x="435" 
d="M384 331h-340v60q44 36 86 71.5t75 72t53 75t20 80.5q0 38 -18.5 59t-50.5 21q-31 0 -72.5 -15t-81.5 -39v70q14 7 32.5 15t39 14.5t42 10.5t41.5 4q84 0 130.5 -37t46.5 -100q0 -43 -15 -80.5t-42 -73.5t-65.5 -71.5t-85.5 -74.5h205v-62z" />
    <glyph glyph-name="threesuperior" unicode="&#xb3;" horiz-adv-x="440" 
d="M38 424q51 -22 92 -32t69 -10q42 0 63 28t21 71q0 50 -22 67t-63 17h-52v60h46q37 0 59 20t22 59q0 38 -19 52t-49 14q-24 0 -61 -10t-91 -33v65q13 7 31.5 14t39 12t42 8.5t40.5 3.5q28 0 59 -6t57 -19.5t43 -36.5t17 -57q0 -33 -24.5 -64t-61.5 -47q42 -14 69.5 -45
t27.5 -79q0 -39 -17 -68t-44 -48.5t-61.5 -29t-70.5 -9.5q-44 0 -88.5 11.5t-73.5 25.5v66z" />
    <glyph glyph-name="acute" unicode="&#xb4;" horiz-adv-x="636" 
d="M427 851l-182 -228h-80l103 228h159z" />
    <glyph glyph-name="paragraph" unicode="&#xb6;" horiz-adv-x="678" 
d="M582 -152h-106v891h-75v-891h-106v496q-52 3 -94 20.5t-72 47t-46 70t-16 90.5q0 103 68 161t199 58h248v-943z" />
    <glyph glyph-name="periodcentered" unicode="&#xb7;" horiz-adv-x="364" 
d="M260 350q0 -34 -22.5 -55.5t-55.5 -21.5t-55 21.5t-22 55.5q0 33 21.5 55t54.5 22t56 -22t23 -55z" />
    <glyph glyph-name="periodcentered" unicode="&#x30fb;" horiz-adv-x="364" 
d="M260 350q0 -34 -22.5 -55.5t-55.5 -21.5t-55 21.5t-22 55.5q0 33 21.5 55t54.5 22t56 -22t23 -55z" />
    <glyph glyph-name="cedilla" unicode="&#xb8;" horiz-adv-x="636" 
d="M430 -10q0 -85 -44.5 -127.5t-116.5 -42.5q-18 0 -46.5 3.5t-50.5 9.5v79q18 -7 40 -12t45 -5q36 0 47 20.5t11 65.5q0 14 -1 33t-3 31h115q1 -10 2.5 -23t1.5 -32z" />
    <glyph glyph-name="onesuperior" unicode="&#xb9;" horiz-adv-x="388" 
d="M151 331v370h-96v53q21 0 39.5 1.5t33 8t24 20t12.5 37.5h97v-490h-110z" />
    <glyph glyph-name="ordmasculine" unicode="&#xba;" horiz-adv-x="437" 
d="M410 555q0 -47 -13.5 -85t-38.5 -64.5t-60 -41t-78 -14.5q-44 0 -79.5 14.5t-61 41t-39 64.5t-13.5 85q0 48 13.5 86.5t39 65.5t61 42t79.5 15q43 0 78 -15t60 -42t38.5 -65.5t13.5 -86.5zM308 555q0 78 -23 114.5t-65 36.5q-45 0 -67.5 -36.5t-22.5 -114.5
q0 -147 90 -147q42 0 65 36t23 111z" />
    <glyph glyph-name="guillemotright" unicode="&#xbb;" horiz-adv-x="910" 
d="M78 -44v102l397 243l-397 242v101l507 -306v-75zM333 -44v102l397 243l-397 242v101l507 -306v-75z" />
    <glyph glyph-name="onequarter" unicode="&#xbc;" 
d="M143 303v368h-96v53q21 0 39.5 1.5t33 8t24 20t12.5 37.5h97v-488h-110zM681 764l-406 -805h-96l406 805h96zM924 89h-67v-130h-110v130h-223v64l233 296h100v-287h67v-73zM621 162h126v163z" />
    <glyph glyph-name="onehalf" unicode="&#xbd;" 
d="M133 303v368h-97v53q21 0 39.5 1.5t33.5 8t24.5 20t11.5 37.5h97v-488h-109zM660 764l-406 -805h-96l406 805h96zM929 -41h-362v60q44 36 86 71.5t75 72t53 75t20 80.5q0 38 -18.5 59t-50.5 21q-30 0 -71.5 -15t-81.5 -39v76q28 14 70.5 26t83.5 12q84 0 130.5 -36.5
t46.5 -99.5q0 -44 -15 -81.5t-42 -73.5t-65.5 -71.5t-85.5 -74.5h227v-62z" />
    <glyph glyph-name="threequarters" unicode="&#xbe;" 
d="M39 392q51 -22 92 -35.5t69 -13.5q42 0 63 28t21 71q0 50 -22 67t-63 17h-52v60h46q37 0 59 20t22 59q0 38 -19 52t-49 14q-24 0 -61 -13.5t-91 -36.5v72q13 7 31.5 14t39 12t42 8.5t40.5 3.5q28 0 59 -6t57 -19.5t43 -36.5t17 -57q0 -33 -24.5 -64t-61.5 -47
q42 -14 69.5 -45t27.5 -79q0 -39 -17 -68t-44 -48.5t-61.5 -29t-70.5 -9.5q-44 0 -88.5 11.5t-73.5 25.5v73zM755 764l-406 -805h-96l406 805h96zM934 89h-66v-130h-110v130h-224v64l233 296h101v-287h66v-73zM631 162h127v163z" />
    <glyph glyph-name="questiondown" unicode="&#xbf;" horiz-adv-x="512" 
d="M373 541q0 -31 -22.5 -53t-54.5 -22q-16 0 -30.5 6t-25 16t-17 24t-6.5 29q0 32 23.5 54t55.5 22t54.5 -22t22.5 -54zM37 15q0 43 16 81.5t42.5 71.5t61 61t70.5 50v126h138v-158q-38 -16 -72 -38.5t-59.5 -50.5t-41 -62t-15.5 -74q0 -29 10 -51.5t26.5 -38t38 -24
t45.5 -8.5q43 0 87 14.5t98 38.5v-93q-21 -8 -46.5 -15t-52 -12.5t-53 -9t-50.5 -3.5q-56 0 -101 14.5t-76.5 41t-48.5 62t-17 77.5z" />
    <glyph glyph-name="AE" unicode="&#xc6;" horiz-adv-x="951" 
d="M13 0l236 677q1 3 1.5 5.5t0.5 5.5q0 15 -11 26l-13 12h684v-80h-359v-208h359v-80h-359v-279h359v-79h-500v196h-198l-65 -196h-135zM411 646h-48l-123 -370h171v370z" />
    <glyph glyph-name="Eth" unicode="&#xd0;" horiz-adv-x="767" 
d="M80 0v339h-58v80h58v231q0 14 -2 37t-13 39h211q90 0 170 -18t140 -60.5t95.5 -112t35.5 -172.5q0 -101 -36 -170.5t-96.5 -112t-140 -61.5t-166.5 -19h-198zM577 364q0 78 -20 132t-58 87.5t-92.5 48t-123.5 14.5h-64v-227h143v-80h-143v-259h64q70 0 125 14.5t92.5 48
t57 87.5t19.5 134z" />
    <glyph glyph-name="multiply" unicode="&#xd7;" 
d="M759 123l-79 -82l-200 211l-201 -211l-78 82l201 209l-202 208l79 82l201 -209l200 209l80 -82l-203 -208z" />
    <glyph glyph-name="Oslash" unicode="&#xd8;" horiz-adv-x="796" 
d="M747 362q0 -85 -22.5 -154.5t-67 -119t-109.5 -76.5t-149 -27q-55 0 -96 10l-31 -82h-87l42 109q-88 45 -133 132t-45 208q0 85 23 155t67.5 120t109.5 77t150 27q50 0 99 -11l27 71h86l-37 -98q87 -45 130 -132.5t43 -208.5zM467 649q-32 12 -68 12q-99 0 -154.5 -76.5
t-55.5 -222.5q0 -84 19.5 -144.5t55.5 -97.5zM607 362q0 163 -72 241l-201 -527q33 -11 65 -11q96 0 152 75.5t56 221.5z" />
    <glyph glyph-name="Thorn" unicode="&#xde;" horiz-adv-x="630" 
d="M80 650q0 14 -1.5 37t-12.5 39h106q48 0 48 -33v-57h75q52 0 104.5 -10t95 -35t69 -67.5t26.5 -108.5q0 -65 -26.5 -110t-69.5 -73t-96 -40.5t-107 -12.5h-71v-179h-140v650zM450 413q0 42 -11 69.5t-32 44t-50.5 23t-66.5 6.5h-70v-297h57q39 0 71 7.5t54.5 25.5
t35 47.5t12.5 73.5z" />
    <glyph glyph-name="germandbls" unicode="&#xdf;" horiz-adv-x="624" 
d="M70 -180v719q0 53 18 95t51 71t80 44.5t105 15.5q39 0 79 -10t73 -31.5t54 -54.5t21 -79q0 -70 -34.5 -115t-97.5 -67q39 -8 70.5 -26.5t53 -44.5t33.5 -57.5t12 -65.5q0 -51 -19 -93t-52.5 -72t-79 -47t-99.5 -17q-38 0 -69.5 8t-58.5 20v-193h-140zM448 216
q0 42 -12.5 70t-35 44.5t-53.5 23.5t-68 7h-40v80h40q72 0 102.5 33t30.5 105q0 54 -27 80.5t-69 26.5q-30 0 -50.5 -13.5t-32.5 -34.5t-17.5 -47.5t-5.5 -51.5v-447q29 -15 58.5 -21t55.5 -6q60 0 92 39.5t32 111.5z" />
    <glyph glyph-name="ae" unicode="&#xe6;" horiz-adv-x="972" 
d="M927 256h-393q1 -41 11.5 -75.5t30.5 -60.5t51 -40.5t73 -14.5t98 17.5t119 47.5v-93q-51 -22 -105 -37t-111 -15q-162 0 -240 93q-38 -33 -69 -51.5t-58.5 -28t-52 -11.5t-49.5 -2q-36 0 -70.5 11.5t-61.5 33t-43.5 53.5t-16.5 73q0 46 17.5 78.5t46 55t66 36t77.5 21
t79.5 11t73.5 5.5v13q0 33 -8.5 54t-24 32.5t-37.5 15.5t-50 4q-15 0 -37.5 -3t-49 -8.5t-54 -13t-53.5 -16.5v89q15 4 37.5 9.5t49 10.5t54.5 8.5t53 3.5q29 0 58.5 -3t57.5 -10t52.5 -19t43.5 -31q72 63 186 63q118 0 183.5 -65.5t65.5 -183.5v-57zM795 336q-3 72 -32 109
t-87 37t-94 -41.5t-44 -104.5h257zM400 284q-35 -1 -73.5 -4.5t-71 -15.5t-54 -35.5t-21.5 -65.5q0 -48 19.5 -73t64.5 -25q17 0 37 5.5t41 15.5t41.5 25t38.5 34q-14 35 -18 68t-4 70v1z" />
    <glyph glyph-name="eth" unicode="&#xf0;" horiz-adv-x="643" 
d="M263 528l-37 54l97 62q-36 18 -82 18q-23 0 -52 -5.5t-69 -18.5v87q21 7 51 12t55 5q109 0 186 -41l98 63l35 -56l-75 -48q63 -57 93 -143.5t30 -197.5q0 -71 -15.5 -132t-48.5 -105.5t-85.5 -70t-125.5 -25.5q-54 0 -102.5 17t-85 49.5t-58 78.5t-21.5 104t19.5 101.5
t54 73t81 44t100.5 14.5q43 0 77.5 -8.5t66.5 -23.5q-17 106 -71 166zM191 230q0 -81 33 -122.5t93 -41.5q50 0 78 26.5t41 65.5t15.5 84t2.5 82v29q-33 17 -63.5 26.5t-61.5 9.5q-75 0 -106.5 -40.5t-31.5 -118.5z" />
    <glyph glyph-name="divide" unicode="&#xf7;" 
d="M405 588q0 31 22 53t53 22t53 -22t22 -53t-22 -53t-53 -22t-53 22t-22 53zM793 368v-76h-627v76h627zM405 78q0 31 22 53t53 22t53 -22t22 -53t-22 -53t-53 -22t-53 22t-22 53z" />
    <glyph glyph-name="oslash" unicode="&#xf8;" horiz-adv-x="616" 
d="M308 -15q-35 0 -66 6l-28 -74h-85l39 102q-61 34 -94.5 98t-33.5 155q0 67 19 120.5t54 91.5t84.5 58.5t110.5 20.5q17 0 33.5 -2t32.5 -5l29 77h84l-40 -104q61 -35 95 -100.5t34 -156.5q0 -67 -19 -120t-54 -90t-84.5 -57t-110.5 -20zM308 483q-63 0 -95.5 -51
t-32.5 -160q0 -99 28 -148l136 354q-20 5 -36 5zM272 70q20 -5 36 -5q63 0 95.5 50.5t32.5 156.5q0 99 -29 152z" />
    <glyph glyph-name="thorn" unicode="&#xfe;" horiz-adv-x="628" 
d="M210 513q30 20 65 35t88 15q51 0 93 -19t71.5 -55t45.5 -89t16 -120q0 -59 -17 -112.5t-50 -94t-80.5 -64.5t-108.5 -24q-39 0 -69 8.5t-54 22.5v-196h-140v865q0 13 -1.5 36.5t-11.5 38.5h104q25 0 37 -7.5t12 -25.5v-214zM449 277q0 102 -25.5 154t-83.5 52
q-29 0 -63.5 -17t-66.5 -43v-325q31 -17 54.5 -25t49.5 -8q63 0 99 50.5t36 161.5z" />
    <glyph glyph-name="dcroat" unicode="&#x111;" horiz-adv-x="628" 
d="M290 590v80h128v15q0 13 -2 36.5t-12 38.5h106q26 0 37 -7.5t11 -25.5v-57h35v-80h-35v-590h-140v31q-29 -23 -66.5 -34.5t-80.5 -11.5q-53 0 -95.5 19.5t-72.5 56.5t-46.5 90t-16.5 120q0 59 18 112t51.5 92.5t82 63t109.5 23.5q35 0 63 -7t54 -19v54h-128zM418 455
q-26 15 -50 21t-53 6q-66 0 -100.5 -54.5t-34.5 -154.5q0 -103 26.5 -155.5t86.5 -52.5q28 0 61 16t64 43v331z" />
    <glyph glyph-name="Hbar" unicode="&#x126;" horiz-adv-x="742" 
d="M522 658q0 15 -2 35t-12 33h106q48 0 48 -34v-58h63v-81h-63v-553h-140v358h-302v-358h-140v553h-58v81h58v24q0 15 -2 35t-11 33h106q47 0 47 -34v-58h302v24zM220 438h302v115h-302v-115z" />
    <glyph glyph-name="hbar" unicode="&#x127;" horiz-adv-x="630" 
d="M29 589v80h41v16q0 13 -1.5 36.5t-11.5 38.5h104q25 0 37 -7.5t12 -25.5v-58h122v-80h-122v-77q37 25 74.5 37.5t79.5 12.5q100 0 148 -54t48 -151v-357h-140v341q0 24 -2 49t-10 45.5t-24.5 33.5t-45.5 13q-25 0 -58 -18t-70 -47v-417h-140v589h-41z" />
    <glyph glyph-name="dotlessi" unicode="&#x131;" horiz-adv-x="280" 
d="M70 469q0 15 -2 38t-13 38h106q49 0 49 -32v-513h-140v469z" />
    <glyph glyph-name="IJ" unicode="&#x132;" horiz-adv-x="872" 
d="M382 0h-324v80h92v566h-92v80h324v-80h-92v-566h92v-80zM792 186q0 -47 -18 -83.5t-49.5 -61.5t-76 -38t-96.5 -13q-12 0 -30 1.5t-38.5 4t-41 5.5t-37.5 6v87q41 -13 71 -18.5t63 -5.5q38 0 60.5 12t34 33t15 49.5t3.5 61.5v433q0 15 -2 34.5t-11 32.5h104q49 0 49 -34
v-506z" />
    <glyph glyph-name="ij" unicode="&#x133;" horiz-adv-x="541" 
d="M63 667q0 31 23 53t54 22q32 0 55 -22t23 -53q0 -32 -23 -53t-55 -21q-31 0 -54 21t-23 53zM322 667q0 31 23 53t55 22t55 -22t23 -53q0 -32 -23 -53t-55 -21t-55 21t-23 53zM70 469q0 15 -2 38t-13 38h106q49 0 49 -32v-513h-140v469zM331 479q0 16 -2 34t-13 32h106
q49 0 49 -32v-500q0 -96 -53.5 -144.5t-142.5 -48.5q-11 0 -27 1.5t-33 4t-34 6t-31 8.5v81q29 -11 59.5 -16t47.5 -5q25 0 39.5 9.5t22 25t10 35t2.5 39.5v470z" />
    <glyph glyph-name="kgreenlandic" unicode="&#x138;" horiz-adv-x="595" 
d="M396 512q11 11 12.5 15.5t-6.5 17.5h124q9 0 17 -2.5t12.5 -7.5t4.5 -11.5t-8 -14.5l-223 -220l274 -289h-165l-186 212l-43 -42v-170h-139v470q0 17 -1.5 39t-13.5 36h106q48 0 48 -32v-202z" />
    <glyph glyph-name="Ldot" unicode="&#x13f;" horiz-adv-x="586" 
d="M80 650q0 14 -1.5 37t-12.5 39h106q48 0 48 -33v-613h348v-80h-488v650zM333 337q0 31 23 53.5t56 22.5q16 0 30.5 -6t25 -16.5t17 -24.5t6.5 -29t-6.5 -29t-17 -24.5t-25 -16.5t-30.5 -6q-33 0 -56 22.5t-23 53.5z" />
    <glyph glyph-name="ldot" unicode="&#x140;" horiz-adv-x="474" 
d="M210 0h-140v685q0 13 -1.5 36.5t-11.5 38.5h104q25 0 37 -7.5t12 -25.5v-727zM281 377q0 31 22.5 53t54.5 22t54.5 -22t22.5 -53q0 -30 -22.5 -52.5t-54.5 -22.5t-54.5 22.5t-22.5 52.5z" />
    <glyph glyph-name="Lslash" unicode="&#x141;" horiz-adv-x="586" 
d="M80 650q0 14 -1.5 37t-12.5 39h106q48 0 48 -33v-249l142 116v-93l-142 -117v-270h348v-80h-488v236l-75 -62v94l75 61v321z" />
    <glyph glyph-name="lslash" unicode="&#x142;" horiz-adv-x="280" 
d="M210 0h-140v266l-61 -50v89l61 50v330q0 13 -1.5 36.5t-11.5 38.5h104q25 0 37 -7.5t12 -25.5v-258l62 51v-90l-62 -50v-380z" />
    <glyph glyph-name="napostrophe" unicode="&#x149;" horiz-adv-x="740" 
d="M255 754l-132 -275h-109l82 275h159zM180 469q0 14 -1.5 38t-11.5 38h104q49 0 49 -32v-1q37 25 74.5 37.5t79.5 12.5q100 0 148 -54t48 -151v-357h-140v341q0 24 -2 49t-10 46t-24.5 34t-45.5 13q-25 0 -58 -18.5t-70 -47.5v-417h-140v469z" />
    <glyph glyph-name="Eng" unicode="&#x14a;" horiz-adv-x="760" 
d="M540 256v403q0 15 -2 34t-11 33h105q48 0 48 -34v-692q-4 -91 -56 -135.5t-140 -44.5q-12 0 -27.5 1.5t-32.5 4t-34 6t-32 7.5v81q30 -11 61 -16t46 -5q23 0 37.5 9t22.5 23.5t11.5 33.5t4.5 39l-321 569v-573h-140v658q0 15 -2 34.5t-13 33.5h187q17 0 23.5 -5.5
t15.5 -22.5z" />
    <glyph glyph-name="eng" unicode="&#x14b;" horiz-adv-x="630" 
d="M560 79q0 -69 -17 -117t-51.5 -77t-86.5 -42t-121 -13q-42 0 -79 8.5t-76 19.5v89q47 -19 84 -28.5t79 -9.5q36 0 60.5 7.5t39.5 23.5t21.5 41t6.5 61v299q0 24 -2 49t-10 46t-24.5 34t-45.5 13q-25 0 -58 -18.5t-70 -47.5v-417h-140v469q0 14 -1.5 38t-11.5 38h104
q49 0 49 -32v-1q37 25 74.5 37.5t79.5 12.5q100 0 148 -54t48 -151v-278z" />
    <glyph glyph-name="OE" unicode="&#x152;" horiz-adv-x="1034" 
d="M994 0h-481q-53 -15 -115 -15q-85 0 -150 27t-109.5 76t-67.5 118.5t-23 155.5q0 85 23 155t67 119.5t109.5 76.5t150.5 27q58 0 112 -14h484v-80h-357v-208h357v-80h-357v-279h357v-79zM497 635q-43 26 -99 26q-99 0 -155 -76t-56 -223q0 -72 15.5 -128t43 -93.5
t66.5 -57t86 -19.5q55 0 99 27v544z" />
    <glyph glyph-name="oe" unicode="&#x153;" horiz-adv-x="1014" 
d="M308 -15q-61 0 -110.5 20t-84.5 57t-54 90t-19 120t19 120.5t54 91.5t84.5 58.5t110.5 20.5q66 0 117 -23t86 -65q36 42 89 64.5t120 22.5q118 0 183.5 -65.5t65.5 -183.5v-57h-393q1 -41 11.5 -75.5t30.5 -60.5t51 -40.5t73 -14.5t98 17.5t119 47.5v-93
q-51 -22 -105 -37t-111 -15q-156 0 -233 85q-71 -85 -202 -85zM308 483q-63 0 -95.5 -51t-32.5 -160q0 -106 32.5 -156.5t95.5 -50.5t95.5 50.5t32.5 156.5q0 109 -32.5 160t-95.5 51zM837 336q-3 72 -32 109t-87 37t-94 -41.5t-44 -104.5h257z" />
    <glyph glyph-name="Tbar" unicode="&#x166;" horiz-adv-x="644" 
d="M641 646h-249v-256h148v-80h-148v-310h-140v310h-149v80h149v256h-250v80h639v-80z" />
    <glyph glyph-name="tbar" unicode="&#x167;" horiz-adv-x="410" 
d="M72 625v17t-1.5 20.5t-4.5 21t-9 18.5h105q50 0 50 -33v-124h177v-80h-177v-84h131v-80h-131v-120q0 -21 2 -41.5t9 -37t21 -27t39 -10.5q26 0 54.5 6t51.5 14v-79q-31 -10 -66.5 -15.5t-62.5 -5.5q-93 0 -140.5 44t-47.5 143v129h-32v80h32v84h-60v80h60v80z" />
    <glyph glyph-name="caron" unicode="&#x2c7;" horiz-adv-x="514" 
d="M479 779l-222 -113l-222 113l43 72l179 -88l179 88z" />
    <glyph glyph-name="uni02D0" unicode="&#x2d0;" horiz-adv-x="940" 
d="M605 518l-136 -148l-133 148h269zM605 87h-270l134 147z" />
    <glyph glyph-name="uni02D0" unicode="&#x2236;" horiz-adv-x="940" 
d="M605 518l-136 -148l-133 148h269zM605 87h-270l134 147z" />
    <glyph glyph-name="breve" unicode="&#x2d8;" horiz-adv-x="514" 
d="M481 803q-40 -69 -100 -100.5t-124 -31.5t-124 31.5t-100 100.5l71 48q27 -48 66 -69.5t87 -21.5t86.5 22t66.5 70z" />
    <glyph glyph-name="dotaccent" unicode="&#x2d9;" horiz-adv-x="254" 
d="M220 747q0 -20 -7.5 -37t-20 -29.5t-29.5 -19.5t-36 -7t-36 7t-29.5 19.5t-20 29.5t-7.5 37q0 19 7.5 36t20 29.5t29.5 20t36 7.5t36 -7.5t29.5 -20t20 -29.5t7.5 -36z" />
    <glyph glyph-name="ring" unicode="&#x2da;" horiz-adv-x="332" 
d="M292 740q0 -25 -9.5 -46.5t-26.5 -37t-40 -24.5t-50 -9t-50 9t-40 24.5t-26.5 37t-9.5 46.5t9.5 46.5t26.5 37t40 24t50 8.5t50 -8.5t40 -24t26.5 -37t9.5 -46.5zM207 740q0 17 -12 29t-29 12t-29 -12t-12 -29t12 -29.5t29 -12.5t29 12.5t12 29.5z" />
    <glyph glyph-name="ogonek" unicode="&#x2db;" horiz-adv-x="340" 
d="M202 -180q-24 0 -45.5 7t-37.5 19t-25 28.5t-9 36.5q0 19 8 36t20 31.5t26.5 25t27.5 16.5h84q-27 -22 -46.5 -49t-19.5 -49q0 -19 14 -26t30 -7q9 0 17 1t12 1v-61q-11 -4 -24 -7t-32 -3z" />
    <glyph glyph-name="tilde" unicode="&#x2dc;" horiz-adv-x="532" 
d="M50 682q4 45 18.5 74t34.5 45.5t44.5 23t49.5 6.5q20 0 39.5 -7t37.5 -15t33.5 -15t27.5 -7q34 0 43 48h104q-4 -46 -19 -75t-35.5 -45.5t-45 -22.5t-47.5 -6q-21 0 -40.5 6.5t-37 15t-33 15t-27.5 6.5q-20 0 -30 -10.5t-15 -36.5h-102z" />
    <glyph glyph-name="hungarumlaut" unicode="&#x2dd;" horiz-adv-x="636" 
d="M361 851l-182 -228h-80l103 228h159zM536 851l-182 -228h-80l103 228h159z" />
    <glyph glyph-name="Alpha" unicode="&#x391;" horiz-adv-x="699" 
d="M686 0h-140l-65 196h-268l-65 -196h-135l235 677q4 12 0.5 26.5t-13.5 22.5h168q18 0 26.5 -7t16.5 -28zM239 276h216l-108 327z" />
    <glyph glyph-name="Beta" unicode="&#x392;" horiz-adv-x="693" 
d="M309 726q63 0 115 -6.5t90 -24t59 -49t21 -82.5q0 -44 -22.5 -85.5t-78.5 -70.5q75 -20 118 -68.5t43 -117.5q0 -56 -21 -97.5t-59.5 -69t-92.5 -41.5t-120 -14h-281v658q0 15 -2 35t-11 33h242zM454 550q0 30 -8.5 48.5t-26.5 29t-46 14.5t-67 4h-87v-213h95q36 0 62 4
t43.5 16.5t26 35.5t8.5 61zM515 218q0 47 -13 74t-36 40.5t-55 17t-71 3.5h-121v-273h97q40 0 76 3t63.5 16.5t43.5 41t16 77.5z" />
    <glyph glyph-name="Gamma" unicode="&#x393;" horiz-adv-x="584" 
d="M220 0h-140v650q0 14 -1.5 37t-12.5 39h506v-80h-352v-646z" />
    <glyph glyph-name="uni0394" unicode="&#x394;" horiz-adv-x="699" 
d="M686 0h-673l235 677q4 12 0.5 26.5t-13.5 22.5h168q18 0 26.5 -7t16.5 -28zM174 80h346l-173 523z" />
    <glyph glyph-name="Epsilon" unicode="&#x395;" horiz-adv-x="626" 
d="M577 0h-497v658q0 15 -2 35t-11 33h510v-80h-357v-208h357v-80h-357v-279h357v-79z" />
    <glyph glyph-name="Zeta" unicode="&#x396;" horiz-adv-x="689" 
d="M642 0h-593v81l416 565h-401v80h567v-77l-422 -569h433v-80z" />
    <glyph glyph-name="Eta" unicode="&#x397;" horiz-adv-x="742" 
d="M522 658q0 15 -2 35t-12 33h106q48 0 48 -34v-692h-140v358h-302v-358h-140v658q0 15 -2 35t-11 33h106q47 0 47 -34v-254h302v220z" />
    <glyph glyph-name="Theta" unicode="&#x398;" horiz-adv-x="796" 
d="M561 335h-325v75h325v-75zM747 362q0 -85 -22.5 -154.5t-67 -119t-109.5 -76.5t-149 -27t-149.5 27t-110 76t-67.5 118.5t-23 155.5q0 85 23 155t67.5 120t109.5 77t150 27t150 -27t109 -76.5t66.5 -119.5t22.5 -156zM607 362q0 146 -55.5 222.5t-152.5 76.5
q-99 0 -154.5 -76.5t-55.5 -222.5q0 -72 15 -127.5t42.5 -93t66.5 -57t86 -19.5q96 0 152 75.5t56 221.5z" />
    <glyph glyph-name="Iota" unicode="&#x399;" horiz-adv-x="440" 
d="M382 0h-324v80h92v566h-92v80h324v-80h-92v-566h92v-80z" />
    <glyph glyph-name="Kappa" unicode="&#x39a;" horiz-adv-x="669" 
d="M220 0h-140v658q0 15 -2 35t-11 33h106q47 0 47 -34v-302l273 301q11 13 11 20q0 4 -6 15h105q17 0 26 -6.5t9 -16.5q0 -8 -7 -15l-286 -308l335 -380h-172l-241 295l-47 -50v-245z" />
    <glyph glyph-name="Lambda" unicode="&#x39b;" horiz-adv-x="699" 
d="M686 0h-140l-199 603l-199 -603h-135l235 677q4 12 0.5 26.5t-13.5 22.5h168q18 0 26.5 -7t16.5 -28z" />
    <glyph glyph-name="Mu" unicode="&#x39c;" horiz-adv-x="843" 
d="M714 726q49 0 49 -34v-692h-140v541l-153 -340h-98l-152 339v-540h-140v658q0 15 -2 35t-11 33h165q19 0 26.5 -6.5t16.5 -28.5q38 -82 75.5 -162.5t75.5 -164.5q35 78 70 155.5t69 156.5q10 19 10 34q0 6 -5 16h144z" />
    <glyph glyph-name="Nu" unicode="&#x39d;" horiz-adv-x="760" 
d="M540 211v448q0 15 -1.5 34t-10.5 33h104q48 0 48 -34v-692h-167l-293 571v-571h-140v658q0 15 -2 35t-11 33h186q10 0 16 -1.5t10 -5.5t7.5 -11l8.5 -17z" />
    <glyph glyph-name="Xi" unicode="&#x39e;" horiz-adv-x="649" 
d="M593 646h-537v80h537v-80zM568 358h-487v80h487v-80zM593 0h-537v79h537v-79z" />
    <glyph glyph-name="Omicron" unicode="&#x39f;" horiz-adv-x="796" 
d="M747 362q0 -85 -22.5 -154.5t-67 -119t-109.5 -76.5t-149 -27t-149.5 27t-110 76t-67.5 118.5t-23 155.5q0 85 23 155t67.5 120t109.5 77t150 27t150 -27t109 -76.5t66.5 -119.5t22.5 -156zM607 362q0 146 -55.5 222.5t-152.5 76.5q-99 0 -154.5 -76.5t-55.5 -222.5
q0 -72 15 -127.5t42.5 -93t66.5 -57t86 -19.5q96 0 152 75.5t56 221.5z" />
    <glyph glyph-name="Pi" unicode="&#x3a0;" horiz-adv-x="742" 
d="M614 726q48 0 48 -34v-692h-140v646h-302v-646h-140v658q0 15 -2 35t-11 33h547z" />
    <glyph glyph-name="Rho" unicode="&#x3a1;" horiz-adv-x="615" 
d="M293 726q51 0 103 -10t93.5 -35t68 -67t26.5 -106q0 -65 -26.5 -109.5t-68.5 -72.5t-95 -40.5t-105 -12.5h-69v-273h-140v658q0 15 -2 35t-11 33h226zM445 507q0 41 -11 68t-31 42.5t-49.5 22t-65.5 6.5h-68v-293h54q79 0 125 34t46 120z" />
    <glyph glyph-name="Sigma" unicode="&#x3a3;" horiz-adv-x="716" 
d="M671 0h-611v81l294 288l-285 279v78h579v-80h-411l288 -281l-290 -285h436v-80z" />
    <glyph glyph-name="Tau" unicode="&#x3a4;" horiz-adv-x="644" 
d="M641 646h-249v-646h-140v646h-250v80h639v-80z" />
    <glyph glyph-name="Upsilon" unicode="&#x3a5;" horiz-adv-x="626" 
d="M317 432l138 244q5 9 11 20t6 18q0 5 -5 12h125q22 0 22 -14q0 -10 -10 -26l-217 -365v-321h-140v321l-198 344q-11 18 -20.5 30t-28.5 31h120q17 0 30.5 -6t24.5 -29z" />
    <glyph glyph-name="Phi" unicode="&#x3a6;" horiz-adv-x="866" 
d="M503 652q63 -3 119.5 -21.5t99.5 -53t68.5 -85.5t25.5 -119q0 -70 -25 -121.5t-67.5 -86t-99.5 -53t-121 -22.5v-90h-140v90q-64 4 -120.5 22.5t-99 53t-67.5 86t-25 121.5t25 120.5t68 84.5t99.5 51.5t119.5 21.5v7q0 14 -1 33t-7 35h107q14 0 27.5 -3.5t13.5 -21.5v-49
zM676 377q0 45 -10 82.5t-31 65.5t-53.5 44.5t-78.5 19.5v-436q48 4 81.5 22t53.5 47.5t29 68.5t9 86zM363 588q-45 -3 -77.5 -19.5t-53.5 -44.5t-31 -65t-10 -82q0 -44 9.5 -83.5t30 -69.5t53 -49t79.5 -22v435z" />
    <glyph glyph-name="Chi" unicode="&#x3a7;" horiz-adv-x="668" 
d="M336 460l136 218q5 7 11 18t6 18q0 4 -5 12h126q22 0 22 -14q0 -10 -10 -26l-217 -318l243 -368h-153l-163 269l-166 -269h-147l244 362l-192 303q-11 17 -21 29t-27 32h118q19 0 30 -6.5t23 -26.5z" />
    <glyph glyph-name="Psi" unicode="&#x3a8;" horiz-adv-x="892" 
d="M822 446q0 -77 -22.5 -128.5t-63 -84.5t-97 -49.5t-123.5 -22.5v-161h-140v161q-68 6 -124 22.5t-96.5 49.5t-63 85t-22.5 128v212q0 14 -1 33t-7 35h107q14 0 27.5 -3.5t13.5 -21.5v-266q0 -48 9 -84t28.5 -60t51.5 -38t77 -19v424q0 14 -1 33t-7 35h107q14 0 27.5 -3.5
t13.5 -21.5v-467q46 6 78 19.5t51.5 37t28 59t8.5 85.5v223q0 14 -1 33t-7 35h107q14 0 27.5 -3.5t13.5 -21.5v-255z" />
    <glyph glyph-name="uni03A9" unicode="&#x3a9;" horiz-adv-x="831" 
d="M783 0h-319v179q39 25 68 50t48 55t28.5 67t9.5 87t-14 91t-40.5 70t-64.5 45t-85 16t-84.5 -16t-64 -45t-41 -70t-14.5 -91q0 -51 9 -88t28 -66.5t48 -54t68 -50.5v-179h-315v80h183v79q-72 48 -116.5 119.5t-44.5 159.5q0 73 28 129.5t75.5 94.5t109.5 58t131 20
q68 0 130.5 -20t110 -58t75.5 -94.5t28 -129.5q0 -88 -45 -159.5t-117 -119.5v-79h187v-80z" />
    <glyph glyph-name="alpha" unicode="&#x3b1;" horiz-adv-x="638" 
d="M568 0h-140v29q-56 -42 -142 -42q-53 0 -98 20.5t-78 58t-51.5 90t-18.5 117.5q0 56 19.5 108.5t54.5 93t85 64.5t110 24q37 0 65 -7t54 -18v8h140v-546zM428 462q-31 12 -55.5 16.5t-47.5 4.5q-66 0 -105.5 -56t-39.5 -152q0 -97 33 -152.5t93 -55.5q29 0 61.5 14.5
t60.5 38.5v342z" />
    <glyph glyph-name="beta" unicode="&#x3b2;" horiz-adv-x="624" 
d="M70 -180v719q0 53 18 95t51 71t80 44.5t105 15.5q39 0 79 -10t73 -31.5t54 -54.5t21 -79q0 -70 -34.5 -115t-97.5 -67q39 -8 70.5 -26.5t53 -44.5t33.5 -57.5t12 -65.5q0 -51 -19 -93t-52.5 -72t-79 -47t-99.5 -17q-38 0 -69.5 8t-58.5 20v-193h-140zM448 216
q0 42 -12.5 70t-35 44.5t-53.5 23.5t-68 7h-40v80h40q72 0 102.5 33t30.5 105q0 54 -27 80.5t-69 26.5q-30 0 -50.5 -13.5t-32.5 -34.5t-17.5 -47.5t-5.5 -51.5v-447q29 -15 58.5 -21t55.5 -6q60 0 92 39.5t32 111.5z" />
    <glyph glyph-name="gamma" unicode="&#x3b3;" horiz-adv-x="578" 
d="M421 503q3 8 5 15t2 13q0 5 -6 14h113q26 0 26 -19q0 -9 -4 -18l-195 -500v-188h-140v190l-197 511q-8 16 -19 24h118q18 0 25.5 -6.5t15.5 -27.5l131 -365z" />
    <glyph glyph-name="delta" unicode="&#x3b4;" horiz-adv-x="615" 
d="M576 269q0 -64 -19 -116.5t-53.5 -89.5t-84.5 -57t-111 -20q-62 0 -112 20t-85 56t-54 86.5t-19 112.5q0 57 18 102t50.5 78t77.5 54.5t98 32.5l-178 149v73h428v-78h-257q42 -35 83 -72t83 -72q39 -33 65 -64t41.5 -62t22 -63.5t6.5 -69.5zM437 269q0 66 -22 120t-70 92
q-88 -16 -128.5 -71.5t-40.5 -146.5q0 -97 35 -147.5t98 -50.5q128 0 128 204z" />
    <glyph glyph-name="epsilon" unicode="&#x3b5;" horiz-adv-x="543" 
d="M390 234h-97q-52 0 -84 -17t-32 -66q0 -27 8.5 -43.5t23.5 -25.5t35.5 -12t44.5 -3q45 0 100 14.5t121 46.5v-93q-57 -25 -111.5 -36t-114.5 -11q-47 0 -91 7.5t-78.5 25.5t-55 47.5t-20.5 73.5q0 40 28.5 77t85.5 58q-45 15 -71 48t-26 70q0 41 20.5 68.5t54.5 44
t77.5 23t90.5 6.5q51 0 95 -9.5t94 -23.5v-93q-60 27 -108.5 37.5t-90.5 10.5t-68.5 -16t-26.5 -54q0 -44 27 -60t72 -16h97v-79z" />
    <glyph glyph-name="zeta" unicode="&#x3b6;" horiz-adv-x="510" 
d="M510 -48q0 -36 -19.5 -65t-53.5 -57h-141q23 20 37.5 36.5t22.5 31t11 27.5t3 26q0 28 -7.5 38.5t-19.5 10.5h-68q-121 0 -179 54t-58 163q0 64 18 127.5t50 121.5t76.5 110t97.5 94h-198v80h396v-52q-56 -37 -110 -89.5t-96.5 -114.5t-68.5 -131t-26 -139q0 -35 4.5 -62
t16.5 -45t34 -27.5t57 -9.5h61q160 0 160 -128z" />
    <glyph glyph-name="eta" unicode="&#x3b7;" horiz-adv-x="630" 
d="M70 469q0 14 -1.5 38t-11.5 38h104q49 0 49 -32v-1q37 25 74.5 37.5t79.5 12.5q100 0 148 -54t48 -151v-537h-140v521q0 24 -2 49t-10 46t-24.5 34t-45.5 13q-25 0 -58 -18.5t-70 -47.5v-417h-140v469z" />
    <glyph glyph-name="theta" unicode="&#x3b8;" horiz-adv-x="630" 
d="M579 376q0 -46 -3.5 -92.5t-14 -90t-28.5 -81.5t-47.5 -66t-71.5 -44.5t-99 -16.5q-86 0 -138 35.5t-80 91.5t-37 125.5t-9 138.5q0 45 4 91.5t14 89.5t28.5 81t48 66t71 44.5t98.5 16.5q85 0 137 -35.5t80.5 -91.5t37.5 -125.5t9 -136.5zM441 424q-1 46 -6 92.5t-18 84
t-37.5 61t-64.5 23.5q-41 0 -65 -23.5t-37.5 -60.5t-18 -84t-5.5 -93h252zM189 345q0 -48 4 -97.5t17 -90t38 -66.5t67 -26q43 0 68 26t38 66.5t16.5 90t3.5 97.5h-252z" />
    <glyph glyph-name="iota" unicode="&#x3b9;" horiz-adv-x="330" 
d="M210 158q0 -42 9.5 -65t36.5 -23q12 0 25.5 4t38.5 17v-81q-20 -11 -44 -15.5t-38 -4.5q-47 0 -79.5 9t-52 29t-28 53t-8.5 81v307q0 15 -2 38t-13 38h106q49 0 49 -32v-355z" />
    <glyph glyph-name="kappa" unicode="&#x3ba;" horiz-adv-x="601" 
d="M70 469q0 15 -2 38t-13 38h106q49 0 49 -32v-196l141 150q26 28 47.5 44t42.5 23.5t45 9t55 1.5h26v-80q-19 0 -33.5 -1t-28 -6t-27 -15.5t-30.5 -28.5l-123 -131l266 -283h-170l-175 198l-36 -38v-160h-140v469z" />
    <glyph glyph-name="lambda" unicode="&#x3bb;" horiz-adv-x="586" 
d="M133 736q-8 16 -19 24h118q18 0 25.5 -7t15.5 -27l299 -726h-136l-143 378l-140 -378h-139l211 523z" />
    <glyph glyph-name="uni03BC" unicode="&#x3bc;" horiz-adv-x="630" 
d="M70 469q0 40 -6 60q-1 5 -10 16h108q48 0 48 -32v-393q22 -20 50 -35.5t52 -15.5q29 0 55.5 13.5t52.5 39.5v347q0 43 -4 60q-1 5 -10 16h106q48 0 48 -32v-513h-140v20q-25 -17 -51 -23.5t-58 -6.5q-29 0 -52.5 5.5t-48.5 21.5v-197h-140v649z" />
    <glyph glyph-name="nu" unicode="&#x3bd;" horiz-adv-x="578" 
d="M421 503q3 8 5 15t2 13q0 5 -6 14h113q26 0 26 -19q0 -9 -4 -18l-198 -508h-133l-201 521q-8 16 -19 24h118q18 0 25.5 -6.5t15.5 -27.5l131 -365z" />
    <glyph glyph-name="xi" unicode="&#x3be;" horiz-adv-x="531" 
d="M193 400q-59 18 -89 58.5t-30 88.5q0 42 21 73.5t59 51.5h-102v78h435v-78h-143q-61 0 -96 -31t-35 -85q0 -37 11 -60.5t30.5 -36.5t46 -18t58.5 -5h104v-78h-162q-27 0 -50.5 -12t-40 -32t-26 -45.5t-9.5 -52.5q0 -47 11 -74t29.5 -41t42.5 -18t51 -4h62q78 0 119 -32
t41 -95q0 -36 -19.5 -65t-53.5 -57h-141q23 20 37.5 36.5t23 31t11.5 27.5t3 26q0 28 -7.5 38.5t-20.5 10.5h-56q-53 0 -101.5 10.5t-86 34.5t-60 63t-22.5 95q0 38 12 70t32.5 57.5t49 43t61.5 26.5v0z" />
    <glyph glyph-name="omicron" unicode="&#x3bf;" horiz-adv-x="616" 
d="M308 -15q-61 0 -110.5 20t-84.5 57t-54 90t-19 120t19 120.5t54 91.5t84.5 58.5t110.5 20.5t110.5 -20.5t84.5 -58.5t54 -91.5t19 -120.5t-19 -120t-54 -90t-84.5 -57t-110.5 -20zM308 483q-63 0 -95.5 -51t-32.5 -160q0 -106 32.5 -156.5t95.5 -50.5t95.5 50.5
t32.5 156.5q0 109 -32.5 160t-95.5 51z" />
    <glyph glyph-name="pi" unicode="&#x3c0;" horiz-adv-x="630" 
d="M620 465h-110v-307q0 -42 9.5 -65t36.5 -23q12 0 25.5 4t38.5 17v-81q-20 -11 -44 -15.5t-38 -4.5q-47 0 -79.5 9t-52 29t-28 53t-8.5 81v303h-140v-465h-140v465h-80v80h610v-80z" />
    <glyph glyph-name="rho" unicode="&#x3c1;" horiz-adv-x="628" 
d="M589 281q0 -57 -16.5 -110.5t-49 -95t-81 -66t-112.5 -24.5q-35 0 -64 8t-57 25v-198h-139v493q0 57 20 103t54.5 79t82 50.5t103.5 17.5q133 0 196 -74t63 -208zM449 276q0 108 -26.5 157.5t-92.5 49.5q-64 0 -92 -49t-28 -137v-200q30 -18 53.5 -25t50.5 -7
q66 0 100.5 54t34.5 157z" />
    <glyph glyph-name="sigma" unicode="&#x3c3;" horiz-adv-x="617" 
d="M308 -15q-61 0 -110.5 20t-84.5 57t-54 90t-19 120t19 120.5t54 91.5t84.5 58.5t110.5 20.5q57 0 104 -18h185v-80h-78q57 -75 57 -193q0 -67 -19 -120t-54 -90t-84.5 -57t-110.5 -20zM308 483q-63 0 -95.5 -51t-32.5 -160q0 -106 32.5 -156.5t95.5 -50.5t95.5 50.5
t32.5 156.5q0 109 -32.5 160t-95.5 51z" />
    <glyph glyph-name="tau" unicode="&#x3c4;" horiz-adv-x="527" 
d="M508 465h-175v-307q0 -42 9.5 -65t36.5 -23q12 0 25.5 4t38.5 17v-81q-20 -11 -44 -15.5t-38 -4.5q-47 0 -79.5 9t-52 29t-28 53t-8.5 81v303h-175v80h490v-80z" />
    <glyph glyph-name="upsilon" unicode="&#x3c5;" horiz-adv-x="630" 
d="M70 469q0 17 -1 39.5t-14 36.5h107q48 0 48 -32v-291q0 -32 2 -61t12.5 -50.5t32 -34.5t60.5 -13t59.5 13t30.5 34.5t11.5 50.5t1.5 61v247q0 19 -0.5 40t-13.5 36h106q48 0 48 -32v-322q0 -208 -243 -208q-115 0 -181 51.5t-66 156.5v278z" />
    <glyph glyph-name="phi" unicode="&#x3c6;" horiz-adv-x="800" 
d="M760 277q0 -62 -24.5 -113t-65 -88.5t-93 -60.5t-108.5 -29v-166h-140v166q-55 6 -107 29t-92.5 60t-65 87t-24.5 111q0 86 26.5 150t81.5 122h154q-27 -24 -49.5 -54t-39 -65t-25.5 -73.5t-9 -78.5q0 -84 40.5 -140t109.5 -68v494q20 2 48.5 2.5t46.5 0.5q78 0 140 -21
t105.5 -58.5t67 -90t23.5 -116.5zM620 281q0 40 -10.5 75t-30.5 61.5t-48 43.5t-62 22v-417q72 13 111.5 70t39.5 145z" />
    <glyph glyph-name="chi" unicode="&#x3c7;" horiz-adv-x="607" 
d="M370 189l205 -369h-146l-129 264l-134 -264h-135l204 362l-159 303q-8 16 -19.5 32t-31.5 28h120q18 0 31 -6t23 -26l110 -220l95 205q8 16 9.5 24.5t-6.5 22.5h122q11 0 19 -4.5t8 -14.5q0 -3 -1.5 -8.5t-5.5 -11.5z" />
    <glyph glyph-name="psi" unicode="&#x3c8;" horiz-adv-x="834" 
d="M764 209q0 -54 -26 -92.5t-66.5 -64t-89.5 -39.5t-95 -18v-175h-140v175q-46 4 -95 17.5t-89.5 39t-66.5 64.5t-26 93v260q0 17 -1 39.5t-14 36.5h107q48 0 48 -32v-276q0 -81 34 -117t103 -46v395q0 17 -1 39.5t-14 36.5h107q48 0 48 -32v-439q36 6 61.5 16.5t42.5 29
t25 47t8 70.5v232q0 17 -1 39.5t-14 36.5h107q48 0 48 -32v-304z" />
    <glyph glyph-name="omega" unicode="&#x3c9;" horiz-adv-x="814" 
d="M337 312q0 17 -1 39.5t-14 36.5h107q48 0 48 -32v-241q12 -24 26 -36.5t41 -12.5t44.5 18.5t27.5 45t14 55.5t4 50q0 44 -6.5 88t-21 84.5t-38 75.5t-58.5 62h135q71 -80 100 -156t29 -153q0 -52 -14 -97.5t-42 -79.5t-71 -53.5t-100 -19.5q-45 0 -81.5 15.5t-59.5 36.5
q-21 -22 -56 -37t-83 -15q-57 0 -99.5 19.5t-71 53.5t-42.5 79.5t-14 97.5q0 77 29.5 153t100.5 156h134q-33 -27 -56.5 -62t-38.5 -75t-22 -84t-7 -89q0 -21 3 -50.5t12.5 -55.5t26.5 -44.5t46 -18.5t43.5 11.5t25.5 37.5v197z" />
    <glyph glyph-name="uni0401" unicode="&#x401;" horiz-adv-x="626" 
d="M177 755q0 26 18.5 43.5t44.5 17.5t45 -17.5t19 -43.5q0 -24 -19 -41.5t-45 -17.5t-44.5 17.5t-18.5 41.5zM361 755q0 26 19 43.5t44 17.5q27 0 45 -17.5t18 -43.5q0 -24 -18 -41.5t-45 -17.5q-25 0 -44 17.5t-19 41.5zM577 0h-497v603q0 15 -2 35t-11 33h510v-80h-357
v-181h357v-80h-357v-251h357v-79z" />
    <glyph glyph-name="uni0410" unicode="&#x410;" horiz-adv-x="699" 
d="M686 0h-140l-65 196h-268l-65 -196h-135l235 677q4 12 0.5 26.5t-13.5 22.5h168q18 0 26.5 -7t16.5 -28zM239 276h216l-108 327z" />
    <glyph glyph-name="uni0411" unicode="&#x411;" horiz-adv-x="695" 
d="M80 658q0 15 -2 35t-11 33h522v-80h-369v-213h141q67 0 121.5 -13t93 -39.5t59.5 -66t21 -92.5q0 -56 -21 -97.5t-59.5 -69t-92.5 -41.5t-120 -14h-283v658zM516 219q0 46 -12.5 73t-35.5 40.5t-55 17t-71 3.5h-122v-273h99q39 0 75 3t63 17t43 41.5t16 77.5z" />
    <glyph glyph-name="uni0412" unicode="&#x412;" horiz-adv-x="693" 
d="M309 726q63 0 115 -6.5t90 -24t59 -49t21 -82.5q0 -44 -22.5 -85.5t-78.5 -70.5q75 -20 118 -68.5t43 -117.5q0 -56 -21 -97.5t-59.5 -69t-92.5 -41.5t-120 -14h-281v658q0 15 -2 35t-11 33h242zM454 550q0 30 -8.5 48.5t-26.5 29t-46 14.5t-67 4h-87v-213h95q36 0 62 4
t43.5 16.5t26 35.5t8.5 61zM515 218q0 47 -13 74t-36 40.5t-55 17t-71 3.5h-121v-273h97q40 0 76 3t63.5 16.5t43.5 41t16 77.5z" />
    <glyph glyph-name="uni0413" unicode="&#x413;" horiz-adv-x="584" 
d="M220 0h-140v650q0 14 -1.5 37t-12.5 39h506v-80h-352v-646z" />
    <glyph glyph-name="uni0414" unicode="&#x414;" horiz-adv-x="758" 
d="M671 726v-647h67v-238h-139v159h-441v-159h-139v238h57q35 61 60.5 133t42 148.5t24.5 153.5t8 146q0 14 -2 33t-11 33h473zM533 79v568h-184q-3 -64 -12 -140t-25.5 -152.5t-40 -148.5t-55.5 -127h317z" />
    <glyph glyph-name="uni0415" unicode="&#x415;" horiz-adv-x="626" 
d="M577 0h-497v658q0 15 -2 35t-11 33h510v-80h-357v-208h357v-80h-357v-279h357v-79z" />
    <glyph glyph-name="uni0416" unicode="&#x416;" horiz-adv-x="965" 
d="M553 409q22 7 37.5 21t27 32.5t20.5 40t17 42.5q16 45 32.5 78.5t40.5 56.5t59.5 34.5t89.5 11.5h55v-77h-50q-21 0 -34.5 -7.5t-22 -20t-14 -29t-10.5 -34.5q-9 -31 -19.5 -57.5t-24.5 -49.5t-34 -43.5t-48 -39.5l276 -368h-161l-222 326h-15v-326h-140v326h-15
l-223 -326h-161l276 368q-49 34 -81 81t-44 107q-5 18 -10 35t-13.5 30t-22.5 20.5t-36 7.5h-50v77h56q54 0 89.5 -11.5t59.5 -34.5t40.5 -56.5t33.5 -78.5q8 -21 17 -42.5t20 -40t26.5 -32.5t37.5 -21v249q0 14 -1 33t-7 35h107q14 0 27.5 -3.5t13.5 -21.5v-292z" />
    <glyph glyph-name="uni0417" unicode="&#x417;" horiz-adv-x="641" 
d="M593 214q0 -58 -26 -100.5t-68.5 -71t-98 -42.5t-114.5 -14q-79 0 -143.5 16t-106.5 36v95q69 -30 128.5 -48.5t119.5 -18.5q43 0 74.5 12t52.5 33t31.5 49.5t10.5 61.5q0 39 -9 65t-27 41t-44.5 21t-61.5 6h-151v80h142q63 0 99.5 30.5t36.5 93.5q0 29 -11.5 48.5
t-31.5 31.5t-46 17t-55 5q-54 0 -109.5 -17t-127.5 -49v95q19 10 45 19t57 16t66 11.5t71 4.5q43 0 92.5 -8.5t91.5 -28.5t69.5 -53.5t27.5 -82.5q0 -28 -11 -54t-30 -48t-44.5 -38.5t-53.5 -25.5q31 -6 59 -20.5t49.5 -38t34 -56t12.5 -73.5z" />
    <glyph glyph-name="uni0418" unicode="&#x418;" horiz-adv-x="758" 
d="M220 212l247 480h-1q3 4 3 10q0 10 -12 24h173q48 0 48 -33v-693h-140v571l-291 -571h-167v651q0 20 -1 34.5t-4 23.5q-1 3 -4 7.5t-7 9.5h106q50 0 50 -33v-481z" />
    <glyph glyph-name="uni0419" unicode="&#x419;" horiz-adv-x="758" 
d="M551 818q0 -51 -40 -83t-130 -32q-45 0 -77 8.5t-52.5 23.5t-30 36t-10.5 47h110q1 -29 13.5 -46t46.5 -17q33 0 46 17t13 46h111zM220 189l266 449q2 8 2 11q0 8 -12 22h154q48 0 48 -32v-639h-140v519l-291 -519h-167v596q0 21 -1 35.5t-4 23.5q-2 5 -11 16h106
q50 0 50 -32v-450z" />
    <glyph glyph-name="uni041A" unicode="&#x41a;" horiz-adv-x="671" 
d="M80 651q0 38 -6 58q-1 7 -10 17h106q50 0 50 -33v-288q28 5 49 20.5t36.5 37.5t27 48t21.5 53q2 4 3.5 8.5t3.5 8.5q31 81 86 113t141 32h59v-79h-61q-25 0 -41.5 -7.5t-27.5 -20.5t-18.5 -31t-14.5 -39l-1 -2v-1l-3 -6q0 -3 -1 -4q-11 -30 -22 -53t-25 -41.5
t-32.5 -34.5t-45.5 -31l324 -376h-170l-267 325h-21v-325h-140v651z" />
    <glyph glyph-name="uni041B" unicode="&#x41b;" horiz-adv-x="742" 
d="M612 726q50 0 50 -33v-693h-140v646h-203q0 -53 -2.5 -122t-8.5 -138.5t-15.5 -132.5t-23.5 -104q-21 -67 -72 -108t-123 -41h-32.5t-32.5 1v80q14 -1 27 -1.5t27 -0.5q21 0 36 11t25 28t16 36.5t9 36.5q11 51 17 109.5t9 118.5t4 119.5t1 112.5v9q0 14 -2 33t-11 33h445
z" />
    <glyph glyph-name="uni041C" unicode="&#x41c;" horiz-adv-x="843" 
d="M714 726q49 0 49 -34v-692h-140v541l-153 -340h-98l-152 339v-540h-140v658q0 15 -2 35t-11 33h165q19 0 26.5 -6.5t16.5 -28.5q38 -82 75.5 -162.5t75.5 -164.5q35 78 70 155.5t69 156.5q10 19 10 34q0 6 -5 16h144z" />
    <glyph glyph-name="uni041D" unicode="&#x41d;" horiz-adv-x="742" 
d="M522 658q0 15 -2 35t-12 33h106q48 0 48 -34v-692h-140v358h-302v-358h-140v658q0 15 -2 35t-11 33h106q47 0 47 -34v-254h302v220z" />
    <glyph glyph-name="uni041E" unicode="&#x41e;" horiz-adv-x="796" 
d="M747 362q0 -85 -22.5 -154.5t-67 -119t-109.5 -76.5t-149 -27t-149.5 27t-110 76t-67.5 118.5t-23 155.5q0 85 23 155t67.5 120t109.5 77t150 27t150 -27t109 -76.5t66.5 -119.5t22.5 -156zM607 362q0 146 -55.5 222.5t-152.5 76.5q-99 0 -154.5 -76.5t-55.5 -222.5
q0 -72 15 -127.5t42.5 -93t66.5 -57t86 -19.5q96 0 152 75.5t56 221.5z" />
    <glyph glyph-name="uni041F" unicode="&#x41f;" horiz-adv-x="742" 
d="M614 726q48 0 48 -34v-692h-140v646h-302v-646h-140v658q0 15 -2 35t-11 33h547z" />
    <glyph glyph-name="uni0420" unicode="&#x420;" horiz-adv-x="615" 
d="M293 726q51 0 103 -10t93.5 -35t68 -67t26.5 -106q0 -65 -26.5 -109.5t-68.5 -72.5t-95 -40.5t-105 -12.5h-69v-273h-140v658q0 15 -2 35t-11 33h226zM445 507q0 41 -11 68t-31 42.5t-49.5 22t-65.5 6.5h-68v-293h54q79 0 125 34t46 120z" />
    <glyph glyph-name="uni0421" unicode="&#x421;" horiz-adv-x="729" 
d="M679 59q-32 -16 -62 -29.5t-61 -23t-65.5 -14.5t-74.5 -5q-86 0 -154 25t-115.5 72.5t-72.5 117.5t-25 160q0 88 25.5 158t73.5 119t116 74.5t153 25.5q62 0 124.5 -15.5t137.5 -54.5v-110q-45 27 -81.5 46t-68.5 31t-61 17.5t-58 5.5q-61 0 -103 -25.5t-68.5 -67
t-38 -95t-11.5 -109.5t12 -109t38.5 -94t69 -66.5t102.5 -25.5q30 0 60.5 6t62.5 18.5t68 31.5t77 45v-109z" />
    <glyph glyph-name="uni0422" unicode="&#x422;" horiz-adv-x="644" 
d="M641 646h-249v-646h-140v646h-250v80h639v-80z" />
    <glyph glyph-name="uni0423" unicode="&#x423;" horiz-adv-x="658" 
d="M493 678q6 14 8.5 24t-5.5 24h129q25 0 27 -11t-4 -28l-263 -578q-14 -30 -31.5 -52t-41 -37t-54 -22.5t-70.5 -7.5q-25 0 -50 1t-53 6v79q25 -4 47 -5t43 -1q28 0 45 9.5t28 25t18.5 35.5t16.5 42l-234 484q-9 18 -19 30t-28 30h129q17 0 29.5 -5.5t23.5 -28.5l166 -363
z" />
    <glyph glyph-name="uni0424" unicode="&#x424;" horiz-adv-x="866" 
d="M503 652q63 -3 119.5 -21.5t99.5 -53t68.5 -85.5t25.5 -119q0 -70 -25 -121.5t-67.5 -86t-99.5 -53t-121 -22.5v-90h-140v90q-64 4 -120.5 22.5t-99 53t-67.5 86t-25 121.5t25 120.5t68 84.5t99.5 51.5t119.5 21.5v7q0 14 -1 33t-7 35h107q14 0 27.5 -3.5t13.5 -21.5v-49
zM676 377q0 45 -10 82.5t-31 65.5t-53.5 44.5t-78.5 19.5v-436q48 4 81.5 22t53.5 47.5t29 68.5t9 86zM363 588q-45 -3 -77.5 -19.5t-53.5 -44.5t-31 -65t-10 -82q0 -44 9.5 -83.5t30 -69.5t53 -49t79.5 -22v435z" />
    <glyph glyph-name="uni0425" unicode="&#x425;" horiz-adv-x="668" 
d="M336 460l136 218q5 7 11 18t6 18q0 4 -5 12h126q12 0 17 -3.5t5 -9.5t-3 -13t-7 -14l-217 -318l243 -368h-153l-163 269l-166 -269h-147l244 362l-192 303q-11 17 -21 29t-27 32h118q19 0 30 -6.5t23 -26.5z" />
    <glyph glyph-name="uni0426" unicode="&#x426;" horiz-adv-x="750" 
d="M524 658q0 15 -2 35t-11 33h106q47 0 47 -34v-612h66v-239h-140v159h-510v658q0 15 -2 35t-11 33h106q47 0 47 -34v-612h304v578z" />
    <glyph glyph-name="uni0427" unicode="&#x427;" horiz-adv-x="724" 
d="M504 658q0 15 -2 35t-11 33h106q47 0 47 -34v-692h-140v290q-104 -30 -190 -30q-50 0 -94 11t-77.5 35t-53 62.5t-19.5 93.5v196q0 15 -2 35t-11 33h106q47 0 47 -34v-193q0 -34 4.5 -63t17.5 -50.5t37 -33.5t63 -12q45 0 90 7.5t82 21.5v289z" />
    <glyph glyph-name="uni0428" unicode="&#x428;" horiz-adv-x="1020" 
d="M800 658q0 15 -2 35t-11 33h106q47 0 47 -34v-692h-860v658q0 15 -2 35t-11 33h106q47 0 47 -34v-612h220v578q0 15 -2 35t-11 33h106q47 0 47 -34v-612h220v578z" />
    <glyph glyph-name="uni0429" unicode="&#x429;" horiz-adv-x="1030" 
d="M800 658q0 15 -2 35t-11 33h106q47 0 47 -34v-613h70v-238h-140v159h-790v658q0 15 -2 35t-11 33h106q47 0 47 -34v-612h220v578q0 15 -2 35t-11 33h106q47 0 47 -34v-612h220v578z" />
    <glyph glyph-name="uni042A" unicode="&#x42a;" horiz-adv-x="802" 
d="M329 434h141q67 0 121 -13t92.5 -39.5t59 -66.5t20.5 -93q0 -55 -21 -96.5t-59.5 -69.5t-92 -42t-119.5 -14h-282v646h-188v80h280q48 0 48 -33v-259zM624 219q0 47 -12.5 74t-35.5 40.5t-55 17t-71 3.5h-121v-274h98q40 0 75.5 3t62.5 17t43 41.5t16 77.5z" />
    <glyph glyph-name="uni042B" unicode="&#x42b;" horiz-adv-x="931" 
d="M80 658q0 15 -2 35t-11 33h106q47 0 47 -34v-258h140q67 0 121.5 -13t93 -39.5t59.5 -66.5t21 -93q0 -55 -21 -96.5t-59.5 -69.5t-92.5 -42t-120 -14h-282v658zM711 658q0 15 -2 35t-11 33h106q47 0 47 -34v-692h-140v658zM515 219q0 47 -12.5 74t-35.5 40.5t-55 17
t-71 3.5h-121v-274h99q39 0 74.5 3t62.5 17t43 41.5t16 77.5z" />
    <glyph glyph-name="uni042C" unicode="&#x42c;" horiz-adv-x="694" 
d="M80 658q0 15 -2 35t-11 33h106q47 0 47 -34v-258h140q67 0 121.5 -13t93 -39.5t59.5 -66.5t21 -93q0 -55 -21 -96.5t-59.5 -69.5t-92.5 -42t-120 -14h-282v658zM515 219q0 47 -12.5 74t-35.5 40.5t-55 17t-71 3.5h-121v-274h99q39 0 74.5 3t62.5 17t43 41.5t16 77.5z" />
    <glyph glyph-name="uni042D" unicode="&#x42d;" horiz-adv-x="729" 
d="M50 168q41 -26 77 -45t68 -31.5t62.5 -18.5t60.5 -6q58 0 99 23.5t68 62t40 88t15 102.5h-395v80h392q-6 47 -21 90t-41 75.5t-64.5 51.5t-91.5 19q-29 0 -58 -5.5t-61 -17.5t-68.5 -31t-81.5 -46v110q75 39 137.5 54.5t124.5 15.5q85 0 153 -25.5t116 -74.5t73.5 -119
t25.5 -158q0 -90 -25 -160t-72.5 -117.5t-115.5 -72.5t-154 -25q-40 0 -74 5.5t-65.5 15t-61.5 22.5t-62 29v109z" />
    <glyph glyph-name="uni042E" unicode="&#x42e;" horiz-adv-x="1049" 
d="M999 362q0 -85 -22.5 -154.5t-67 -119t-109.5 -76.5t-149 -27q-80 0 -143 24.5t-107.5 69.5t-69.5 108.5t-29 142.5h-82v-330h-140v658q0 15 -2 34.5t-13 33.5h106q49 0 49 -34v-282h83q6 75 31.5 136.5t69.5 104.5t106 66.5t141 23.5q85 0 150 -27t109 -76.5
t66.5 -119.5t22.5 -156zM859 362q0 146 -55.5 222.5t-152.5 76.5q-99 0 -154.5 -76.5t-55.5 -222.5q0 -72 15 -127.5t42.5 -93t66.5 -57t86 -19.5q96 0 152 75.5t56 221.5z" />
    <glyph glyph-name="uni042F" unicode="&#x42f;" horiz-adv-x="673" 
d="M593 0h-140v291h-102l-221 -291h-154l263 322q-72 31 -111 82t-39 126q0 61 26.5 99t67.5 59.5t92 29.5t100 8h169q49 0 49 -33v-693zM230 522q0 -83 37.5 -117t115.5 -34h70v276h-85q-32 0 -57.5 -5.5t-43.5 -19.5t-27.5 -38.5t-9.5 -61.5z" />
    <glyph glyph-name="uni0430" unicode="&#x430;" horiz-adv-x="610" 
d="M540 0h-140v33q-38 -26 -76.5 -37t-91.5 -11q-36 0 -70.5 11.5t-61.5 33t-43.5 53.5t-16.5 73q0 46 17.5 78.5t46 55t66 36t77.5 21t79.5 11t73.5 5.5v13q0 33 -8.5 54t-24 32.5t-37.5 15.5t-50 4q-15 0 -37.5 -3t-49 -8.5t-54 -13t-53.5 -16.5v89q15 4 37.5 9.5t49 10.5
t54.5 8.5t53 3.5q46 0 92.5 -7.5t83.5 -28.5t60.5 -58t23.5 -95v-373zM400 284q-35 -1 -73.5 -4.5t-71 -15.5t-54 -35.5t-21.5 -65.5q0 -48 19.5 -73t64.5 -25q36 0 71.5 17t64.5 42v160z" />
    <glyph glyph-name="uni0431" unicode="&#x431;" horiz-adv-x="636" 
d="M596 258q0 -58 -20.5 -108t-57 -87t-86.5 -58t-108 -21q-80 0 -132 29.5t-82 78t-42 112t-12 131.5q0 94 15.5 167.5t54.5 125.5t105.5 83t168.5 40l40 3l78 7l40 3v-78q-35 -2 -71.5 -4t-71.5 -6q-51 -5 -87.5 -16t-61.5 -31.5t-40 -53t-23 -80.5q30 17 65.5 28t77.5 11
q57 0 103.5 -22t79 -59.5t50 -87.5t17.5 -107zM456 252q0 45 -9.5 82t-26.5 64t-41 41.5t-53 14.5q-31 0 -64 -11.5t-65 -30.5v-24.5t-0.5 -26t-0.5 -23v-16.5q0 -33 4 -77.5t17.5 -84.5t39.5 -68t71 -28q61 0 94.5 48.5t33.5 139.5z" />
    <glyph glyph-name="uni0432" unicode="&#x432;" horiz-adv-x="600" 
d="M304 545q32 0 71.5 -3t74 -15.5t57.5 -38t23 -70.5q0 -39 -20.5 -68.5t-62.5 -46.5q51 -14 82 -49t31 -83q0 -51 -19.5 -84t-52.5 -52.5t-77 -27t-93 -7.5h-248v469q0 14 -1.5 38t-11.5 38h247zM393 404q0 22 -7.5 34.5t-19.5 18.5t-28 7t-33 1h-95v-133h89
q24 0 41.5 1.5t29 8.5t17.5 21.5t6 40.5zM420 171q0 30 -9.5 46.5t-26 24t-37.5 9t-45 1.5h-92v-172h67q27 0 52.5 1.5t45.5 10t32.5 27t12.5 52.5z" />
    <glyph glyph-name="uni0433" unicode="&#x433;" horiz-adv-x="505" 
d="M489 545v-80h-279v-465h-140v469q0 14 -1.5 38t-11.5 38h432z" />
    <glyph glyph-name="uni0434" unicode="&#x434;" horiz-adv-x="644" 
d="M558 545v-465h66v-238h-139v158h-325v-158h-140v238h58q45 91 66 194.5t21 205.5q0 14 -2 33t-12 32h407zM418 80v385h-113q0 -29 -4 -74t-14 -97.5t-26.5 -108t-41.5 -105.5h199z" />
    <glyph glyph-name="uni0435" unicode="&#x435;" horiz-adv-x="610" 
d="M567 256h-393q1 -41 11.5 -75.5t30.5 -60.5t51 -40.5t73 -14.5t98 17.5t119 47.5v-93q-51 -22 -105 -37t-111 -15q-145 0 -223 73t-78 211q0 66 19.5 120.5t55.5 92.5t87.5 59t115.5 21q118 0 183.5 -65.5t65.5 -183.5v-57zM432 336q-3 72 -32 109t-87 37t-94 -41.5
t-44 -104.5h257z" />
    <glyph glyph-name="uni0436" unicode="&#x436;" horiz-adv-x="806" 
d="M425 545q49 0 49 -32v-191q29 10 42 34.5t22 54.5q11 36 26 61.5t36 41.5t50.5 23.5t68.5 7.5h56v-80h-48q-26 0 -39.5 -11.5t-25.5 -51.5q-14 -42 -33.5 -72.5t-48.5 -47.5l215 -282h-146l-172 245h-3v-245h-140v245h-3l-172 -245h-147l216 282q-29 17 -48.5 47.5
t-33.5 72.5q-7 20 -13 32.5t-13.5 19t-17 9t-22.5 2.5h-47v80h56q39 0 68 -7.5t50.5 -23.5t36.5 -41.5t26 -61.5q10 -30 22 -54.5t42 -34.5v147q0 14 -1.5 38t-11.5 38h104z" />
    <glyph glyph-name="uni0437" unicode="&#x437;" horiz-adv-x="552" 
d="M512 151q0 -44 -23 -75.5t-59 -51.5t-80 -29.5t-86 -9.5q-60 0 -113.5 13.5t-110.5 36.5v98q63 -32 119 -50t101 -18q24 0 44.5 4.5t35.5 15t24 28t9 44.5q0 31 -8.5 48.5t-24 25.5t-37.5 10t-48 2h-99v80h76q25 0 48 1.5t41 8t29 21t11 41.5q0 48 -25.5 68t-68.5 20
q-42 0 -91 -9t-110 -35v81q45 17 96 30t100 13t92.5 -9.5t76 -29t51.5 -49.5t19 -71q0 -37 -27 -69t-73 -51q48 -11 79.5 -46.5t31.5 -86.5z" />
    <glyph glyph-name="uni0438" unicode="&#x438;" horiz-adv-x="651" 
d="M70 469q0 14 -1.5 38t-11.5 38h104q49 0 49 -32v-316q13 20 25.5 39.5t24.5 39.5l98 158q12 20 24.5 39.5t25.5 39.5q3 4 3 10q0 8 -14 22h136q48 0 48 -32v-513h-140v396l-242 -396h-129v469z" />
    <glyph glyph-name="uni0439" unicode="&#x439;" horiz-adv-x="651" 
d="M497 691q0 -50 -39.5 -81.5t-128.5 -31.5q-45 0 -77 8t-52.5 23t-30 36t-10.5 46h110q1 -28 14 -44.5t46 -16.5t45.5 16t12.5 45h110zM70 469q0 14 -1.5 38t-11.5 38h104q49 0 49 -32v-316q13 20 25.5 39.5t24.5 39.5l98 158q12 20 24.5 39.5t25.5 39.5q3 4 3 10
q0 8 -14 22h136q48 0 48 -32v-513h-140v396l-242 -396h-129v469z" />
    <glyph glyph-name="uni043A" unicode="&#x43a;" horiz-adv-x="599" 
d="M161 545q48 0 48 -32v-205q35 11 55 43t34 68q12 26 28.5 49t40 40t54.5 27t72 10h62v-80h-61q-25 0 -42 -21.5t-34 -63.5q-17 -38 -36.5 -62.5t-49.5 -43.5l247 -274h-160l-197 233h-13v-233h-139v469q0 14 -1.5 38t-11.5 38h104z" />
    <glyph glyph-name="uni043B" unicode="&#x43b;" horiz-adv-x="654" 
d="M160 469q0 14 -1.5 38t-11.5 38h389q48 0 48 -32v-513h-140v466h-144q0 -52 -2.5 -100.5t-6.5 -91t-10 -77t-13 -58.5q-20 -67 -71 -103t-123 -36h-16l-33 1h-16v80h14l27 -1h13q21 0 35.5 11t24.5 27.5t15.5 35.5t8.5 36q6 35 9.5 104t3.5 175z" />
    <glyph glyph-name="uni043C" unicode="&#x43c;" horiz-adv-x="724" 
d="M222 545q18 0 25.5 -6t16.5 -26l103 -227l92 212q5 11 8.5 23.5t-4.5 23.5h142q49 0 49 -32v-513h-140v384l-104 -222h-96l-104 222v-384h-140v469q0 14 -1.5 38t-11.5 38h165z" />
    <glyph glyph-name="uni043D" unicode="&#x43d;" horiz-adv-x="630" 
d="M512 545q48 0 48 -32v-513h-140v248h-210v-248h-140v469q0 14 -1.5 38t-11.5 38h105q48 0 48 -32v-185h210v141q0 14 -1.5 38t-11.5 38h105z" />
    <glyph glyph-name="uni043E" unicode="&#x43e;" horiz-adv-x="616" 
d="M308 -15q-61 0 -110.5 20t-84.5 57t-54 90t-19 120t19 120.5t54 91.5t84.5 58.5t110.5 20.5t110.5 -20.5t84.5 -58.5t54 -91.5t19 -120.5t-19 -120t-54 -90t-84.5 -57t-110.5 -20zM308 483q-63 0 -95.5 -51t-32.5 -160q0 -106 32.5 -156.5t95.5 -50.5t95.5 50.5
t32.5 156.5q0 109 -32.5 160t-95.5 51z" />
    <glyph glyph-name="uni043F" unicode="&#x43f;" horiz-adv-x="630" 
d="M512 545q48 0 48 -34v-511h-140v465h-210v-465h-140v477q0 15 -2 35t-11 33h455z" />
    <glyph glyph-name="uni0440" unicode="&#x440;" horiz-adv-x="628" 
d="M210 513q30 20 65 35t88 15q51 0 93 -19t71.5 -55t45.5 -89t16 -120q0 -59 -17 -112.5t-50 -94t-80.5 -64.5t-108.5 -24q-39 0 -69 8.5t-54 22.5v-196h-140v649q0 15 -1.5 38t-12.5 38h105q49 0 49 -32zM449 277q0 102 -25.5 154t-83.5 52q-29 0 -63.5 -17t-66.5 -43
v-325q31 -17 54.5 -25t49.5 -8q63 0 99 50.5t36 161.5z" />
    <glyph glyph-name="uni0441" unicode="&#x441;" horiz-adv-x="553" 
d="M513 38q-51 -24 -96 -37.5t-96 -13.5q-68 0 -120.5 20t-88 57t-54 90.5t-18.5 120.5t20 120t56.5 90.5t88.5 57.5t116 20q51 0 100.5 -15t91.5 -35v-101q-57 42 -102 56.5t-84 14.5q-66 0 -106.5 -52.5t-40.5 -155.5t39 -155.5t108 -52.5q40 0 82 15.5t104 51.5v-96z" />
    <glyph glyph-name="uni0442" unicode="&#x442;" horiz-adv-x="532" 
d="M528 465h-192v-465h-139v465h-192v80h523v-80z" />
    <glyph glyph-name="uni0443" unicode="&#x443;" horiz-adv-x="578" 
d="M273 -180h-136l87 207l-199 494q-8 16 -19 24h118q18 0 25.5 -6.5t15.5 -27.5l130 -339l126 331q3 8 5 15t2 13q0 5 -6 14h113q26 0 26 -19q0 -9 -4 -18z" />
    <glyph glyph-name="uni0444" unicode="&#x444;" horiz-adv-x="848" 
d="M446 760q25 0 36.5 -7.5t11.5 -25.5v-187q16 6 34.5 9.5t41.5 3.5q58 0 102.5 -25t74.5 -65t45.5 -90.5t15.5 -101.5q0 -54 -13.5 -105t-42 -91t-72 -64t-103.5 -24q-24 0 -43.5 3.5t-39.5 12.5v-183h-140v182q-20 -8 -39.5 -11.5t-43.5 -3.5q-60 0 -103.5 24t-72 64
t-42 91t-13.5 105q0 51 15.5 101.5t45.5 90.5t74.5 65t102.5 25q23 0 41.5 -3.5t34.5 -9.5v145q0 13 -1.5 36.5t-11.5 38.5h105zM494 84q20 -12 34 -15t32 -3q27 0 47 15t33.5 42.5t20.5 66t7 85.5q0 102 -31.5 150.5t-86.5 48.5q-15 0 -28.5 -4t-27.5 -10v-376zM354 459
q-14 6 -27.5 10t-29.5 4q-54 0 -86 -48t-32 -150q0 -96 27.5 -152t81.5 -56q18 0 32 3t34 15v374z" />
    <glyph glyph-name="uni0445" unicode="&#x445;" horiz-adv-x="584" 
d="M299 363l95 135q8 11 13 19t5 16q0 5 -5 12h120q24 0 24 -14q0 -9 -12 -25l-179 -227l205 -279h-146l-129 184l-134 -184h-135l204 272l-159 213q-11 15 -24 30.5t-27 29.5h120q18 0 29 -6.5t25 -25.5z" />
    <glyph glyph-name="uni0446" unicode="&#x446;" horiz-adv-x="652" 
d="M420 469q0 14 -1.5 38t-11.5 38h105q48 0 48 -32v-433h72v-238h-140v158h-422v469q0 14 -1.5 38t-11.5 38h105q48 0 48 -32v-433h210v389z" />
    <glyph glyph-name="uni0447" unicode="&#x447;" horiz-adv-x="630" 
d="M560 0h-140v189q-35 -10 -71 -16t-81 -6q-97 0 -147.5 44.5t-50.5 123.5v134q0 14 -1.5 38t-11.5 38h105q48 0 48 -32v-133q0 -28 2 -52.5t11 -42.5t26.5 -28.5t49.5 -10.5q26 0 59.5 5t61.5 13v205q0 14 -1.5 38t-11.5 38h105q48 0 48 -32v-513z" />
    <glyph glyph-name="uni0448" unicode="&#x448;" horiz-adv-x="884" 
d="M814 0h-744v469q0 14 -1.5 38t-11.5 38h105q48 0 48 -32v-433h162v389q0 14 -1.5 38t-11.5 38h105q48 0 48 -32v-433h162v389q0 14 -1.5 38t-11.5 38h105q48 0 48 -32v-513z" />
    <glyph glyph-name="uni0449" unicode="&#x449;" horiz-adv-x="898" 
d="M814 80h64v-238h-140v158h-668v469q0 14 -1.5 38t-11.5 38h105q48 0 48 -32v-433h162v389q0 14 -1.5 38t-11.5 38h105q48 0 48 -32v-433h162v389q0 14 -1.5 38t-11.5 38h105q48 0 48 -32v-433z" />
    <glyph glyph-name="uni044A" unicode="&#x44a;" horiz-adv-x="667" 
d="M152 465h-147v80h239q48 0 48 -32v-182h116q45 0 87.5 -7t75 -25t52.5 -49t20 -79q0 -51 -19.5 -84t-52.5 -52.5t-77 -27t-93 -7.5h-249v465zM503 171q0 30 -9.5 46.5t-26 24t-37.5 8.5t-45 1h-93v-171h67q27 0 52.5 1.5t46 10t33 27t12.5 52.5z" />
    <glyph glyph-name="uni044B" unicode="&#x44b;" horiz-adv-x="797" 
d="M70 469q0 14 -1.5 38t-11.5 38h105q48 0 48 -32v-181h114q45 0 87.5 -7t75 -25t52.5 -49.5t20 -79.5q0 -51 -19.5 -84t-52.5 -52.5t-77 -27t-93 -7.5h-247v469zM736 0h-140v469q0 14 -1.5 38t-11.5 38h105q48 0 48 -32v-513zM429 171q0 30 -11 46.5t-29 24t-41 9t-47 1.5
h-91v-172h66q27 0 54 1.5t49 10t36 27t14 52.5z" />
    <glyph glyph-name="uni044C" unicode="&#x44c;" horiz-adv-x="599" 
d="M70 469q0 14 -1.5 38t-11.5 38h105q48 0 48 -32v-181h114q45 0 87.5 -7t75 -25t52.5 -49.5t20 -79.5q0 -51 -19.5 -84t-52.5 -52.5t-77 -27t-93 -7.5h-247v469zM429 171q0 30 -11 46.5t-29 24t-41 9t-47 1.5h-91v-172h66q27 0 54 1.5t49 10t36 27t14 52.5z" />
    <glyph glyph-name="uni044D" unicode="&#x44d;" horiz-adv-x="553" 
d="M40 134q62 -36 104 -51.5t82 -15.5q63 0 101 43.5t45 130.5h-247v80h246q-9 81 -47 121.5t-98 40.5q-39 0 -84 -14.5t-102 -56.5v101q42 20 91.5 35t100.5 15q64 0 116 -20t88.5 -57.5t56.5 -90.5t20 -120t-18.5 -120.5t-54 -90.5t-88 -57t-120.5 -20q-51 0 -96 13.5
t-96 37.5v96z" />
    <glyph glyph-name="uni044E" unicode="&#x44e;" horiz-adv-x="856" 
d="M70 469q0 14 -1.5 38t-11.5 38h105q48 0 48 -32v-192h73q13 112 84 177t181 65q61 0 110.5 -20.5t84.5 -58.5t54 -91.5t19 -120.5t-19 -120t-54 -90t-84.5 -57t-110.5 -20q-116 0 -186.5 68t-80.5 188h-71v-241h-139zM548 483q-63 0 -95.5 -51t-32.5 -160
q0 -106 32.5 -156.5t95.5 -50.5t95.5 50.5t32.5 156.5q0 109 -32.5 160t-95.5 51z" />
    <glyph glyph-name="uni044F" unicode="&#x44f;" horiz-adv-x="590" 
d="M472 545q48 0 48 -32v-513h-140v210h-50l-157 -210h-157l179 220q-81 17 -112.5 61t-31.5 104q0 49 20 80t53 49t76 24.5t89 6.5h183zM380 290v175h-88q-23 0 -41.5 -2t-31.5 -10t-20.5 -24.5t-7.5 -45.5t5.5 -47t18 -28.5t32 -14t47.5 -3.5h86z" />
    <glyph glyph-name="uni0451" unicode="&#x451;" horiz-adv-x="610" 
d="M163 661q0 26 17.5 43t45.5 17q24 0 43 -17t19 -43q0 -24 -19 -41t-43 -17q-28 0 -45.5 17t-17.5 41zM346 661q0 26 18 43t44 17t44.5 -17t18.5 -43q0 -24 -18.5 -41t-44.5 -17t-44 17t-18 41zM567 256h-393q1 -41 11.5 -75.5t30.5 -60.5t51 -40.5t73 -14.5t98 17.5
t119 47.5v-93q-51 -22 -105 -37t-111 -15q-145 0 -223 73t-78 211q0 66 19.5 120.5t55.5 92.5t87.5 59t115.5 21q118 0 183.5 -65.5t65.5 -183.5v-57zM432 336q-3 72 -32 109t-87 37t-94 -41.5t-44 -104.5h257z" />
    <glyph glyph-name="uni2010" unicode="&#x2010;" horiz-adv-x="410" 
d="M354 300h-298v100h298v-100z" />
    <glyph glyph-name="emdash" unicode="&#x2014;" horiz-adv-x="864" 
d="M862 320h-860v65h860v-65z" />
    <glyph glyph-name="emdash" unicode="&#x2015;" horiz-adv-x="864" 
d="M862 320h-860v65h860v-65z" />
    <glyph glyph-name="uni2016" unicode="&#x2016;" horiz-adv-x="940" 
d="M425 -170h-130v1020h130v-1020zM645 -170h-130v1020h130v-1020z" />
    <glyph glyph-name="quoteleft" unicode="&#x2018;" horiz-adv-x="269" 
d="M17 507l135 283h102l-84 -283h-153z" />
    <glyph glyph-name="quoteright" unicode="&#x2019;" horiz-adv-x="269" 
d="M252 790l-135 -283h-102l84 283h153z" />
    <glyph glyph-name="quotedblleft" unicode="&#x201c;" horiz-adv-x="460" 
d="M17 507l135 283h102l-84 -283h-153zM208 507l135 283h102l-84 -283h-153z" />
    <glyph glyph-name="quotedblright" unicode="&#x201d;" horiz-adv-x="460" 
d="M443 790l-135 -283h-102l84 283h153zM252 790l-135 -283h-102l84 283h153z" />
    <glyph glyph-name="dagger" unicode="&#x2020;" horiz-adv-x="690" 
d="M599 475l-198 4l2 -550h-116l2 550l-198 -4v75l198 -3l-2 233h116l-3 -234l199 4v-75z" />
    <glyph glyph-name="daggerdbl" unicode="&#x2021;" horiz-adv-x="690" 
d="M599 475l-198 4l1 -240l197 4v-75l-197 4l1 -243h-116l2 243h-21t-50 -0.5t-64 -1.5t-63 -2v75l197 -3l1 239l-198 -4v75l198 -3l-2 233h116l-3 -234l199 4v-75z" />
    <glyph glyph-name="twodotenleader" unicode="&#x2025;" horiz-adv-x="528" 
d="M213 339v-2q-4 -32 -26.5 -51.5t-54.5 -19.5q-35 0 -58.5 23t-23.5 59q0 35 22.5 58.5t57.5 23.5q37 0 60.5 -24t23.5 -61zM314 347q0 33 23.5 56.5t56.5 23.5q32 0 55.5 -23.5t23.5 -56.5q0 -32 -23.5 -55.5t-55.5 -23.5q-33 0 -56.5 23.5t-23.5 55.5z" />
    <glyph glyph-name="ellipsis" unicode="&#x2026;" 
d="M72 347q0 33 23.5 56.5t55.5 23.5q33 0 56.5 -23.5t23.5 -56.5q0 -32 -23.5 -55.5t-56.5 -23.5q-32 0 -55.5 23.5t-23.5 55.5zM400 347q0 33 23.5 56.5t56.5 23.5q32 0 55.5 -23.5t23.5 -56.5q0 -32 -23.5 -55.5t-55.5 -23.5q-33 0 -56.5 23.5t-23.5 55.5zM729 347
q0 33 23.5 56.5t56.5 23.5q32 0 55.5 -23.5t23.5 -56.5q0 -32 -23.5 -55.5t-55.5 -23.5q-33 0 -56.5 23.5t-23.5 55.5z" />
    <glyph glyph-name="ellipsis" unicode="&#x22ef;" 
d="M72 347q0 33 23.5 56.5t55.5 23.5q33 0 56.5 -23.5t23.5 -56.5q0 -32 -23.5 -55.5t-56.5 -23.5q-32 0 -55.5 23.5t-23.5 55.5zM400 347q0 33 23.5 56.5t56.5 23.5q32 0 55.5 -23.5t23.5 -56.5q0 -32 -23.5 -55.5t-55.5 -23.5q-33 0 -56.5 23.5t-23.5 55.5zM729 347
q0 33 23.5 56.5t56.5 23.5q32 0 55.5 -23.5t23.5 -56.5q0 -32 -23.5 -55.5t-55.5 -23.5q-33 0 -56.5 23.5t-23.5 55.5z" />
    <glyph glyph-name="perthousand" unicode="&#x2030;" horiz-adv-x="1186" 
d="M362 525q0 -54 -8 -94.5t-27.5 -66.5t-51.5 -39t-80 -13t-80 13t-50.5 39t-26.5 66.5t-8 94.5t8 94.5t27.5 67.5t51 40t78.5 13q49 0 81 -13.5t51 -40.5t27 -67t8 -94zM655 726l-346 -726h-118l345 726h119zM233 525q0 43 -1 72.5t-4.5 48t-11.5 26.5t-21 8q-14 0 -21 -8
t-10 -26.5t-3.5 -48t-0.5 -72.5q0 -44 0.5 -73t3.5 -47t10 -25.5t21 -7.5q13 0 21 7.5t11.5 25.5t4.5 47t1 73zM806 198q0 -54 -8 -94.5t-27.5 -66.5t-51.5 -39t-80 -13t-80 13t-50.5 39t-26.5 66.5t-8 94.5t8 94.5t27.5 67.5t51 40t78.5 13q49 0 81 -13.5t51 -40.5t27 -67
t8 -94zM1156 198q0 -54 -8 -94.5t-27.5 -66.5t-51.5 -39t-80 -13t-80 13t-50.5 39t-26.5 66.5t-8 94.5t8 94.5t27.5 67.5t51 40t78.5 13q49 0 81 -13.5t51 -40.5t27 -67t8 -94zM677 198q0 43 -1 72.5t-4.5 48t-11.5 26.5t-21 8q-14 0 -21 -8t-10 -26.5t-3.5 -48t-0.5 -72.5
q0 -44 0.5 -73t3.5 -47t10 -25.5t21 -7.5q13 0 21 7.5t11.5 25.5t4.5 47t1 73zM1027 198q0 43 -1 72.5t-4.5 48t-11.5 26.5t-21 8q-14 0 -21 -8t-10 -26.5t-3.5 -48t-0.5 -72.5q0 -44 0.5 -73t3.5 -47t10 -25.5t21 -7.5q13 0 21 7.5t11.5 25.5t4.5 47t1 73z" />
    <glyph glyph-name="minute" unicode="&#x2032;" horiz-adv-x="269" 
d="M252 790l-135 -283h-102l84 283h153z" />
    <glyph glyph-name="second" unicode="&#x2033;" horiz-adv-x="460" 
d="M443 790l-135 -283h-102l84 283h153zM252 790l-135 -283h-102l84 283h153z" />
    <glyph glyph-name="uni203B" unicode="&#x203b;" 
d="M569 674q0 -19 -8 -36.5t-22 -31t-32 -22t-37 -8.5q-20 0 -37.5 8.5t-31 22t-21.5 31t-8 36.5q0 20 8 38t21.5 31.5t31 21.5t37.5 8t38 -8t31.5 -21.5t21.5 -31.5t8 -38zM892 4l-75 -82l-345 346l-343 -349l-75 82l344 342l-343 341l72 78l343 -347l347 347l71 -78
l-342 -341zM237 341q0 -19 -8 -36.5t-21.5 -31t-31.5 -22t-37 -8.5t-36.5 8.5t-31.5 22t-22.5 31t-8.5 36.5t8.5 37t22.5 31.5t31.5 22t36.5 8.5t37 -8t31.5 -21.5t21.5 -31.5t8 -38zM921 341q0 -19 -8 -36.5t-21.5 -31t-31.5 -21.5t-38 -8q-19 0 -36.5 8t-31 21.5t-22 31
t-8.5 36.5q0 20 8.5 38t22 31.5t31 21.5t36.5 8t37 -8t31.5 -21.5t22 -31.5t8.5 -38zM569 -3q0 -18 -8 -35.5t-21.5 -31t-31.5 -22t-38 -8.5t-37.5 8.5t-30.5 22t-21 31t-8 35.5q0 20 8 38t21 31.5t30.5 21.5t37.5 8q19 0 37 -8t32 -21.5t22 -31.5t8 -38z" />
    <glyph glyph-name="uniFFE3" unicode="&#x203e;" 
d="M8 710v65h944v-65h-944z" />
    <glyph glyph-name="uniFFE3" unicode="&#xffe3;" 
d="M8 710v65h944v-65h-944z" />
    <glyph glyph-name="uni2074" unicode="&#x2074;" horiz-adv-x="454" 
d="M428 461h-67v-130h-110v130h-223v64l233 296h100v-287h67v-73zM125 534h126v163z" />
    <glyph glyph-name="uni207F" unicode="&#x207f;" horiz-adv-x="489" 
d="M76 698q0 8 -1.5 25t-10.5 28h80q40 0 41 -22q22 15 44.5 24t47.5 9q70 0 104.5 -36.5t34.5 -102.5v-237h-109v226q0 15 -1 31.5t-5.5 29.5t-13.5 21.5t-25 8.5q-14 0 -33.5 -10.5t-43.5 -29.5v-277h-109v312z" />
    <glyph glyph-name="uni2081" unicode="&#x2081;" horiz-adv-x="388" 
d="M151 0v370h-96v53q21 0 39.5 1.5t33 8t24 20t12.5 37.5h97v-490h-110z" />
    <glyph glyph-name="uni2082" unicode="&#x2082;" horiz-adv-x="435" 
d="M384 0h-340v60q44 36 86 71.5t75 72t53 75t20 80.5q0 38 -18.5 59t-50.5 21q-31 0 -72.5 -15t-81.5 -39v70q14 7 32.5 15t39 14.5t42 10.5t41.5 4q84 0 130.5 -37t46.5 -100q0 -43 -15 -80.5t-42 -73.5t-65.5 -71.5t-85.5 -74.5h205v-62z" />
    <glyph glyph-name="uni2083" unicode="&#x2083;" horiz-adv-x="440" 
d="M38 93q51 -22 92 -32t69 -10q42 0 63 28t21 71q0 50 -22 67t-63 17h-52v60h46q37 0 59 20t22 59q0 38 -19 52t-49 14q-24 0 -61 -10t-91 -33v65q13 7 31.5 14t39 12t42 8.5t40.5 3.5q28 0 59 -6t57 -19.5t43 -36.5t17 -57q0 -33 -24.5 -64t-61.5 -47q42 -14 69.5 -45
t27.5 -79q0 -39 -17 -68t-44 -48.5t-61.5 -29t-70.5 -9.5q-44 0 -88.5 11.5t-73.5 25.5v66z" />
    <glyph glyph-name="uni2084" unicode="&#x2084;" horiz-adv-x="454" 
d="M428 130h-67v-130h-110v130h-223v64l233 296h100v-287h67v-73zM125 203h126v163z" />
    <glyph glyph-name="uni20A9" unicode="&#x20a9;" 
d="M528 749q18 0 26 -7.5t13 -30.5l43 -227h103l44 230q1 5 1.5 9.5t0.5 8.5q0 9 -6 17h120q27 0 27 -21v-7.5t-2 -9.5l-51 -227h82v-84h-100l-85 -380h-159l-72 380h-57l-71 -380h-158l-85 380h-115v84h96l-54 239q-3 16 -22 26h129q19 0 27 -7.5t13 -30.5l44 -227h101
l40 211q2 9 4 19t2 18q0 5 -1 8.5t-5 8.5h127zM472 484h25l-13 67zM311 219l34 181h-69zM661 214l36 186h-71z" />
    <glyph glyph-name="Euro" unicode="&#x20ac;" horiz-adv-x="652" 
d="M399 472l-23 -64h-183q-1 -11 -1.5 -22.5t-0.5 -22.5v-20t1 -20h152l-23 -66h-121q8 -39 22.5 -73.5t37 -60t53 -40.5t71.5 -15q59 0 109.5 24.5t110.5 79.5v-112q-48 -34 -98.5 -53t-116.5 -19q-135 0 -219.5 68.5t-109.5 200.5h-60l23 66h29q-1 10 -1 19.5v20.5
t0.5 22.5t1.5 22.5h-55l23 64h41q26 127 112 197t216 70q61 0 110.5 -17.5t103.5 -53.5v-110q-34 27 -62 46t-54 31t-51.5 18t-53.5 6q-41 0 -71.5 -14.5t-52.5 -40t-36 -59.5t-22 -73h198z" />
    <glyph glyph-name="uni2103" unicode="&#x2103;" horiz-adv-x="872" 
d="M241 709q0 -23 -9 -41.5t-24.5 -31t-35.5 -19t-42 -6.5t-42 6.5t-35 19t-24 30.5t-9 42q0 22 9 40t24 30.5t35 19t42 6.5t42 -6.5t35.5 -19t24.5 -30.5t9 -40zM182 709q0 29 -14.5 45.5t-37.5 16.5q-22 0 -36.5 -16.5t-14.5 -45.5q0 -30 15 -47t36 -17q23 0 37.5 17.5
t14.5 46.5zM821 59q-31 -16 -61 -29.5t-61.5 -23t-66 -14.5t-74.5 -5q-86 0 -154 25t-115.5 72.5t-72.5 117.5t-25 160q0 88 25.5 158t73.5 119t116 74.5t153 25.5q62 0 124.5 -15.5t137.5 -54.5v-110q-44 27 -80.5 46t-68.5 31t-61 17.5t-58 5.5q-61 0 -103 -25.5
t-68.5 -67t-38 -95t-11.5 -109.5t12 -109t38.5 -94t69 -66.5t102.5 -25.5q61 0 123 24.5t144 76.5v-109z" />
    <glyph glyph-name="uni2109" unicode="&#x2109;" horiz-adv-x="798" 
d="M241 709q0 -23 -9 -41.5t-24.5 -31t-35.5 -19t-42 -6.5t-42 6.5t-35 19t-24 30.5t-9 42q0 22 9 40t24 30.5t35 19t42 6.5t42 -6.5t35.5 -19t24.5 -30.5t9 -40zM182 709q0 29 -14.5 45.5t-37.5 16.5q-22 0 -36.5 -16.5t-14.5 -45.5q0 -30 15 -47t36 -17q23 0 37.5 17.5
t14.5 46.5zM772 726v-80h-352v-213h303v-80h-303v-353h-140v650q0 14 -1.5 37t-12.5 39h506z" />
    <glyph glyph-name="uni2113" unicode="&#x2113;" horiz-adv-x="417" 
d="M1 211l92 116v250q0 40 10.5 74t31 59.5t51 40t71.5 14.5q58 0 94 -32.5t36 -98.5q0 -34 -13.5 -71.5t-35.5 -75.5t-49.5 -76t-54.5 -73v-224v-14t1.5 -17.5t6 -14.5t12.5 -6q18 0 47.5 13t52.5 39v-87q-29 -24 -56.5 -34.5t-56.5 -10.5q-66 0 -107 28.5t-41 92.5v90
l-30 -38zM234 483q31 43 47.5 77.5t16.5 73.5q0 22 -8 36.5t-25 14.5q-15 0 -23 -28t-8 -73v-101z" />
    <glyph glyph-name="uni2116" unicode="&#x2116;" 
d="M346 257v394v17.5t-0.5 21.5t-3 20.5t-7.5 15.5h80q43 0 43 -30v-696h-133l-138 549v-549h-112v651v17.5t-0.5 21.5t-3 20.5t-7.5 15.5h135q15 0 23.5 -6.5t13.5 -26.5zM837 271q0 -140 -43 -213t-125 -73q-81 0 -124.5 73t-43.5 213q0 141 43.5 216.5t124.5 75.5
q82 0 125 -75.5t43 -216.5zM725 271q0 58 -4 98.5t-11.5 66t-18 36.5t-22.5 11t-22 -11t-17.5 -36.5t-12 -66t-4.5 -98.5q0 -112 16.5 -159.5t39.5 -47.5q25 0 40.5 47t15.5 160zM833 58q0 31 12 53t43 22t43 -22t12 -53t-12 -53t-43 -22t-43 22t-12 53z" />
    <glyph glyph-name="uni2121" unicode="&#x2121;" 
d="M886 0h-107v686v17.5t-1 21t-2.5 20t-4.5 15.5h88q27 0 27 -29v-731zM445 650h-155v-650h-110v650h-154v76h419v-76zM725 256h-257q1 -91 23.5 -141t77.5 -50q38 0 77 15t71 46v-90q-26 -21 -62.5 -36t-84.5 -15q-97 0 -152.5 70.5t-55.5 213.5q0 139 52 216t140 77
q81 0 126 -61t45 -186v-59zM619 336q-1 80 -16 113t-52 33q-72 0 -83 -146h151z" />
    <glyph glyph-name="trademark" unicode="&#x2122;" 
d="M787 776q42 0 42 -24v-341h-100v232l-46 -135h-72l-46 135v-232h-99v320q0 7 -2 19t-14 26h106q19 0 25.5 -4t11.5 -16l56 -153l52 144q2 5 2.5 7.5t0.5 5.5q0 2 -6 16h89zM438 721h-122v-310h-99v310h-122v55h343v-55z" />
    <glyph glyph-name="Omega" unicode="&#x2126;" 
d="M848 0h-318v179q39 25 68 50t48 55t28.5 67t9.5 87t-14 91t-40.5 70t-64.5 45t-85 16t-84.5 -16t-63.5 -45t-40.5 -70t-14.5 -91q0 -51 9 -88t27.5 -66.5t47.5 -54t69 -50.5v-179h-316v80h184v79q-72 48 -116.5 119.5t-44.5 159.5q0 73 28 129.5t75.5 94.5t109.5 58
t130 20q69 0 131 -20t109.5 -58t75.5 -94.5t28 -129.5q0 -88 -44.5 -159.5t-116.5 -119.5v-79h185v-80z" />
    <glyph glyph-name="uni212B" unicode="&#x212b;" horiz-adv-x="699" 
d="M686 0h-140l-69 196h-260l-69 -196h-135l235 637q5 12 1 26.5t-14 22.5h42q-18 13 -29 32.5t-11 45.5q0 22 9 40t24 30.5t35 19t42 6.5t42 -6.5t35.5 -19t24.5 -30.5t9 -40q0 -26 -11.5 -46t-31.5 -33q11 -2 18 -9.5t13 -24.5zM399 764q0 29 -14.5 45.5t-37.5 16.5
q-22 0 -36.5 -16.5t-14.5 -45.5q0 -30 15 -47t36 -17q23 0 37.5 17.5t14.5 46.5zM246 276h202l-101 287z" />
    <glyph glyph-name="onethird" unicode="&#x2153;" 
d="M133 303v368h-97v53q21 0 39.5 1.5t33.5 8t24.5 20t11.5 37.5h97v-488h-109zM660 764l-406 -805h-96l406 805h96zM564 59q51 -22 92 -35.5t69 -13.5q42 0 63 27.5t21 72.5q0 50 -22 66.5t-63 16.5h-52v61h45q37 0 59 19.5t22 58.5q0 38 -18.5 52t-48.5 14
q-25 0 -61.5 -13.5t-90.5 -36.5v72q13 7 31.5 14t39 12t42 8.5t40.5 3.5q28 0 59 -5.5t57 -19t43 -36.5t17 -57t-24.5 -65t-61.5 -47q42 -14 69 -45t27 -79q0 -39 -16.5 -68t-43.5 -48t-61.5 -28.5t-70.5 -9.5q-44 0 -88.5 11.5t-73.5 25.5v72z" />
    <glyph glyph-name="twothirds" unicode="&#x2154;" 
d="M371 292h-340v60q44 36 86 71.5t75 72t53 75t20 80.5q0 38 -18.5 59t-50.5 21q-31 0 -72.5 -15t-81.5 -39v76q28 14 71 26t84 12q84 0 130.5 -37t46.5 -100q0 -43 -15 -80.5t-42 -73.5t-65.5 -71.5t-85.5 -74.5h205v-62zM731 764l-406 -805h-96l406 805h96zM575 59
q51 -22 91.5 -35.5t68.5 -13.5q43 0 63.5 27.5t20.5 72.5q0 50 -21.5 66.5t-63.5 16.5h-51v61h45q37 0 59 19.5t22 58.5q0 38 -19 52t-48 14q-25 0 -62 -13.5t-91 -36.5v72q13 7 31.5 14t39 12t42 8.5t41.5 3.5q28 0 58.5 -5.5t56.5 -19t43 -36.5t17 -57t-24.5 -65
t-61.5 -47q43 -14 70 -45t27 -79q0 -39 -16.5 -68t-43.5 -48t-62 -28.5t-71 -9.5q-44 0 -88 11.5t-73 25.5v72z" />
    <glyph glyph-name="oneeighth" unicode="&#x215b;" 
d="M143 303v368h-96v53q21 0 39.5 1.5t33 8t24 20t12.5 37.5h97v-488h-110zM670 764l-406 -805h-95l405 805h96zM639 221q-76 45 -76 107q0 33 17 57.5t43 40.5t57 24t60 8q40 0 73 -9.5t55.5 -26.5t35 -39.5t12.5 -49.5q0 -35 -18.5 -64t-60.5 -50q92 -41 92 -120
q0 -37 -17 -65t-44 -46.5t-60.5 -28t-67.5 -9.5q-88 0 -138.5 40.5t-50.5 106.5q0 38 21.5 71t66.5 53zM807 332q0 32 -19 49t-48 17t-47.5 -16.5t-18.5 -46.5q0 -22 8 -36.5t21 -25t30 -17.5t34 -13l2 -1q22 17 30 37.5t8 52.5zM817 93q0 24 -7 39.5t-18.5 25.5t-27 16
t-31.5 12l-8 3q-6 2 -11.5 3.5t-10.5 4.5q-19 -14 -30.5 -38t-11.5 -57q0 -45 22.5 -68.5t57.5 -23.5q34 0 55 20.5t21 62.5z" />
    <glyph glyph-name="threeeighths" unicode="&#x215c;" 
d="M39 392q51 -22 92 -35.5t69 -13.5q42 0 63 28t21 71q0 50 -22 67t-63 17h-52v60h46q37 0 59 20t22 59q0 38 -19 52t-49 14q-24 0 -61 -13.5t-91 -36.5v72q13 7 31.5 14t39 12t42 8.5t40.5 3.5q28 0 59 -6t57 -19.5t43 -36.5t17 -57q0 -33 -24.5 -64t-61.5 -47
q42 -14 69.5 -45t27.5 -79q0 -39 -17 -68t-44 -48.5t-61.5 -29t-70.5 -9.5q-44 0 -88.5 11.5t-73.5 25.5v73zM723 764l-406 -805h-95l405 805h96zM639 221q-76 45 -76 107q0 33 17 57.5t43 40.5t57 24t60 8q40 0 73 -9.5t55.5 -26.5t35 -39.5t12.5 -49.5q0 -35 -18.5 -64
t-60.5 -50q92 -41 92 -120q0 -37 -17 -65t-44 -46.5t-60.5 -28t-67.5 -9.5q-88 0 -138.5 40.5t-50.5 106.5q0 38 21.5 71t66.5 53zM807 332q0 32 -19 49t-48 17t-47.5 -16.5t-18.5 -46.5q0 -22 8 -36.5t21 -25t30 -17.5t34 -13l2 -1q22 17 30 37.5t8 52.5zM817 93
q0 24 -7 39.5t-18.5 25.5t-27 16t-31.5 12l-8 3q-6 2 -11.5 3.5t-10.5 4.5q-19 -14 -30.5 -38t-11.5 -57q0 -45 22.5 -68.5t57.5 -23.5q34 0 55 20.5t21 62.5z" />
    <glyph glyph-name="fiveeighths" unicode="&#x215d;" 
d="M390 448q0 -40 -15.5 -71t-42.5 -52t-62 -32t-74 -11q-43 0 -85.5 10.5t-71.5 25.5v71q98 -46 156 -46q45 0 65 30t20 75q0 27 -7.5 45t-20.5 28t-32 14t-41 4q-13 0 -28 -2.5t-31 -4.5q-10 -2 -20 -3.5t-18 -2.5l-24 -3v258h328v-63h-217v-121q7 1 13.5 1h12.5
q37 0 72.5 -7.5t62.5 -25t43.5 -46.5t16.5 -71zM718 764l-406 -805h-96l406 805h96zM639 221q-76 45 -76 107q0 33 17 57.5t43 40.5t57 24t60 8q40 0 73 -9.5t55.5 -26.5t35 -39.5t12.5 -49.5q0 -35 -18.5 -64t-60.5 -50q92 -41 92 -120q0 -37 -17 -65t-44 -46.5t-60.5 -28
t-67.5 -9.5q-88 0 -138.5 40.5t-50.5 106.5q0 38 21.5 71t66.5 53zM807 332q0 32 -19 49t-48 17t-47.5 -16.5t-18.5 -46.5q0 -22 8 -36.5t21 -25t30 -17.5t34 -13l2 -1q22 17 30 37.5t8 52.5zM817 93q0 24 -7 39.5t-18.5 25.5t-27 16t-31.5 12l-8 3q-6 2 -11.5 3.5
t-10.5 4.5q-19 -14 -30.5 -38t-11.5 -57q0 -45 22.5 -68.5t57.5 -23.5q34 0 55 20.5t21 62.5z" />
    <glyph glyph-name="seveneighths" unicode="&#x215e;" 
d="M403 711l-214 -419h-109l219 426h-262v63h366v-70zM686 764l-406 -805h-95l405 805h96zM639 221q-76 45 -76 107q0 33 17 57.5t43 40.5t57 24t60 8q40 0 73 -9.5t55.5 -26.5t35 -39.5t12.5 -49.5q0 -35 -18.5 -64t-60.5 -50q92 -41 92 -120q0 -37 -17 -65t-44 -46.5
t-60.5 -28t-67.5 -9.5q-88 0 -138.5 40.5t-50.5 106.5q0 38 21.5 71t66.5 53zM807 332q0 32 -19 49t-48 17t-47.5 -16.5t-18.5 -46.5q0 -22 8 -36.5t21 -25t30 -17.5t34 -13l2 -1q22 17 30 37.5t8 52.5zM817 93q0 24 -7 39.5t-18.5 25.5t-27 16t-31.5 12l-8 3
q-6 2 -11.5 3.5t-10.5 4.5q-19 -14 -30.5 -38t-11.5 -57q0 -45 22.5 -68.5t57.5 -23.5q34 0 55 20.5t21 62.5z" />
    <glyph glyph-name="uni2160" unicode="&#x2160;" 
d="M642 0h-324v80h92v566h-92v80h324v-80h-92v-566h92v-80z" />
    <glyph glyph-name="uni2161" unicode="&#x2161;" 
d="M787 0h-614v80h92v566h-92v80h614v-80h-92v-566h92v-80zM405 80h150v566h-150v-566z" />
    <glyph glyph-name="uni2162" unicode="&#x2162;" 
d="M882 0h-804v80h92v566h-92v80h804v-80h-92v-566h92v-80zM550 80h100v566h-100v-566zM310 80h100v566h-100v-566z" />
    <glyph glyph-name="uni2163" unicode="&#x2163;" 
d="M402 0h-324v80h92v566h-92v80h402q19 0 28.5 -6.5t14.5 -28.5l138 -567l133 553q3 12 5 19t2 15q0 4 -6 15h116q25 0 25 -20q0 -7 -4 -18l-190 -688h-167l-180 646h-85v-566h92v-80z" />
    <glyph glyph-name="uni2164" unicode="&#x2164;" 
d="M572 0h-167l-246 702q-2 4 -6.5 11.5t-11.5 12.5h119q19 0 27 -6.5t16 -28.5l188 -567l183 553q4 12 5.5 19t1.5 15q0 4 -6 15h116q25 0 25 -20q0 -9 -4 -18z" />
    <glyph glyph-name="uni2165" unicode="&#x2165;" 
d="M892 0h-324v80h92v566h-83l-178 -646h-167l-196 702q-1 4 -6 11.5t-12 12.5h119q19 0 28.5 -6.5t14.5 -28.5l138 -567l133 553q3 12 5 19t2 15q0 4 -6 15h440v-80h-92v-566h92v-80z" />
    <glyph glyph-name="uni2166" unicode="&#x2166;" 
d="M329 0h-167l-124 691q-2 13 -7.5 21.5t-12.5 13.5h119q19 0 30 -6.5t13 -28.5l68 -567l63 553q2 14 2.5 25.5t-6.5 23.5h605v-80h-72v-566h72v-80h-494v80h72v566h-48zM620 80h90v566h-90v-566z" />
    <glyph glyph-name="uni2167" unicode="&#x2167;" 
d="M939 0h-603v80h67v566h-38l-86 -646h-164l-96 693q-1 5 -5.5 15t-9.5 18h112q16 0 25.5 -6.5t11.5 -26.5l46 -589l41 574q4 32 -5 48h704v-80h-57v-566h57v-80zM702 80h59v566h-59v-566zM524 80h57v566h-57v-566z" />
    <glyph glyph-name="uni2168" unicode="&#x2168;" 
d="M662 460l96 218q5 11 7 24.5t-5 23.5h126q22 0 22 -14q0 -10 -10 -26l-167 -318l193 -368h-153l-113 269l-116 -269h-464v80h92v566h-92v80h429q19 0 31.5 -6.5t21.5 -26.5zM310 80h92v-67l187 349l-152 303q-8 17 -14 28.5t-21 29.5v-77h-92v-566z" />
    <glyph glyph-name="uni2169" unicode="&#x2169;" 
d="M482 460l136 218q5 7 11 18t6 18q0 4 -5 12h126q22 0 22 -14q0 -10 -10 -26l-217 -318l243 -368h-153l-163 269l-166 -269h-147l244 362l-192 303q-11 17 -21 29t-27 32h118q19 0 30 -6.5t23 -26.5z" />
    <glyph glyph-name="uni2170" unicode="&#x2170;" 
d="M403 667q0 31 23 53t54 22q32 0 55 -22t23 -53q0 -32 -23 -53t-55 -21q-31 0 -54 21t-23 53zM410 469q0 15 -2 38t-13 38h106q49 0 49 -32v-513h-140v469z" />
    <glyph glyph-name="uni2171" unicode="&#x2171;" 
d="M253 667q0 31 23 53t54 22q32 0 55 -22t23 -53q0 -32 -23 -53t-55 -21q-31 0 -54 21t-23 53zM553 667q0 31 23 53t54 22q32 0 55 -22t23 -53q0 -32 -23 -53t-55 -21q-31 0 -54 21t-23 53zM260 469q0 15 -2 38t-13 38h106q49 0 49 -32v-513h-140v469zM560 469q0 15 -2 38
t-13 38h106q49 0 49 -32v-513h-140v469z" />
    <glyph glyph-name="uni2172" unicode="&#x2172;" 
d="M403 667q0 31 23 53t54 22q32 0 55 -22t23 -53q0 -32 -23 -53t-55 -21q-31 0 -54 21t-23 53zM163 667q0 31 23 53t54 22q32 0 55 -22t23 -53q0 -32 -23 -53t-55 -21q-31 0 -54 21t-23 53zM643 667q0 31 23 53t54 22q32 0 55 -22t23 -53q0 -32 -23 -53t-55 -21
q-31 0 -54 21t-23 53zM410 469q0 15 -2 38t-13 38h106q49 0 49 -32v-513h-140v469zM170 469q0 15 -2 38t-13 38h106q49 0 49 -32v-513h-140v469zM650 469q0 15 -2 38t-13 38h106q49 0 49 -32v-513h-140v469z" />
    <glyph glyph-name="uni2173" unicode="&#x2173;" 
d="M153 667q0 31 23 53t54 22q32 0 55 -22t23 -53q0 -32 -23 -53t-55 -21q-31 0 -54 21t-23 53zM752 503q3 8 5 15t2 13q0 5 -6 14h113q26 0 26 -19q0 -9 -4 -18l-198 -508h-133l-201 521q-8 16 -19 24h118q18 0 25.5 -6.5t15.5 -27.5l131 -365zM160 469q0 15 -2 38t-13 38
h106q49 0 49 -32v-513h-140v469z" />
    <glyph glyph-name="uni2174" unicode="&#x2174;" 
d="M612 503q3 8 5 15t2 13q0 5 -6 14h113q26 0 26 -19q0 -9 -4 -18l-198 -508h-133l-201 521q-8 16 -19 24h118q18 0 25.5 -6.5t15.5 -27.5l131 -365z" />
    <glyph glyph-name="uni2175" unicode="&#x2175;" 
d="M673 667q0 31 23 53t54 22q32 0 55 -22t23 -53q0 -32 -23 -53t-55 -21q-31 0 -54 21t-23 53zM482 503q3 8 5 15t2 13q0 5 -6 14h113q26 0 26 -19q0 -9 -4 -18l-198 -508h-133l-201 521q-8 16 -19 24h118q18 0 25.5 -6.5t15.5 -27.5l131 -365zM680 469q0 15 -2 38t-13 38
h106q49 0 49 -32v-513h-140v469z" />
    <glyph glyph-name="uni2176" unicode="&#x2176;" 
d="M523 667q0 31 23 53t54 22q32 0 55 -22t23 -53q0 -32 -23 -53t-55 -21q-31 0 -54 21t-23 53zM733 667q0 31 23 53t54 22q32 0 55 -22t23 -53q0 -32 -23 -53t-55 -21q-31 0 -54 21t-23 53zM530 469q0 15 -2 38t-13 38h106q49 0 49 -32v-513h-140v469zM740 469q0 15 -2 38
t-13 38h106q49 0 49 -32v-513h-140v469zM362 503q2 8 4.5 15t2.5 13q0 5 -6 14h113q26 0 26 -19q0 -9 -4 -18l-158 -508h-133l-161 521q-2 7 -8 13.5t-11 10.5h118q18 0 27 -6.5t14 -27.5l91 -365z" />
    <glyph glyph-name="uni2177" unicode="&#x2177;" 
d="M411 667q0 31 22 53t53 22t53 -22t22 -53t-22 -52.5t-53 -21.5t-53 21.5t-22 52.5zM593 667q0 31 22 53t53 22t53 -22t22 -53t-22 -52.5t-53 -21.5t-53 21.5t-22 52.5zM775 667q0 31 22 53t53 22t53 -22t22 -53t-22 -52.5t-53 -21.5t-53 21.5t-22 52.5zM246 497
q3 17 2.5 28t-5.5 20h128q13 0 17 -7.5t-1 -26.5l-129 -511h-127l-123 521q-3 14 -14 24h122q16 0 25 -6.5t12 -26.5l44 -321zM423 469q0 23 -1.5 38t-4.5 26q-1 2 -3 5t-4 7h101q44 0 44 -30v-515h-132v469zM605 469q0 23 -1.5 38t-4.5 26q-1 2 -3 5t-4 7h101q44 0 44 -30
v-515h-132v469zM787 469q0 23 -1.5 38t-4.5 26q-1 2 -3 5t-4 7h101q44 0 44 -30v-515h-132v469z" />
    <glyph glyph-name="uni2178" unicode="&#x2178;" 
d="M153 667q0 31 23 53t54 22q32 0 55 -22t23 -53q0 -32 -23 -53t-55 -21q-31 0 -54 21t-23 53zM621 363l95 135q8 11 13 19t5 16q0 5 -5 12h120q24 0 24 -14q0 -9 -12 -25l-179 -227l205 -279h-146l-129 184l-134 -184h-135l204 272l-159 213q-11 15 -24 30.5t-27 29.5h120
q18 0 29 -6.5t25 -25.5zM160 469q0 15 -2 38t-13 38h106q49 0 49 -32v-513h-140v469z" />
    <glyph glyph-name="uni2179" unicode="&#x2179;" 
d="M487 363l95 135q8 11 13 19t5 16q0 5 -5 12h120q24 0 24 -14q0 -9 -12 -25l-179 -227l205 -279h-146l-129 184l-134 -184h-135l204 272l-159 213q-11 15 -24 30.5t-27 29.5h120q18 0 29 -6.5t25 -25.5z" />
    <glyph glyph-name="arrowleft" unicode="&#x2190;" 
d="M956 323h-794l42 -146l-200 179l200 179l-42 -146h794v-66z" />
    <glyph glyph-name="arrowup" unicode="&#x2191;" horiz-adv-x="480" 
d="M419 656l-146 42v-872h-66v872l-146 -42l179 200z" />
    <glyph glyph-name="arrowright" unicode="&#x2192;" 
d="M956 356l-200 -179l42 146h-794v66h794l-42 146z" />
    <glyph glyph-name="arrowdown" unicode="&#x2193;" horiz-adv-x="480" 
d="M419 26l-179 -201l-179 201l146 -43v872h66v-872z" />
    <glyph glyph-name="arrowboth" unicode="&#x2194;" 
d="M955 356l-201 -179l43 146h-635l42 -146l-200 179l200 179l-42 -146h635l-43 146z" />
    <glyph glyph-name="arrowupdn" unicode="&#x2195;" horiz-adv-x="444" 
d="M391 30l-169 -189l-169 189l138 -40v700l-138 -40l169 189l169 -189l-138 40v-700z" />
    <glyph glyph-name="uni2196" unicode="&#x2196;" 
d="M917 -104l-47 -41l-752 837l-76 -121v254l253 -29l-130 -61z" />
    <glyph glyph-name="uni2197" unicode="&#x2197;" 
d="M917 571l-76 121l-752 -837l-47 41l752 839l-130 61l253 29v-254z" />
    <glyph glyph-name="uni2198" unicode="&#x2198;" 
d="M917 -145l-253 29l130 61l-752 839l47 41l752 -837l76 122v-255z" />
    <glyph glyph-name="uni2199" unicode="&#x2199;" 
d="M917 784l-752 -839l130 -61l-253 -29v255l76 -122l752 837z" />
    <glyph glyph-name="arrowdblright" unicode="&#x21d2;" 
d="M956 339l-272 -271l-48 48l97 97h-730v71h802l57 55l-57 55h-802v71h730l-97 97l48 48z" />
    <glyph glyph-name="arrowdblboth" unicode="&#x21d4;" 
d="M956 339l-272 -271l-48 48l97 97h-506l97 -97l-49 -48l-271 271l271 271l49 -48l-97 -97h506l-97 97l48 48zM862 339l-57 55h-651l-56 -55l56 -55h651z" />
    <glyph glyph-name="universal" unicode="&#x2200;" 
d="M815 725l-252 -726h-169l-252 726h135l65 -196h268l65 196h140zM476 122l108 327h-216z" />
    <glyph glyph-name="partialdiff" unicode="&#x2202;" horiz-adv-x="609" 
d="M91 687q14 8 35 17.5t47 18t56.5 14t63.5 5.5q60 0 109.5 -26.5t84 -75t53.5 -117.5t19 -154q0 -94 -23 -165.5t-63 -119.5t-94.5 -72.5t-118.5 -24.5q-53 0 -94 19t-68.5 49t-42 68.5t-14.5 77.5q0 51 16.5 96t45.5 78.5t70 53t89 19.5q30 0 54.5 -7t43.5 -19t33.5 -27
t24.5 -30h1q4 46 1.5 98.5t-16.5 96.5t-43 73t-78 29q-22 0 -44.5 -6t-43.5 -14.5t-38.5 -17.5t-30.5 -16zM271 67q30 0 53 18t40 46.5t28 65t16 74.5q-6 16 -17 33t-27 31t-36 23.5t-44 9.5q-27 0 -46 -13.5t-32 -36t-19 -53t-6 -63.5q0 -58 22.5 -96.5t67.5 -38.5z" />
    <glyph glyph-name="existential" unicode="&#x2203;" 
d="M685 726q44 0 44 -30v-696h-497v80h357v278h-357v80h357v208h-357v80h453z" />
    <glyph glyph-name="gradient" unicode="&#x2207;" 
d="M898 634l-419 -657l-418 657h837zM728 544h-497l248 -393z" />
    <glyph glyph-name="element" unicode="&#x2208;" 
d="M851 9h-469q-69 0 -124 23.5t-93.5 66.5t-58.5 103t-20 134q0 73 20.5 133t60 103t98.5 66.5t136 23.5h450v-102h-444q-98 0 -145.5 -45t-57.5 -128h644v-102h-644q10 -83 57.5 -128.5t145.5 -45.5h444v-102z" />
    <glyph glyph-name="suchthat" unicode="&#x220b;" 
d="M109 9v102h444q98 0 145 45t58 129h-644v102h644q-11 84 -58 128.5t-145 44.5h-444v102h449q78 0 137 -23.5t98.5 -66.5t60 -103t20.5 -133q0 -74 -20 -134t-58.5 -103t-93.5 -66.5t-125 -23.5h-468z" />
    <glyph glyph-name="product" unicode="&#x220f;" horiz-adv-x="760" 
d="M636 756q44 0 44 -30v-866h-132v820h-335v-820h-133v821v17.5t-0.5 21.5t-3 20.5t-7.5 15.5h567z" />
    <glyph glyph-name="summation" unicode="&#x2211;" horiz-adv-x="696" 
d="M671 -140h-611v76l314 383l-305 364v73h579v-75h-431l308 -366l-310 -380h456v-75z" />
    <glyph glyph-name="radical" unicode="&#x221a;" horiz-adv-x="867" 
d="M878 857l-456 -1035h-52l-199 535h-123v75h203l162 -442l379 867h86z" />
    <glyph glyph-name="proportional" unicode="&#x221d;" 
d="M829 421q-40 46 -91 46q-32 0 -57 -9.5t-44.5 -25t-34 -35.5t-26.5 -41q11 -21 26 -41t34.5 -36t44.5 -25.5t57 -9.5q22 0 44.5 10.5t41.5 30.5l57 -105q-30 -23 -64.5 -33t-70.5 -10q-44 0 -79 10t-62.5 26.5t-49.5 39t-39 47.5q-18 -24 -40 -46t-50 -38.5t-62.5 -26.5
t-77.5 -10q-44 0 -83 14.5t-68 42t-46.5 68t-17.5 92.5t17 93t46 69t68 43t84 15q42 0 76 -10t62.5 -27t51 -39t40.5 -46q18 25 40 47t49.5 38.5t62 26t78.5 9.5q80 0 145 -54zM456 354q-12 21 -27.5 41.5t-35 36.5t-44.5 26t-56 10q-20 0 -39.5 -7t-34.5 -21.5t-24 -35.5
t-9 -49t9 -48.5t24 -34t34.5 -20.5t39.5 -7q30 0 55 9.5t45 24.5t35.5 34.5t27.5 40.5z" />
    <glyph glyph-name="infinity" unicode="&#x221e;" 
d="M480 259q-16 -23 -37 -43.5t-47.5 -36.5t-59.5 -25t-73 -9q-41 0 -77.5 13.5t-64.5 40t-44 64.5t-16 87t16 87.5t43 65.5t64 41t79 14q39 0 71.5 -9.5t59.5 -25.5t48 -37t38 -44q17 23 38 44t48 37t59.5 25.5t71.5 9.5q42 0 79 -14t64 -41t43 -65.5t16 -87.5t-16 -87
t-44 -64.5t-64.5 -40t-77.5 -13.5t-73.5 9t-58.5 25t-47 36.5t-38 43.5zM424 348q-12 20 -26.5 39.5t-33 34.5t-42 24.5t-52.5 9.5q-19 0 -37 -6.5t-32.5 -20t-23 -33.5t-8.5 -47q0 -26 8.5 -45.5t23 -32.5t32.5 -19.5t37 -6.5q30 0 53 9t41.5 23t33 32.5t26.5 38.5z
M536 348q12 -20 27 -38.5t33.5 -32.5t41.5 -23t52 -9q19 0 37 6.5t32.5 19.5t23 32.5t8.5 45.5q0 27 -8.5 47t-23 33.5t-32.5 20t-37 6.5q-29 0 -52.5 -9.5t-42 -24.5t-33 -34.5t-26.5 -39.5z" />
    <glyph glyph-name="angle" unicode="&#x2220;" 
d="M802 -2h-667v79l519 561l77 -63l-446 -486h517v-91z" />
    <glyph glyph-name="uni2225" unicode="&#x2225;" 
d="M436 -170h-130v1020h130v-1020zM656 -170h-130v1020h130v-1020z" />
    <glyph glyph-name="logicaland" unicode="&#x2227;" 
d="M876 7l-125 -54l-271 602l-271 -602l-126 54l343 719h108z" />
    <glyph glyph-name="logicalor" unicode="&#x2228;" 
d="M876 672l-342 -719h-108l-343 719l126 54l271 -602l271 602z" />
    <glyph glyph-name="intersection" unicode="&#x2229;" 
d="M480 635q-108 0 -161 -59t-53 -165v-444h-113v469q0 69 23.5 124t66.5 93.5t103 58.5t134 20q73 0 133 -20.5t103 -60t66.5 -98.5t23.5 -137v-449h-112v444q0 106 -52.5 165t-161.5 59z" />
    <glyph glyph-name="union" unicode="&#x222a;" 
d="M481 43q109 0 161.5 59t52.5 165v444h112v-449q0 -78 -23.5 -137t-66.5 -98.5t-103 -60t-133 -20.5q-74 0 -134 20t-103 58.5t-66.5 93.5t-23.5 125v468h113v-444q0 -106 53 -165t161 -59z" />
    <glyph glyph-name="integral" unicode="&#x222b;" horiz-adv-x="590" 
d="M362 70q0 -48 -15 -88.5t-42.5 -69.5t-68 -45.5t-91.5 -16.5q-26 0 -53.5 3t-52.5 9v81q17 -6 43 -11t50 -5q29 0 47.5 9.5t29.5 27.5t15 44t4 59v544q0 48 15 88t42.5 69t68 45.5t91.5 16.5q26 0 53.5 -2.5t51.5 -8.5v-82q-16 7 -41.5 12t-50.5 5q-29 0 -48 -9.5
t-29.5 -29t-14.5 -48t-4 -65.5v-532z" />
    <glyph glyph-name="uni222C" unicode="&#x222c;" horiz-adv-x="913" 
d="M362 70q0 -48 -15 -88.5t-42.5 -69.5t-68 -45.5t-91.5 -16.5q-26 0 -53.5 3t-52.5 9v81q17 -6 43 -11t50 -5q29 0 47.5 9.5t29.5 27.5t15 44t4 59v544q0 48 15 88t42.5 69t68 45.5t91.5 16.5q26 0 53.5 -2.5t51.5 -8.5v-82q-16 7 -41.5 12t-50.5 5q-29 0 -48 -9.5
t-29.5 -29t-14.5 -48t-4 -65.5v-532zM684 70q0 -48 -14.5 -88.5t-42.5 -69.5t-68 -45.5t-91 -16.5q-26 0 -53.5 3t-52.5 9v81q17 -6 42.5 -11t50.5 -5q29 0 47.5 9.5t29 27.5t14.5 44t4 59v544q0 48 15 88t43 69t68.5 45.5t91.5 16.5q26 0 53.5 -2.5t51.5 -8.5v-82
q-16 7 -42 12t-51 5q-58 0 -77 -38.5t-19 -113.5v-532z" />
    <glyph glyph-name="uni222E" unicode="&#x222e;" horiz-adv-x="590" 
d="M105 315q0 69 33 113t90 60v123q0 48 15 88t42.5 69t68 45.5t91.5 16.5q26 0 53.5 -2.5t51.5 -8.5v-82q-16 7 -41.5 12t-50.5 5q-29 0 -48 -9.5t-29.5 -29t-14.5 -48t-4 -65.5v-117q54 -17 84.5 -60.5t30.5 -109.5t-30.5 -109.5t-84.5 -60.5v-75q0 -48 -15 -88.5
t-42.5 -69.5t-68 -45.5t-91.5 -16.5q-26 0 -53.5 3t-52.5 9v81q17 -6 43 -11t50 -5q29 0 47.5 9.5t29.5 27.5t15 44t4 59v75q-57 16 -90 60t-33 113zM179 315q0 -33 13 -59t36 -40v198q-23 -14 -36 -40t-13 -59zM362 222q41 32 41 93q0 30 -10.5 54t-30.5 39v-186z" />
    <glyph glyph-name="therefore" unicode="&#x2234;" 
d="M553 552q0 -29 -22 -51t-51 -22t-51 22t-22 51t22 51t51 22t51 -22t22 -51zM313 159q0 -29 -21.5 -51t-51.5 -22q-29 0 -51 22t-22 51t22 51t51 22q30 0 51.5 -22t21.5 -51zM793 159q0 -29 -22 -51t-52 -22q-29 0 -51 22t-22 51t22 51t51 22q30 0 52 -22t22 -51z" />
    <glyph glyph-name="uni2235" unicode="&#x2235;" 
d="M315 522q0 -29 -22 -51t-52 -22q-29 0 -51 22t-22 51q0 30 22 52t51 22q30 0 52 -22t22 -52zM792 522q0 -29 -22 -51t-52 -22q-29 0 -51 22t-22 51q0 30 22 52t51 22q30 0 52 -22t22 -52zM553 131q0 -29 -22 -51t-51 -22t-51 22t-22 51q0 30 22 51.5t51 21.5t51 -21.5
t22 -51.5z" />
    <glyph glyph-name="similar" unicode="&#x223c;" horiz-adv-x="754" 
d="M706 450q-1 -47 -10.5 -93t-31.5 -82t-58.5 -58.5t-91.5 -22.5q-38 0 -67 10t-51.5 25.5t-40 35t-32.5 38.5q-20 25 -38.5 44t-40.5 19q-35 0 -57 -38t-26 -134h-113q1 48 11.5 94t33 82t59 57.5t89.5 21.5q36 0 64 -10t50 -25.5t39.5 -34.5t32.5 -37q22 -26 41.5 -44.5
t41.5 -18.5q78 0 83 171h113z" />
    <glyph glyph-name="uni223D" unicode="&#x223d;" horiz-adv-x="754" 
d="M161 450q5 -171 83 -171q22 0 41.5 18.5t41.5 44.5q15 18 32.5 37t39.5 34.5t50 25.5t64 10q53 0 89.5 -21.5t59 -57.5t33 -82t11.5 -94h-113q-4 96 -26 134t-57 38q-22 0 -40.5 -19t-38.5 -44q-15 -19 -32.5 -38.5t-40 -35t-51.5 -25.5t-67 -10q-55 0 -91.5 22.5
t-58.5 58.5t-31.5 82t-10.5 93h113z" />
    <glyph glyph-name="uni2252" unicode="&#x2252;" 
d="M357 572q0 -30 -22.5 -52.5t-52.5 -22.5q-15 0 -28.5 6t-24 16.5t-17 24t-6.5 28.5t6.5 29t17 24.5t24 16.5t28.5 6q30 0 52.5 -22.5t22.5 -53.5zM825 376h-691v81h691v-81zM825 205h-691v80h691v-80zM753 87q0 -30 -22.5 -52.5t-52.5 -22.5t-52.5 22.5t-22.5 52.5
t22.5 52.5t52.5 22.5t52.5 -22.5t22.5 -52.5z" />
    <glyph glyph-name="notequal" unicode="&#x2260;" 
d="M431 14h-132l63 174h-193v75h221l49 135h-270v75h297l64 176h132l-64 -176h194v-75h-221l-49 -135h270v-75h-298z" />
    <glyph glyph-name="equivalence" unicode="&#x2261;" 
d="M825 460h-691v82h691v-82zM825 289h-691v83h691v-83zM825 119h-691v82h691v-82z" />
    <glyph glyph-name="lessequal" unicode="&#x2264;" 
d="M762 144l-567 247v75l567 246v-91l-427 -192l427 -193v-92zM762 0h-567v75h567v-75z" />
    <glyph glyph-name="greaterequal" unicode="&#x2265;" 
d="M201 144v92l427 193l-427 192v91l567 -246v-75zM201 0v75h567v-75h-567z" />
    <glyph glyph-name="uni226A" unicode="&#x226a;" 
d="M862 -44l-507 307v75l507 306v-101l-397 -242l397 -243v-102zM607 -44l-507 307v75l507 306v-101l-397 -242l397 -243v-102z" />
    <glyph glyph-name="uni226B" unicode="&#x226b;" 
d="M100 -44v102l397 243l-397 242v101l507 -306v-75zM355 -44v102l397 243l-397 242v101l507 -306v-75z" />
    <glyph glyph-name="propersubset" unicode="&#x2282;" 
d="M204 336q0 -108 48.5 -166.5t154.5 -58.5h444v-102h-469q-69 0 -124 23.5t-93.5 66.5t-58.5 103t-20 134q0 73 20.5 133t60 103t98.5 66.5t136 23.5h450v-101h-444q-106 0 -154.5 -58t-48.5 -167z" />
    <glyph glyph-name="propersuperset" unicode="&#x2283;" 
d="M756 336q0 109 -48.5 167t-154.5 58h-444v101h449q78 0 137 -23.5t98.5 -66.5t60 -103t20.5 -133q0 -74 -20 -134t-58.5 -103t-93.5 -66.5t-125 -23.5h-468v102h444q106 0 154.5 58.5t48.5 166.5z" />
    <glyph glyph-name="reflexsubset" unicode="&#x2286;" 
d="M850 155h-469q-60 0 -111 18t-87.5 53t-57 86.5t-20.5 119.5t20.5 120t59 87t93 53t122.5 18h450v-102h-444q-42 0 -76.5 -9.5t-58.5 -30.5t-37 -54.5t-13 -81.5q0 -95 50 -135.5t135 -40.5h444v-101zM855 -58h-747v101h747v-101z" />
    <glyph glyph-name="reflexsuperset" unicode="&#x2287;" 
d="M110 155v101h444q42 0 76 9.5t58.5 30.5t37.5 54.5t13 81.5t-13 81.5t-37.5 54.5t-58.5 30.5t-76 9.5h-444v102h449q68 0 123 -18t93.5 -53t59 -87t20.5 -120t-20.5 -119.5t-57 -86.5t-87.5 -53t-112 -18h-468zM105 -58v101h747v-101h-747z" />
    <glyph glyph-name="uni2299" unicode="&#x2299;" 
d="M896 343q0 -87 -32.5 -161.5t-89 -130t-132 -87t-162.5 -31.5q-86 0 -162 31.5t-132.5 87t-89.5 130t-33 161.5q0 85 33 160t90 131t132.5 88t161.5 32q87 0 162.5 -31.5t132 -87t89 -130.5t32.5 -162zM831 343q0 74 -27 138t-74.5 111.5t-111.5 74.5t-138 27t-138 -27
t-111.5 -74.5t-74.5 -111.5t-27 -138q0 -75 27 -139t74 -111t111 -74t139 -27t139 27t111 74t74 111t27 139zM697 343q0 -45 -17 -84.5t-46 -68t-69 -45t-85 -16.5t-85 16.5t-69 45t-46 68t-17 84.5t17 84t46.5 68t69 45.5t84.5 16.5t85 -16.5t69 -45t46 -68t17 -84.5z" />
    <glyph glyph-name="uni2299" unicode="&#x25c9;" 
d="M896 343q0 -87 -32.5 -161.5t-89 -130t-132 -87t-162.5 -31.5q-86 0 -162 31.5t-132.5 87t-89.5 130t-33 161.5q0 85 33 160t90 131t132.5 88t161.5 32q87 0 162.5 -31.5t132 -87t89 -130.5t32.5 -162zM831 343q0 74 -27 138t-74.5 111.5t-111.5 74.5t-138 27t-138 -27
t-111.5 -74.5t-74.5 -111.5t-27 -138q0 -75 27 -139t74 -111t111 -74t139 -27t139 27t111 74t74 111t27 139zM697 343q0 -45 -17 -84.5t-46 -68t-69 -45t-85 -16.5t-85 16.5t-69 45t-46 68t-17 84.5t17 84t46.5 68t69 45.5t84.5 16.5t85 -16.5t69 -45t46 -68t17 -84.5z" />
    <glyph glyph-name="perpendicular" unicode="&#x22a5;" 
d="M142 89h282v515h112v-515h282v-91h-676v91z" />
    <glyph glyph-name="uni2312" unicode="&#x2312;" 
d="M660 241q-12 22 -28.5 41t-38.5 32.5t-49.5 21t-63.5 7.5q-69 0 -112 -28.5t-68 -73.5h-106q38 84 109 134t177 50q105 0 176.5 -50.5t109.5 -133.5h-106z" />
    <glyph glyph-name="uni2460" unicode="&#x2460;" 
d="M949 347q0 -97 -37 -182.5t-100.5 -149.5t-149 -101t-182.5 -37t-182.5 37t-149.5 101t-101 149.5t-37 182.5t37 182.5t101 149.5t149.5 101t182.5 37t182.5 -37t149 -101t100.5 -149.5t37 -182.5zM891 347q0 85 -32.5 161t-88 133t-130.5 90t-160 33t-160 -33
t-130.5 -90t-88 -133t-32.5 -161q0 -86 32.5 -161.5t88 -132.5t130.5 -90t160 -33t160 33t130.5 90t88 132.5t32.5 161.5zM660 63h-345v70h112v358h-112v63q27 0 49 0.5t38 7.5t26 23t13 47h110v-499h109v-70z" />
    <glyph glyph-name="uni2461" unicode="&#x2461;" 
d="M949 347q0 -97 -37 -182.5t-100.5 -149.5t-149 -101t-182.5 -37t-182.5 37t-149.5 101t-101 149.5t-37 182.5t37 182.5t101 149.5t149.5 101t182.5 37t182.5 -37t149 -101t100.5 -149.5t37 -182.5zM891 347q0 85 -32.5 161t-88 133t-130.5 90t-160 33t-160 -33
t-130.5 -90t-88 -133t-32.5 -161q0 -86 32.5 -161.5t88 -132.5t130.5 -90t160 -33t160 33t130.5 90t88 132.5t32.5 161.5zM688 63h-417v71q51 41 99.5 82t87 84t61.5 88t23 93q0 45 -21.5 69t-59.5 24q-36 0 -83.5 -12t-92.5 -39v77q15 8 36 15.5t44.5 13.5t48.5 10t49 4
q96 0 149.5 -43t53.5 -115q0 -49 -18 -93.5t-50 -87t-76.5 -84t-97.5 -84.5h264v-73z" />
    <glyph glyph-name="uni2462" unicode="&#x2462;" 
d="M949 347q0 -97 -37 -182.5t-100.5 -149.5t-149 -101t-182.5 -37t-182.5 37t-149.5 101t-101 149.5t-37 182.5t37 182.5t101 149.5t149.5 101t182.5 37t182.5 -37t149 -101t100.5 -149.5t37 -182.5zM891 347q0 85 -32.5 161t-88 133t-130.5 90t-160 33t-160 -33
t-130.5 -90t-88 -133t-32.5 -161q0 -86 32.5 -161.5t88 -132.5t130.5 -90t160 -33t160 33t130.5 90t88 132.5t32.5 161.5zM276 168q57 -25 103.5 -36t81.5 -11q51 0 75 33t24 84q0 58 -25 78.5t-76 20.5h-58v68h50q45 0 71 22.5t26 70.5q0 43 -22.5 59.5t-57.5 16.5
q-29 0 -72.5 -10t-103.5 -37v73q15 8 36 15.5t45 13.5t48.5 10t47.5 4q32 0 67.5 -6.5t65.5 -22.5t49.5 -42.5t19.5 -65.5q0 -42 -29 -76.5t-72 -51.5q51 -15 82.5 -51.5t31.5 -93.5q0 -46 -19.5 -80t-51 -56.5t-71.5 -33.5t-80 -11q-51 0 -101.5 13.5t-84.5 29.5v73z" />
    <glyph glyph-name="uni2463" unicode="&#x2463;" 
d="M949 347q0 -97 -37 -182.5t-100.5 -149.5t-149 -101t-182.5 -37t-182.5 37t-149.5 101t-101 149.5t-37 182.5t37 182.5t101 149.5t149.5 101t182.5 37t182.5 -37t149 -101t100.5 -149.5t37 -182.5zM891 347q0 85 -32.5 161t-88 133t-130.5 90t-160 33t-160 -33
t-130.5 -90t-88 -133t-32.5 -161q0 -86 32.5 -161.5t88 -132.5t130.5 -90t160 -33t160 33t130.5 90t88 132.5t32.5 161.5zM699 215h-76v-152h-124v152h-259v75l269 342h114v-334h76v-83zM347 298h152v193z" />
    <glyph glyph-name="uni2464" unicode="&#x2464;" 
d="M949 347q0 -97 -37 -182.5t-100.5 -149.5t-149 -101t-182.5 -37t-182.5 37t-149.5 101t-101 149.5t-37 182.5t37 182.5t101 149.5t149.5 101t182.5 37t182.5 -37t149 -101t100.5 -149.5t37 -182.5zM891 347q0 85 -32.5 161t-88 133t-130.5 90t-160 33t-160 -33
t-130.5 -90t-88 -133t-32.5 -161q0 -86 32.5 -161.5t88 -132.5t130.5 -90t160 -33t160 33t130.5 90t88 132.5t32.5 161.5zM682 249q0 -47 -18 -83t-49 -60t-71 -36t-85 -12q-51 0 -98.5 11.5t-82.5 27.5v74q57 -26 102 -35.5t78 -9.5q52 0 76.5 36t24.5 87q0 31 -8.5 52
t-24.5 33t-37.5 17t-48.5 5q-15 0 -32.5 -2t-36.5 -4.5t-36.5 -6l-32.5 -6.5v300h377v-73h-255v-142q10 1 18.5 1.5t16.5 0.5q43 0 83 -8.5t71 -29t50 -54t19 -83.5z" />
    <glyph glyph-name="uni2465" unicode="&#x2465;" 
d="M949 347q0 -97 -37 -182.5t-100.5 -149.5t-149 -101t-182.5 -37t-182.5 37t-149.5 101t-101 149.5t-37 182.5t37 182.5t101 149.5t149.5 101t182.5 37t182.5 -37t149 -101t100.5 -149.5t37 -182.5zM891 347q0 85 -32.5 161t-88 133t-130.5 90t-160 33t-160 -33
t-130.5 -90t-88 -133t-32.5 -161q0 -86 32.5 -161.5t88 -132.5t130.5 -90t160 -33t160 33t130.5 90t88 132.5t32.5 161.5zM697 248q0 -45 -17.5 -81t-47 -61.5t-68 -39.5t-81.5 -14q-60 0 -102 20t-68.5 54.5t-38.5 82t-12 103.5q0 73 17 133.5t52.5 104.5t90.5 68.5
t131 24.5q21 0 46.5 -5t44.5 -10v-76q-69 22 -102 22q-63 0 -100.5 -42.5t-48.5 -118.5q20 8 44.5 13t55.5 5q43 0 80.5 -11.5t65 -34.5t43 -57.5t15.5 -79.5zM573 244q0 60 -23 89t-75 29q-41 0 -89 -23v-22q0 -28 2 -62t11.5 -64t29.5 -50t55 -20q42 0 65.5 31.5
t23.5 91.5z" />
    <glyph glyph-name="uni2466" unicode="&#x2466;" 
d="M949 347q0 -97 -37 -182.5t-100.5 -149.5t-149 -101t-182.5 -37t-182.5 37t-149.5 101t-101 149.5t-37 182.5t37 182.5t101 149.5t149.5 101t182.5 37t182.5 -37t149 -101t100.5 -149.5t37 -182.5zM891 347q0 85 -32.5 161t-88 133t-130.5 90t-160 33t-160 -33
t-130.5 -90t-88 -133t-32.5 -161q0 -86 32.5 -161.5t88 -132.5t130.5 -90t160 -33t160 33t130.5 90t88 132.5t32.5 161.5zM691 539l-248 -487h-125l254 497h-304v72h423v-82z" />
    <glyph glyph-name="uni2467" unicode="&#x2467;" 
d="M949 347q0 -97 -37 -182.5t-100.5 -149.5t-149 -101t-182.5 -37t-182.5 37t-149.5 101t-101 149.5t-37 182.5t37 182.5t101 149.5t149.5 101t182.5 37t182.5 -37t149 -101t100.5 -149.5t37 -182.5zM891 347q0 85 -32.5 161t-88 133t-130.5 90t-160 33t-160 -33
t-130.5 -90t-88 -133t-32.5 -161q0 -86 32.5 -161.5t88 -132.5t130.5 -90t160 -33t160 33t130.5 90t88 132.5t32.5 161.5zM365 369q-88 49 -88 123q0 38 19 66.5t49 47t66 28t69 9.5q46 0 84 -11t64.5 -30t41 -45.5t14.5 -57.5q0 -40 -23.5 -75t-68.5 -59q106 -46 106 -140
q0 -43 -19.5 -75.5t-51 -54t-70 -32.5t-77.5 -11q-50 0 -90 12.5t-68.5 35t-44 54t-15.5 69.5q0 43 26 82.5t77 63.5zM560 496q0 35 -22.5 56.5t-58.5 21.5q-34 0 -56 -20t-22 -53q0 -26 10 -43.5t26.5 -29.5t37 -20.5t41.5 -15.5q23 20 33.5 44.5t10.5 59.5zM572 218
q0 28 -8 46t-21.5 30t-31.5 19t-38 13q-9 3 -18.5 6t-17.5 8q-23 -16 -37 -44.5t-14 -67.5q0 -51 26 -79t68 -28t67 24.5t25 72.5z" />
    <glyph glyph-name="uni2468" unicode="&#x2468;" 
d="M949 347q0 -97 -37 -182.5t-100.5 -149.5t-149 -101t-182.5 -37t-182.5 37t-149.5 101t-101 149.5t-37 182.5t37 182.5t101 149.5t149.5 101t182.5 37t182.5 -37t149 -101t100.5 -149.5t37 -182.5zM891 347q0 85 -32.5 161t-88 133t-130.5 90t-160 33t-160 -33
t-130.5 -90t-88 -133t-32.5 -161q0 -86 32.5 -161.5t88 -132.5t130.5 -90t160 -33t160 33t130.5 90t88 132.5t32.5 161.5zM259 447q0 45 17 81.5t46.5 62t68 39t81.5 13.5q59 0 101 -20t69 -55t39.5 -83t12.5 -103q0 -72 -17 -133t-53 -104.5t-91.5 -68t-131.5 -24.5
q-20 0 -44.5 4.5t-44.5 10.5v75q67 -22 101 -22q63 0 101 42.5t49 120.5q-20 -9 -45 -14t-55 -5q-44 0 -81 11.5t-64.5 34.5t-43 57.5t-15.5 79.5zM382 450q0 -58 23 -88t75 -30q23 0 44 6.5t45 18.5v21q0 28 -2 62t-11.5 64t-29 50t-55.5 20q-42 0 -65.5 -30.5t-23.5 -93.5
z" />
    <glyph glyph-name="uni2469" unicode="&#x2469;" 
d="M949 347q0 -97 -37 -182.5t-100.5 -149.5t-149 -101t-182.5 -37t-182.5 37t-149.5 101t-101 149.5t-37 182.5t37 182.5t101 149.5t149.5 101t182.5 37t182.5 -37t149 -101t100.5 -149.5t37 -182.5zM446 63h-266q57 -61 133.5 -97t166.5 -36q85 0 160 33t130.5 90
t88 132.5t32.5 161.5q0 85 -32.5 161t-88 133t-130.5 90t-160 33t-160 -33t-130.5 -90t-88 -133t-32.5 -161q0 -75 24.5 -142.5t69.5 -121.5v50h82v358h-82v63q24 0 41 1.5t28 9t17 23t9 44.5h109v-499h79v-70zM819 348q0 -153 -50 -224.5t-144 -71.5t-142.5 71.5
t-48.5 223.5q0 153 48.5 224.5t142.5 71.5q97 0 145.5 -72.5t48.5 -222.5zM625 574q-24 0 -38 -25t-20.5 -61t-8 -75t-1.5 -66q0 -17 0.5 -54t6.5 -75.5t20 -67.5t41 -29q25 0 39 25t20.5 60t8 73t1.5 64q0 27 -1.5 66t-8 76t-20.5 63t-39 26z" />
    <glyph glyph-name="uni246A" unicode="&#x246a;" 
d="M949 347q0 -97 -37 -182.5t-100.5 -149.5t-149 -101t-182.5 -37t-182.5 37t-149.5 101t-101 149.5t-37 182.5t37 182.5t101 149.5t149.5 101t182.5 37t182.5 -37t149 -101t100.5 -149.5t37 -182.5zM891 347q0 85 -32.5 161t-88 133t-130.5 90t-160 33t-160 -33
t-130.5 -90t-88 -133t-32.5 -161q0 -86 32.5 -161.5t88 -132.5t130.5 -90t160 -33q90 0 166.5 36t133.5 97h-282v70h82v358h-82v63q24 0 41 1.5t28 9t17 23t9 44.5h109v-499h79v-69q51 57 80.5 129.5t29.5 153.5zM467 63h-283v70h82v358h-82v63q24 0 41 1.5t28 9t17 23
t9 44.5h109v-499h79v-70z" />
    <glyph glyph-name="uni246B" unicode="&#x246b;" 
d="M949 347q0 -97 -37 -182.5t-100.5 -149.5t-149 -101t-182.5 -37t-182.5 37t-149.5 101t-101 149.5t-37 182.5t37 182.5t101 149.5t149.5 101t182.5 37t182.5 -37t149 -101t100.5 -149.5t37 -182.5zM446 63h-266q57 -61 133.5 -97t166.5 -36t166.5 36t133.5 97h-324v71
q51 41 93 82t72.5 83.5t47 87.5t16.5 94q0 40 -19 66.5t-53 26.5t-66.5 -12t-77.5 -39v77q31 16 64.5 29.5t82.5 13.5q45 0 80.5 -12t60.5 -33t38 -50t13 -63q0 -98 -51 -180.5t-148 -168.5h200v-38q38 54 60 117t22 132q0 85 -32.5 161t-88 133t-130.5 90t-160 33t-160 -33
t-130.5 -90t-88 -133t-32.5 -161q0 -75 24.5 -142.5t69.5 -121.5v50h82v358h-82v63q24 0 41 1.5t28 9t17 23t9 44.5h109v-499h79v-70z" />
    <glyph glyph-name="uni246C" unicode="&#x246c;" 
d="M949 347q0 -97 -37 -182.5t-100.5 -149.5t-149 -101t-182.5 -37t-182.5 37t-149.5 101t-101 149.5t-37 182.5t37 182.5t101 149.5t149.5 101t182.5 37t182.5 -37t149 -101t100.5 -149.5t37 -182.5zM446 63h-266q57 -61 133.5 -97t166.5 -36q85 0 160 33t130.5 90
t88 132.5t32.5 161.5q0 85 -32.5 161t-88 133t-130.5 90t-160 33t-160 -33t-130.5 -90t-88 -133t-32.5 -161q0 -75 24.5 -142.5t69.5 -121.5v50h82v358h-82v63q24 0 41 1.5t28 9t17 23t9 44.5h109v-499h79v-70zM454 171q42 -26 80.5 -38t72.5 -12q25 0 42 9t27.5 24.5t15 37
t4.5 46.5q0 58 -24.5 78.5t-66.5 20.5h-57v68h50q35 0 61 22.5t26 70.5q0 43 -21 59.5t-49 16.5q-29 0 -64.5 -11.5t-80.5 -40.5v78q31 16 69 29.5t77 13.5q32 0 66 -6.5t61.5 -22.5t45.5 -42.5t18 -65.5q0 -42 -25 -76t-70 -52q52 -17 80 -52t28 -93q0 -46 -17.5 -80
t-47 -56.5t-68 -33.5t-79.5 -11q-22 0 -44 4t-42.5 10.5t-38 14t-29.5 14.5v76z" />
    <glyph glyph-name="uni246D" unicode="&#x246d;" 
d="M949 347q0 -97 -37 -182.5t-100.5 -149.5t-149 -101t-182.5 -37t-182.5 37t-149.5 101t-101 149.5t-37 182.5t37 182.5t101 149.5t149.5 101t182.5 37t182.5 -37t149 -101t100.5 -149.5t37 -182.5zM446 63h-266q57 -61 133.5 -97t166.5 -36q85 0 160 33t130.5 90
t88 132.5t32.5 161.5q0 85 -32.5 161t-88 133t-130.5 90t-160 33t-160 -33t-130.5 -90t-88 -133t-32.5 -161q0 -75 24.5 -142.5t69.5 -121.5v50h82v358h-82v63q24 0 41 1.5t28 9t17 23t9 44.5h109v-499h79v-70zM825 215h-67v-152h-123v152h-218v75l226 342h115v-334h67v-83z
M513 298h122v187z" />
    <glyph glyph-name="uni246E" unicode="&#x246e;" 
d="M949 347q0 -97 -37 -182.5t-100.5 -149.5t-149 -101t-182.5 -37t-182.5 37t-149.5 101t-101 149.5t-37 182.5t37 182.5t101 149.5t149.5 101t182.5 37t182.5 -37t149 -101t100.5 -149.5t37 -182.5zM795 559h-190v-141q5 0 10.5 0.5t12.5 0.5q34 0 68.5 -8.5t62 -29
t44.5 -54t17 -83.5q0 -47 -16 -83t-44 -60t-64.5 -36.5t-77.5 -12.5q-51 0 -88.5 11.5t-71.5 28.5v74q49 -27 87.5 -36t71.5 -9q43 0 62 35.5t19 87.5q0 32 -7 52.5t-19 32.5t-28 16.5t-35 4.5q-32 0 -64 -6t-64 -13v301h298q-57 61 -133 96.5t-166 35.5q-85 0 -160 -33
t-130.5 -90t-88 -133t-32.5 -161q0 -75 24.5 -142.5t69.5 -121.5v50h82v358h-82v63q24 0 41 1.5t28 9t17 23t9 44.5h109v-499h79v-70h-266q57 -61 133.5 -97t166.5 -36q85 0 160 33t130.5 90t88 132.5t32.5 161.5q0 75 -25 143t-70 123z" />
    <glyph glyph-name="uni2474" unicode="&#x2474;" 
d="M132 -155q-58 103 -90 227.5t-32 268.5q0 147 32 270t90 226h96q-32 -48 -56.5 -106t-41.5 -122t-25.5 -132t-8.5 -136q0 -64 8.5 -132.5t25.5 -134t41.5 -124.5t56.5 -105h-96zM732 -155q32 46 56.5 105t41.5 124.5t25.5 134t8.5 132.5q0 68 -8.5 136t-25.5 132
t-41.5 122t-56.5 106h96q58 -103 90 -226t32 -270q0 -144 -32 -268.5t-90 -227.5h-96zM660 63h-345v70h112v358h-112v63q27 0 49 0.5t38 7.5t26 23t13 47h110v-499h109v-70z" />
    <glyph glyph-name="uni2475" unicode="&#x2475;" 
d="M132 -155q-58 103 -90 227.5t-32 268.5q0 147 32 270t90 226h96q-32 -48 -56.5 -106t-41.5 -122t-25.5 -132t-8.5 -136q0 -64 8.5 -132.5t25.5 -134t41.5 -124.5t56.5 -105h-96zM732 -155q32 46 56.5 105t41.5 124.5t25.5 134t8.5 132.5q0 68 -8.5 136t-25.5 132
t-41.5 122t-56.5 106h96q58 -103 90 -226t32 -270q0 -144 -32 -268.5t-90 -227.5h-96zM688 63h-417v71q51 41 99.5 82t87 84t61.5 88t23 93q0 45 -21.5 69t-59.5 24q-36 0 -83.5 -12t-92.5 -39v77q15 8 36 15.5t44.5 13.5t48.5 10t49 4q96 0 149.5 -43t53.5 -115
q0 -49 -18 -93.5t-50 -87t-76.5 -84t-97.5 -84.5h264v-73z" />
    <glyph glyph-name="uni2476" unicode="&#x2476;" 
d="M132 -155q-58 103 -90 227.5t-32 268.5q0 147 32 270t90 226h96q-32 -48 -56.5 -106t-41.5 -122t-25.5 -132t-8.5 -136q0 -64 8.5 -132.5t25.5 -134t41.5 -124.5t56.5 -105h-96zM732 -155q32 46 56.5 105t41.5 124.5t25.5 134t8.5 132.5q0 68 -8.5 136t-25.5 132
t-41.5 122t-56.5 106h96q58 -103 90 -226t32 -270q0 -144 -32 -268.5t-90 -227.5h-96zM276 168q57 -25 103.5 -36t81.5 -11q51 0 75 33t24 84q0 58 -25 78.5t-76 20.5h-58v68h50q45 0 71 22.5t26 70.5q0 43 -22.5 59.5t-57.5 16.5q-29 0 -72.5 -10t-103.5 -37v73
q15 8 36 15.5t45 13.5t48.5 10t47.5 4q32 0 67.5 -6.5t65.5 -22.5t49.5 -42.5t19.5 -65.5q0 -42 -29 -76.5t-72 -51.5q51 -15 82.5 -51.5t31.5 -93.5q0 -46 -19.5 -80t-51 -56.5t-71.5 -33.5t-80 -11q-51 0 -101.5 13.5t-84.5 29.5v73z" />
    <glyph glyph-name="uni2477" unicode="&#x2477;" 
d="M132 -155q-58 103 -90 227.5t-32 268.5q0 147 32 270t90 226h96q-32 -48 -56.5 -106t-41.5 -122t-25.5 -132t-8.5 -136q0 -64 8.5 -132.5t25.5 -134t41.5 -124.5t56.5 -105h-96zM732 -155q32 46 56.5 105t41.5 124.5t25.5 134t8.5 132.5q0 68 -8.5 136t-25.5 132
t-41.5 122t-56.5 106h96q58 -103 90 -226t32 -270q0 -144 -32 -268.5t-90 -227.5h-96zM699 215h-76v-152h-124v152h-259v75l269 342h114v-334h76v-83zM347 298h152v193z" />
    <glyph glyph-name="uni2478" unicode="&#x2478;" 
d="M132 -155q-58 103 -90 227.5t-32 268.5q0 147 32 270t90 226h96q-32 -48 -56.5 -106t-41.5 -122t-25.5 -132t-8.5 -136q0 -64 8.5 -132.5t25.5 -134t41.5 -124.5t56.5 -105h-96zM732 -155q32 46 56.5 105t41.5 124.5t25.5 134t8.5 132.5q0 68 -8.5 136t-25.5 132
t-41.5 122t-56.5 106h96q58 -103 90 -226t32 -270q0 -144 -32 -268.5t-90 -227.5h-96zM682 249q0 -47 -18 -83t-49 -60t-71 -36t-85 -12q-51 0 -98.5 11.5t-82.5 27.5v74q57 -26 102 -35.5t78 -9.5q52 0 76.5 36t24.5 87q0 31 -8.5 52t-24.5 33t-37.5 17t-48.5 5
q-15 0 -32.5 -2t-36.5 -4.5t-36.5 -6l-32.5 -6.5v300h377v-73h-255v-142q10 1 18.5 1.5t16.5 0.5q43 0 83 -8.5t71 -29t50 -54t19 -83.5z" />
    <glyph glyph-name="uni2479" unicode="&#x2479;" 
d="M132 -155q-58 103 -90 227.5t-32 268.5q0 147 32 270t90 226h96q-32 -48 -56.5 -106t-41.5 -122t-25.5 -132t-8.5 -136q0 -64 8.5 -132.5t25.5 -134t41.5 -124.5t56.5 -105h-96zM732 -155q32 46 56.5 105t41.5 124.5t25.5 134t8.5 132.5q0 68 -8.5 136t-25.5 132
t-41.5 122t-56.5 106h96q58 -103 90 -226t32 -270q0 -144 -32 -268.5t-90 -227.5h-96zM697 248q0 -45 -17.5 -81t-47 -61.5t-68 -39.5t-81.5 -14q-60 0 -102 20t-68.5 54.5t-38.5 82t-12 103.5q0 73 17 133.5t52.5 104.5t90.5 68.5t131 24.5q21 0 46.5 -5t44.5 -10v-76
q-69 22 -102 22q-63 0 -100.5 -42.5t-48.5 -118.5q20 8 44.5 13t55.5 5q43 0 80.5 -11.5t65 -34.5t43 -57.5t15.5 -79.5zM573 244q0 60 -23 89t-75 29q-41 0 -89 -23v-22q0 -28 2 -62t11.5 -64t29.5 -50t55 -20q42 0 65.5 31.5t23.5 91.5z" />
    <glyph glyph-name="uni247A" unicode="&#x247a;" 
d="M132 -155q-58 103 -90 227.5t-32 268.5q0 147 32 270t90 226h96q-32 -48 -56.5 -106t-41.5 -122t-25.5 -132t-8.5 -136q0 -64 8.5 -132.5t25.5 -134t41.5 -124.5t56.5 -105h-96zM732 -155q32 46 56.5 105t41.5 124.5t25.5 134t8.5 132.5q0 68 -8.5 136t-25.5 132
t-41.5 122t-56.5 106h96q58 -103 90 -226t32 -270q0 -144 -32 -268.5t-90 -227.5h-96zM691 539l-248 -487h-125l254 497h-304v72h423v-82z" />
    <glyph glyph-name="uni247B" unicode="&#x247b;" 
d="M132 -155q-58 103 -90 227.5t-32 268.5q0 147 32 270t90 226h96q-32 -48 -56.5 -106t-41.5 -122t-25.5 -132t-8.5 -136q0 -64 8.5 -132.5t25.5 -134t41.5 -124.5t56.5 -105h-96zM732 -155q32 46 56.5 105t41.5 124.5t25.5 134t8.5 132.5q0 68 -8.5 136t-25.5 132
t-41.5 122t-56.5 106h96q58 -103 90 -226t32 -270q0 -144 -32 -268.5t-90 -227.5h-96zM365 369q-88 49 -88 123q0 38 19 66.5t49 47t66 28t69 9.5q46 0 84 -11t64.5 -30t41 -45.5t14.5 -57.5q0 -40 -23.5 -75t-68.5 -59q106 -46 106 -140q0 -43 -19.5 -75.5t-51 -54
t-70 -32.5t-77.5 -11q-50 0 -90 12.5t-68.5 35t-44 54t-15.5 69.5q0 43 26 82.5t77 63.5zM560 496q0 35 -22.5 56.5t-58.5 21.5q-34 0 -56 -20t-22 -53q0 -26 10 -43.5t26.5 -29.5t37 -20.5t41.5 -15.5q23 20 33.5 44.5t10.5 59.5zM572 218q0 28 -8 46t-21.5 30t-31.5 19
t-38 13q-9 3 -18.5 6t-17.5 8q-23 -16 -37 -44.5t-14 -67.5q0 -51 26 -79t68 -28t67 24.5t25 72.5z" />
    <glyph glyph-name="uni247C" unicode="&#x247c;" 
d="M132 -155q-58 103 -90 227.5t-32 268.5q0 147 32 270t90 226h96q-32 -48 -56.5 -106t-41.5 -122t-25.5 -132t-8.5 -136q0 -64 8.5 -132.5t25.5 -134t41.5 -124.5t56.5 -105h-96zM732 -155q32 46 56.5 105t41.5 124.5t25.5 134t8.5 132.5q0 68 -8.5 136t-25.5 132
t-41.5 122t-56.5 106h96q58 -103 90 -226t32 -270q0 -144 -32 -268.5t-90 -227.5h-96zM259 447q0 45 17 81.5t46.5 62t68 39t81.5 13.5q59 0 101 -20t69 -55t39.5 -83t12.5 -103q0 -72 -17 -133t-53 -104.5t-91.5 -68t-131.5 -24.5q-20 0 -44.5 4.5t-44.5 10.5v75
q67 -22 101 -22q63 0 101 42.5t49 120.5q-20 -9 -45 -14t-55 -5q-44 0 -81 11.5t-64.5 34.5t-43 57.5t-15.5 79.5zM382 450q0 -58 23 -88t75 -30q23 0 44 6.5t45 18.5v21q0 28 -2 62t-11.5 64t-29 50t-55.5 20q-42 0 -65.5 -30.5t-23.5 -93.5z" />
    <glyph glyph-name="uni247D" unicode="&#x247d;" 
d="M132 -155q-58 103 -90 227.5t-32 268.5q0 147 32 270t90 226h96q-32 -48 -56.5 -106t-41.5 -122t-25.5 -132t-8.5 -136q0 -64 8.5 -132.5t25.5 -134t41.5 -124.5t56.5 -105h-96zM732 -155q32 46 56.5 105t41.5 124.5t25.5 134t8.5 132.5q0 68 -8.5 136t-25.5 132
t-41.5 122t-56.5 106h96q58 -103 90 -226t32 -270q0 -144 -32 -268.5t-90 -227.5h-96zM819 348q0 -153 -50 -224.5t-144 -71.5t-142.5 71.5t-48.5 223.5q0 153 48.5 224.5t142.5 71.5q97 0 145.5 -72.5t48.5 -222.5zM446 63h-283v70h82v358h-82v63q24 0 41 1.5t28 9t17 23
t9 44.5h109v-499h79v-70zM625 574q-24 0 -38 -25t-20.5 -61t-8 -75t-1.5 -66q0 -17 0.5 -54t6.5 -75.5t20 -67.5t41 -29q25 0 39 25t20.5 60t8 73t1.5 64q0 27 -1.5 66t-8 76t-20.5 63t-39 26z" />
    <glyph glyph-name="uni247E" unicode="&#x247e;" 
d="M132 -155q-58 103 -90 227.5t-32 268.5q0 147 32 270t90 226h96q-32 -48 -56.5 -106t-41.5 -122t-25.5 -132t-8.5 -136q0 -64 8.5 -132.5t25.5 -134t41.5 -124.5t56.5 -105h-96zM732 -155q32 46 56.5 105t41.5 124.5t25.5 134t8.5 132.5q0 68 -8.5 136t-25.5 132
t-41.5 122t-56.5 106h96q58 -103 90 -226t32 -270q0 -144 -32 -268.5t-90 -227.5h-96zM467 63h-283v70h82v358h-82v63q24 0 41 1.5t28 9t17 23t9 44.5h109v-499h79v-70zM781 63h-283v70h82v358h-82v63q24 0 41 1.5t28 9t17 23t9 44.5h109v-499h79v-70z" />
    <glyph glyph-name="uni247F" unicode="&#x247f;" 
d="M132 -155q-58 103 -90 227.5t-32 268.5q0 147 32 270t90 226h96q-32 -48 -56.5 -106t-41.5 -122t-25.5 -132t-8.5 -136q0 -64 8.5 -132.5t25.5 -134t41.5 -124.5t56.5 -105h-96zM732 -155q32 46 56.5 105t41.5 124.5t25.5 134t8.5 132.5q0 68 -8.5 136t-25.5 132
t-41.5 122t-56.5 106h96q58 -103 90 -226t32 -270q0 -144 -32 -268.5t-90 -227.5h-96zM809 63h-353v71q51 41 93 82t72.5 83.5t47 87.5t16.5 94q0 40 -19 66.5t-53 26.5t-66.5 -12t-77.5 -39v77q31 16 64.5 29.5t82.5 13.5q45 0 80.5 -12t60.5 -33t38 -50t13 -63
q0 -98 -51 -180.5t-148 -168.5h200v-73zM446 63h-283v70h82v358h-82v63q24 0 41 1.5t28 9t17 23t9 44.5h109v-499h79v-70z" />
    <glyph glyph-name="uni2480" unicode="&#x2480;" 
d="M132 -155q-58 103 -90 227.5t-32 268.5q0 147 32 270t90 226h96q-32 -48 -56.5 -106t-41.5 -122t-25.5 -132t-8.5 -136q0 -64 8.5 -132.5t25.5 -134t41.5 -124.5t56.5 -105h-96zM732 -155q32 46 56.5 105t41.5 124.5t25.5 134t8.5 132.5q0 68 -8.5 136t-25.5 132
t-41.5 122t-56.5 106h96q58 -103 90 -226t32 -270q0 -144 -32 -268.5t-90 -227.5h-96zM454 171q42 -26 80.5 -38t72.5 -12q25 0 42 9t27.5 24.5t15 37t4.5 46.5q0 58 -24.5 78.5t-66.5 20.5h-57v68h50q35 0 61 22.5t26 70.5q0 43 -21 59.5t-49 16.5q-29 0 -64.5 -11.5
t-80.5 -40.5v78q31 16 69 29.5t77 13.5q32 0 66 -6.5t61.5 -22.5t45.5 -42.5t18 -65.5q0 -42 -25 -76t-70 -52q52 -17 80 -52t28 -93q0 -46 -17.5 -80t-47 -56.5t-68 -33.5t-79.5 -11q-22 0 -44 4t-42.5 10.5t-38 14t-29.5 14.5v76zM446 63h-283v70h82v358h-82v63
q24 0 41 1.5t28 9t17 23t9 44.5h109v-499h79v-70z" />
    <glyph glyph-name="uni2481" unicode="&#x2481;" 
d="M132 -155q-58 103 -90 227.5t-32 268.5q0 147 32 270t90 226h96q-32 -48 -56.5 -106t-41.5 -122t-25.5 -132t-8.5 -136q0 -64 8.5 -132.5t25.5 -134t41.5 -124.5t56.5 -105h-96zM732 -155q32 46 56.5 105t41.5 124.5t25.5 134t8.5 132.5q0 68 -8.5 136t-25.5 132
t-41.5 122t-56.5 106h96q58 -103 90 -226t32 -270q0 -144 -32 -268.5t-90 -227.5h-96zM825 215h-67v-152h-123v152h-218v75l226 342h115v-334h67v-83zM446 63h-283v70h82v358h-82v63q24 0 41 1.5t28 9t17 23t9 44.5h109v-499h79v-70zM513 298h122v187z" />
    <glyph glyph-name="uni2482" unicode="&#x2482;" 
d="M132 -155q-58 103 -90 227.5t-32 268.5q0 147 32 270t90 226h96q-32 -48 -56.5 -106t-41.5 -122t-25.5 -132t-8.5 -136q0 -64 8.5 -132.5t25.5 -134t41.5 -124.5t56.5 -105h-96zM732 -155q32 46 56.5 105t41.5 124.5t25.5 134t8.5 132.5q0 68 -8.5 136t-25.5 132
t-41.5 122t-56.5 106h96q58 -103 90 -226t32 -270q0 -144 -32 -268.5t-90 -227.5h-96zM795 559h-190v-141q5 0 10.5 0.5t12.5 0.5q34 0 68.5 -8.5t62 -29t44.5 -54t17 -83.5q0 -47 -16 -83t-44 -60t-64.5 -36.5t-77.5 -12.5q-51 0 -88.5 11.5t-71.5 28.5v74q49 -27 87.5 -36
t71.5 -9q43 0 62 35.5t19 87.5q0 32 -7 52.5t-19 32.5t-28 16.5t-35 4.5q-32 0 -64 -6t-64 -13v301h315zM446 63h-283v70h82v358h-82v63q24 0 41 1.5t28 9t17 23t9 44.5h109v-499h79v-70z" />
    <glyph glyph-name="uni249C" unicode="&#x249c;" 
d="M132 -155q-58 103 -90 227.5t-32 268.5q0 147 32 270t90 226h96q-32 -48 -56.5 -106t-41.5 -122t-25.5 -132t-8.5 -136q0 -64 8.5 -132.5t25.5 -134t41.5 -124.5t56.5 -105h-96zM732 -155q32 46 56.5 105t41.5 124.5t25.5 134t8.5 132.5q0 68 -8.5 136t-25.5 132
t-41.5 122t-56.5 106h96q58 -103 90 -226t32 -270q0 -144 -32 -268.5t-90 -227.5h-96zM666 130h-124v16q-27 -14 -54 -21t-65 -7q-30 0 -59 9.5t-51 27t-35.5 43t-13.5 57.5q0 53 28.5 84t70.5 47.5t90.5 22.5t88.5 9v6q0 24 -6 39.5t-17 24t-26 11.5t-34 3q-23 0 -68 -10
t-92 -27v79q12 4 31 8.5t40.5 9t44.5 7.5t44 3q37 0 74 -6.5t66.5 -23t48 -46t18.5 -75.5v-291zM542 347q-25 -1 -51.5 -4t-48.5 -11.5t-36.5 -25.5t-14.5 -46q0 -73 56 -73q24 0 47.5 12.5t47.5 29.5v118z" />
    <glyph glyph-name="uni249D" unicode="&#x249d;" 
d="M132 -155q-58 103 -90 227.5t-32 268.5q0 147 32 270t90 226h96q-32 -48 -56.5 -106t-41.5 -122t-25.5 -132t-8.5 -136q0 -64 8.5 -132.5t25.5 -134t41.5 -124.5t56.5 -105h-96zM732 -155q32 46 56.5 105t41.5 124.5t25.5 134t8.5 132.5q0 68 -8.5 136t-25.5 132
t-41.5 122t-56.5 106h96q58 -103 90 -226t32 -270q0 -144 -32 -268.5t-90 -227.5h-96zM297 602q0 12 -2 23.5t-11 23.5h89q47 0 47 -29v-158q23 14 49.5 24.5t58.5 10.5q85 0 134.5 -57t49.5 -165q0 -46 -14 -87.5t-40.5 -73t-65.5 -50.5t-88 -19q-29 0 -49 8t-39 20v-16
h-119v545zM588 273q0 155 -78 155q-20 0 -43 -10.5t-47 -29.5v-253q21 -11 37.5 -16t33.5 -5q45 0 71 38.5t26 120.5z" />
    <glyph glyph-name="uni249E" unicode="&#x249e;" 
d="M132 -155q-58 103 -90 227.5t-32 268.5q0 147 32 270t90 226h96q-32 -48 -56.5 -106t-41.5 -122t-25.5 -132t-8.5 -136q0 -64 8.5 -132.5t25.5 -134t41.5 -124.5t56.5 -105h-96zM732 -155q32 46 56.5 105t41.5 124.5t25.5 134t8.5 132.5q0 68 -8.5 136t-25.5 132
t-41.5 122t-56.5 106h96q58 -103 90 -226t32 -270q0 -144 -32 -268.5t-90 -227.5h-96zM649 164q-42 -21 -78 -33t-78 -12q-109 0 -167 60t-58 166q0 52 16 94t45.5 71.5t71 45.5t92.5 16q42 0 81.5 -12.5t74.5 -31.5v-77q-51 35 -87 43t-65 8q-48 0 -76 -39t-28 -118
q0 -76 28 -116t76 -40q29 0 63.5 9t88.5 41v-75z" />
    <glyph glyph-name="uni249F" unicode="&#x249f;" 
d="M132 -155q-58 103 -90 227.5t-32 268.5q0 147 32 270t90 226h96q-32 -48 -56.5 -106t-41.5 -122t-25.5 -132t-8.5 -136q0 -64 8.5 -132.5t25.5 -134t41.5 -124.5t56.5 -105h-96zM732 -155q32 46 56.5 105t41.5 124.5t25.5 134t8.5 132.5q0 68 -8.5 136t-25.5 132
t-41.5 122t-56.5 106h96q58 -103 90 -226t32 -270q0 -144 -32 -268.5t-90 -227.5h-96zM543 588q0 9 -2 28t-16 33h96q24 0 34.5 -6.5t10.5 -22.5v-563h-123v26q-22 -18 -48 -28t-57 -10q-87 0 -137 58.5t-50 164.5q0 46 14.5 87.5t42 72.5t66 49.5t86.5 18.5q25 0 45 -5.5
t38 -13.5v111zM543 412q-21 8 -38 12t-34 4q-46 0 -71 -41.5t-25 -116.5q0 -78 18 -116.5t60 -38.5q43 0 90 41v256z" />
    <glyph glyph-name="uni24A0" unicode="&#x24a0;" 
d="M132 -155q-58 103 -90 227.5t-32 268.5q0 147 32 270t90 226h96q-32 -48 -56.5 -106t-41.5 -122t-25.5 -132t-8.5 -136q0 -64 8.5 -132.5t25.5 -134t41.5 -124.5t56.5 -105h-96zM732 -155q32 46 56.5 105t41.5 124.5t25.5 134t8.5 132.5q0 68 -8.5 136t-25.5 132
t-41.5 122t-56.5 106h96q58 -103 90 -226t32 -270q0 -144 -32 -268.5t-90 -227.5h-96zM681 327h-302q1 -60 29.5 -100t88.5 -40q42 0 83 13t93 39v-78q-42 -17 -86 -30t-89 -13q-114 0 -176.5 58t-62.5 166q0 51 15.5 93.5t44.5 72.5t70 47t93 17q94 0 146.5 -51.5
t52.5 -145.5v-48zM561 397q-3 105 -83 105q-42 0 -67 -30t-31 -75h181z" />
    <glyph glyph-name="uni24A1" unicode="&#x24a1;" 
d="M132 -155q-58 103 -90 227.5t-32 268.5q0 147 32 270t90 226h96q-32 -48 -56.5 -106t-41.5 -122t-25.5 -132t-8.5 -136q0 -64 8.5 -132.5t25.5 -134t41.5 -124.5t56.5 -105h-96zM732 -155q32 46 56.5 105t41.5 124.5t25.5 134t8.5 132.5q0 68 -8.5 136t-25.5 132
t-41.5 122t-56.5 106h96q58 -103 90 -226t32 -270q0 -144 -32 -268.5t-90 -227.5h-96zM643 563q-56 12 -92 12q-31 0 -41.5 -18.5t-10.5 -70.5v-11h117v-69h-117v-359h-123v359h-45v69h45v10q0 78 42.5 118.5t123.5 40.5q26 0 51 -3.5t50 -8.5v-69z" />
    <glyph glyph-name="uni24A2" unicode="&#x24a2;" 
d="M132 -155q-58 103 -90 227.5t-32 268.5q0 147 32 270t90 226h96q-32 -48 -56.5 -106t-41.5 -122t-25.5 -132t-8.5 -136q0 -64 8.5 -132.5t25.5 -134t41.5 -124.5t56.5 -105h-96zM732 -155q32 46 56.5 105t41.5 124.5t25.5 134t8.5 132.5q0 68 -8.5 136t-25.5 132
t-41.5 122t-56.5 106h96q58 -103 90 -226t32 -270q0 -144 -32 -268.5t-90 -227.5h-96zM676 258q0 -55 -13.5 -92.5t-41 -60.5t-69 -33t-96.5 -10q-74 0 -150 24v78q42 -15 82.5 -23.5t72.5 -8.5q51 0 71 24.5t21 75.5q-21 -14 -46 -21.5t-60 -7.5q-84 0 -135 54t-51 156
q0 46 14.5 86t41.5 70t65.5 47t86.5 17q29 0 50 -5.5t39 -13.5v7h118v-363zM553 547q-21 11 -39 14.5t-33 3.5q-45 0 -71.5 -38.5t-26.5 -111.5q0 -144 80 -144q22 0 45 8.5t45 26.5v241z" />
    <glyph glyph-name="uni24A3" unicode="&#x24a3;" 
d="M132 -155q-58 103 -90 227.5t-32 268.5q0 147 32 270t90 226h96q-32 -48 -56.5 -106t-41.5 -122t-25.5 -132t-8.5 -136q0 -64 8.5 -132.5t25.5 -134t41.5 -124.5t56.5 -105h-96zM732 -155q32 46 56.5 105t41.5 124.5t25.5 134t8.5 132.5q0 68 -8.5 136t-25.5 132
t-41.5 122t-56.5 106h96q58 -103 90 -226t32 -270q0 -144 -32 -268.5t-90 -227.5h-96zM419 47h-123v532q0 15 -1.5 30.5t-11.5 29.5h91q23 0 34 -5.5t11 -22.5v-167q24 18 51.5 31t59.5 13q81 0 119.5 -42t38.5 -120v-279h-122v266q0 18 -1.5 37t-7 34t-17 25t-30.5 10
q-32 0 -91 -47v-325z" />
    <glyph glyph-name="uni24A4" unicode="&#x24a4;" 
d="M132 -155q-58 103 -90 227.5t-32 268.5q0 147 32 270t90 226h96q-32 -48 -56.5 -106t-41.5 -122t-25.5 -132t-8.5 -136q0 -64 8.5 -132.5t25.5 -134t41.5 -124.5t56.5 -105h-96zM732 -155q32 46 56.5 105t41.5 124.5t25.5 134t8.5 132.5q0 68 -8.5 136t-25.5 132
t-41.5 122t-56.5 106h96q58 -103 90 -226t32 -270q0 -144 -32 -268.5t-90 -227.5h-96zM413 565q0 26 20 44.5t48 18.5q29 0 49 -18.5t20 -44.5q0 -25 -20 -42.5t-49 -17.5q-28 0 -48 17.5t-20 42.5zM422 395q0 11 -1.5 28.5t-11.5 32.5h90q25 0 35.5 -7.5t10.5 -21.5v-379
h-123v347z" />
    <glyph glyph-name="uni24A5" unicode="&#x24a5;" 
d="M132 -155q-58 103 -90 227.5t-32 268.5q0 147 32 270t90 226h96q-32 -48 -56.5 -106t-41.5 -122t-25.5 -132t-8.5 -136q0 -64 8.5 -132.5t25.5 -134t41.5 -124.5t56.5 -105h-96zM732 -155q32 46 56.5 105t41.5 124.5t25.5 134t8.5 132.5q0 68 -8.5 136t-25.5 132
t-41.5 122t-56.5 106h96q58 -103 90 -226t32 -270q0 -144 -32 -268.5t-90 -227.5h-96zM444 640q0 26 20 44t49 18q27 0 47 -18t20 -44q0 -25 -20 -43t-47 -18q-29 0 -49 18t-20 43zM530 530q45 0 45 -28v-357q0 -75 -43 -114t-116 -39q-9 0 -22 1.5t-27.5 3.5t-28.5 5t-25 6
v74q28 -11 53 -15.5t35 -4.5q17 0 27 6.5t15.5 18t7 25.5t1.5 29v329q0 11 -1.5 28t-11.5 32h91z" />
    <glyph glyph-name="uni24A6" unicode="&#x24a6;" 
d="M132 -155q-58 103 -90 227.5t-32 268.5q0 147 32 270t90 226h96q-32 -48 -56.5 -106t-41.5 -122t-25.5 -132t-8.5 -136q0 -64 8.5 -132.5t25.5 -134t41.5 -124.5t56.5 -105h-96zM732 -155q32 46 56.5 105t41.5 124.5t25.5 134t8.5 132.5q0 68 -8.5 136t-25.5 132
t-41.5 122t-56.5 106h96q58 -103 90 -226t32 -270q0 -144 -32 -268.5t-90 -227.5h-96zM546 447q6 6 6 12q0 5 -6 16h106q17 0 26 -6t9 -14t-7 -15l-170 -166l214 -227h-144l-140 159l-24 -24v-135h-123v532q0 11 -1.5 28t-11.5 32h91q23 0 34 -5.5t11 -22.5v-302z" />
    <glyph glyph-name="uni24A7" unicode="&#x24a7;" 
d="M132 -155q-58 103 -90 227.5t-32 268.5q0 147 32 270t90 226h96q-32 -48 -56.5 -106t-41.5 -122t-25.5 -132t-8.5 -136q0 -64 8.5 -132.5t25.5 -134t41.5 -124.5t56.5 -105h-96zM732 -155q32 46 56.5 105t41.5 124.5t25.5 134t8.5 132.5q0 68 -8.5 136t-25.5 132
t-41.5 122t-56.5 106h96q58 -103 90 -226t32 -270q0 -144 -32 -268.5t-90 -227.5h-96zM548 47h-123v532q0 11 -1.5 28t-12.5 32h91q24 0 35 -5.5t11 -22.5v-564z" />
    <glyph glyph-name="uni24A8" unicode="&#x24a8;" 
d="M132 -155q-58 103 -90 227.5t-32 268.5q0 147 32 270t90 226h96q-32 -48 -56.5 -106t-41.5 -122t-25.5 -132t-8.5 -136q0 -64 8.5 -132.5t25.5 -134t41.5 -124.5t56.5 -105h-96zM732 -155q32 46 56.5 105t41.5 124.5t25.5 134t8.5 132.5q0 68 -8.5 136t-25.5 132
t-41.5 122t-56.5 106h96q58 -103 90 -226t32 -270q0 -144 -32 -268.5t-90 -227.5h-96zM404 565q39 0 70.5 -16t51.5 -45q32 29 63.5 45t68.5 16q66 0 108 -43t42 -119v-278h-123v265q0 18 -1.5 37t-7.5 34.5t-17.5 25.5t-30.5 10q-33 0 -79 -48q5 -25 5 -46v-278h-123v265
q0 18 -1.5 37t-7.5 34.5t-17.5 25.5t-30.5 10q-31 0 -74 -43v-329h-123v365q0 8 -1.5 28t-12.5 35h91q25 0 35.5 -7.5t10.5 -21.5v-1q48 42 104 42z" />
    <glyph glyph-name="uni24A9" unicode="&#x24a9;" 
d="M132 -155q-58 103 -90 227.5t-32 268.5q0 147 32 270t90 226h96q-32 -48 -56.5 -106t-41.5 -122t-25.5 -132t-8.5 -136q0 -64 8.5 -132.5t25.5 -134t41.5 -124.5t56.5 -105h-96zM732 -155q32 46 56.5 105t41.5 124.5t25.5 134t8.5 132.5q0 68 -8.5 136t-25.5 132
t-41.5 122t-56.5 106h96q58 -103 90 -226t32 -270q0 -144 -32 -268.5t-90 -227.5h-96zM409 125h-123v365q0 8 -1.5 28t-12.5 35h91q25 0 35.5 -7.5t10.5 -21.5v-1q26 21 52 31.5t58 10.5q81 0 120.5 -42t39.5 -120v-278h-123v265q0 18 -1.5 37t-7.5 34.5t-17.5 25.5
t-30.5 10q-17 0 -39 -11t-51 -35v-326z" />
    <glyph glyph-name="uni24AA" unicode="&#x24aa;" 
d="M132 -155q-58 103 -90 227.5t-32 268.5q0 147 32 270t90 226h96q-32 -48 -56.5 -106t-41.5 -122t-25.5 -132t-8.5 -136q0 -64 8.5 -132.5t25.5 -134t41.5 -124.5t56.5 -105h-96zM732 -155q32 46 56.5 105t41.5 124.5t25.5 134t8.5 132.5q0 68 -8.5 136t-25.5 132
t-41.5 122t-56.5 106h96q58 -103 90 -226t32 -270q0 -144 -32 -268.5t-90 -227.5h-96zM694 343q0 -52 -15 -93.5t-43 -71t-67 -45t-87 -15.5q-50 0 -89.5 15.5t-67.5 45t-43 71t-15 93.5t15 94.5t43 72.5t67.5 46.5t89.5 16.5q48 0 87 -16.5t67 -46.5t43 -72.5t15 -94.5z
M570 343q0 82 -23.5 121.5t-65.5 39.5q-91 0 -91 -161q0 -156 91 -156q42 0 65.5 37.5t23.5 118.5z" />
    <glyph glyph-name="uni24AB" unicode="&#x24ab;" 
d="M132 -155q-58 103 -90 227.5t-32 268.5q0 147 32 270t90 226h96q-32 -48 -56.5 -106t-41.5 -122t-25.5 -132t-8.5 -136q0 -64 8.5 -132.5t25.5 -134t41.5 -124.5t56.5 -105h-96zM732 -155q32 46 56.5 105t41.5 124.5t25.5 134t8.5 132.5q0 68 -8.5 136t-25.5 132
t-41.5 122t-56.5 106h96q58 -103 90 -226t32 -270q0 -144 -32 -268.5t-90 -227.5h-96zM420 58h-123v511q0 12 -2 23.5t-11 23.5h89q42 0 46 -22q24 16 52.5 26t56.5 10q85 0 134.5 -57t49.5 -165q0 -46 -14 -87.5t-40.5 -73t-65.5 -50.5t-88 -19q-27 0 -46.5 7.5t-37.5 18.5
v-146zM590 405q0 78 -17.5 116.5t-59.5 38.5q-18 0 -44 -10.5t-49 -25.5v-258q20 -9 39 -15t36 -6q45 0 70 38t25 122z" />
    <glyph glyph-name="uni24AC" unicode="&#x24ac;" 
d="M132 -155q-58 103 -90 227.5t-32 268.5q0 147 32 270t90 226h96q-32 -48 -56.5 -106t-41.5 -122t-25.5 -132t-8.5 -136q0 -64 8.5 -132.5t25.5 -134t41.5 -124.5t56.5 -105h-96zM732 -155q32 46 56.5 105t41.5 124.5t25.5 134t8.5 132.5q0 68 -8.5 136t-25.5 132
t-41.5 122t-56.5 106h96q58 -103 90 -226t32 -270q0 -144 -32 -268.5t-90 -227.5h-96zM544 617h121v-559h-123v159q-22 -18 -48 -28t-57 -10q-87 0 -137 58.5t-50 164.5q0 46 14.5 87.5t42 72.5t66 49.5t86.5 18.5q25 0 45 -5.5t38 -13.5zM542 546q-21 8 -38 12t-34 4
q-46 0 -71 -41.5t-25 -116.5q0 -78 18 -116.5t60 -38.5q43 0 90 41v256z" />
    <glyph glyph-name="uni24AD" unicode="&#x24ad;" 
d="M132 -155q-58 103 -90 227.5t-32 268.5q0 147 32 270t90 226h96q-32 -48 -56.5 -106t-41.5 -122t-25.5 -132t-8.5 -136q0 -64 8.5 -132.5t25.5 -134t41.5 -124.5t56.5 -105h-96zM732 -155q32 46 56.5 105t41.5 124.5t25.5 134t8.5 132.5q0 68 -8.5 136t-25.5 132
t-41.5 122t-56.5 106h96q58 -103 90 -226t32 -270q0 -144 -32 -268.5t-90 -227.5h-96zM456 125h-123v365q0 8 -1.5 28t-12.5 35h91q25 0 35.5 -7.5t10.5 -21.5v-9q49 37 109 37q12 0 28.5 -1.5t46.5 -7.5v-76q-20 5 -42.5 8.5t-45.5 3.5q-17 0 -42 -8t-54 -32v-314z" />
    <glyph glyph-name="uni24AE" unicode="&#x24ae;" 
d="M132 -155q-58 103 -90 227.5t-32 268.5q0 147 32 270t90 226h96q-32 -48 -56.5 -106t-41.5 -122t-25.5 -132t-8.5 -136q0 -64 8.5 -132.5t25.5 -134t41.5 -124.5t56.5 -105h-96zM732 -155q32 46 56.5 105t41.5 124.5t25.5 134t8.5 132.5q0 68 -8.5 136t-25.5 132
t-41.5 122t-56.5 106h96q58 -103 90 -226t32 -270q0 -144 -32 -268.5t-90 -227.5h-96zM665 254q0 -30 -14 -55t-40 -43t-63 -28t-83 -10q-51 0 -94.5 14.5t-75.5 31.5v76q60 -31 103 -42t73 -11q33 0 52 13.5t19 44.5q0 21 -7.5 33t-20.5 18.5t-29 9.5l-32 6
q-26 6 -53.5 13.5t-50.5 21t-38 35t-15 54.5q0 37 17.5 63t44.5 42.5t60.5 24t66.5 7.5q42 0 86 -12t75 -28v-76q-48 26 -89 36t-76 10q-27 0 -44.5 -14t-17.5 -43q0 -20 5.5 -31t15 -18t23 -10t28.5 -6q27 -6 58 -13t56.5 -20t42.5 -35.5t17 -58.5z" />
    <glyph glyph-name="uni24AF" unicode="&#x24af;" 
d="M132 -155q-58 103 -90 227.5t-32 268.5q0 147 32 270t90 226h96q-32 -48 -56.5 -106t-41.5 -122t-25.5 -132t-8.5 -136q0 -64 8.5 -132.5t25.5 -134t41.5 -124.5t56.5 -105h-96zM732 -155q32 46 56.5 105t41.5 124.5t25.5 134t8.5 132.5q0 68 -8.5 136t-25.5 132
t-41.5 122t-56.5 106h96q58 -103 90 -226t32 -270q0 -144 -32 -268.5t-90 -227.5h-96zM370 566q0 8 -1.5 28t-12.5 35h90q25 0 35.5 -8t10.5 -22v-91h138v-69h-138v-215q0 -15 1.5 -30.5t6.5 -28t14.5 -20.5t25.5 -8q17 0 39 5.5t40 10.5l11 3v-70q-27 -8 -57 -13t-51 -5
q-75 0 -113.5 35t-38.5 114v222h-47v69h47v58z" />
    <glyph glyph-name="uni24B0" unicode="&#x24b0;" 
d="M132 -155q-58 103 -90 227.5t-32 268.5q0 147 32 270t90 226h96q-32 -48 -56.5 -106t-41.5 -122t-25.5 -132t-8.5 -136q0 -64 8.5 -132.5t25.5 -134t41.5 -124.5t56.5 -105h-96zM732 -155q32 46 56.5 105t41.5 124.5t25.5 134t8.5 132.5q0 68 -8.5 136t-25.5 132
t-41.5 122t-56.5 106h96q58 -103 90 -226t32 -270q0 -144 -32 -268.5t-90 -227.5h-96zM409 287q0 -18 1.5 -36.5t7.5 -33.5t17 -25t30 -10q17 0 40.5 11t51.5 35v262q0 8 -1.5 28t-12.5 35h91q25 0 35.5 -7.5t10.5 -21.5v-399h-123v26q-27 -19 -54 -29t-57 -10
q-81 0 -120.5 43t-39.5 119v216q0 8 -1.5 28t-12.5 35h91q25 0 35.5 -7.5t10.5 -21.5v-237z" />
    <glyph glyph-name="uni24B1" unicode="&#x24b1;" 
d="M132 -155q-58 103 -90 227.5t-32 268.5q0 147 32 270t90 226h96q-32 -48 -56.5 -106t-41.5 -122t-25.5 -132t-8.5 -136q0 -64 8.5 -132.5t25.5 -134t41.5 -124.5t56.5 -105h-96zM732 -155q32 46 56.5 105t41.5 124.5t25.5 134t8.5 132.5q0 68 -8.5 136t-25.5 132
t-41.5 122t-56.5 106h96q58 -103 90 -226t32 -270q0 -144 -32 -268.5t-90 -227.5h-96zM351 553q20 0 27 -5t14 -24l91 -257l89 247q5 13 6.5 20.5t-9.5 18.5h99q38 0 25 -34l-155 -394h-113l-158 403q-2 5 -6 12.5t-12 12.5h102z" />
    <glyph glyph-name="uni24B2" unicode="&#x24b2;" 
d="M132 -155q-58 103 -90 227.5t-32 268.5q0 147 32 270t90 226h96q-32 -48 -56.5 -106t-41.5 -122t-25.5 -132t-8.5 -136q0 -64 8.5 -132.5t25.5 -134t41.5 -124.5t56.5 -105h-96zM732 -155q32 46 56.5 105t41.5 124.5t25.5 134t8.5 132.5q0 68 -8.5 136t-25.5 132
t-41.5 122t-56.5 106h96q58 -103 90 -226t32 -270q0 -144 -32 -268.5t-90 -227.5h-96zM507 553q20 0 27 -5t12 -25l64 -249l43 239q2 11 3.5 20t-4.5 20h95q27 0 27 -19q0 -3 -2 -13l-98 -396h-111l-80 296l-82 -296h-110l-102 404q-3 13 -17 24h101q19 0 26.5 -5.5
t11.5 -25.5l48 -249l62 244q3 11 3 18.5t-5 17.5h88z" />
    <glyph glyph-name="uni24B3" unicode="&#x24b3;" 
d="M132 -155q-58 103 -90 227.5t-32 268.5q0 147 32 270t90 226h96q-32 -48 -56.5 -106t-41.5 -122t-25.5 -132t-8.5 -136q0 -64 8.5 -132.5t25.5 -134t41.5 -124.5t56.5 -105h-96zM732 -155q32 46 56.5 105t41.5 124.5t25.5 134t8.5 132.5q0 68 -8.5 136t-25.5 132
t-41.5 122t-56.5 106h96q58 -103 90 -226t32 -270q0 -144 -32 -268.5t-90 -227.5h-96zM484 410l70 105q8 13 10.5 18.5t-5.5 19.5h101q26 0 26 -16q0 -7 -9 -19l-136 -174l161 -219h-129l-95 144l-97 -144h-122l160 213l-132 180q-5 6 -11 13.5t-20 21.5h103q17 0 27.5 -5.5
t21.5 -22.5z" />
    <glyph glyph-name="uni24B4" unicode="&#x24b4;" 
d="M132 -155q-58 103 -90 227.5t-32 268.5q0 147 32 270t90 226h96q-32 -48 -56.5 -106t-41.5 -122t-25.5 -132t-8.5 -136q0 -64 8.5 -132.5t25.5 -134t41.5 -124.5t56.5 -105h-96zM732 -155q32 46 56.5 105t41.5 124.5t25.5 134t8.5 132.5q0 68 -8.5 136t-25.5 132
t-41.5 122t-56.5 106h96q58 -103 90 -226t32 -270q0 -144 -32 -268.5t-90 -227.5h-96zM266 596q-2 5 -5 10t-11 10h102q20 0 27 -5t14 -23l90 -242l89 232q5 12 6.5 20t-8.5 18h99q21 0 26.5 -8.5t-1.5 -25.5l-218 -524h-120l66 155z" />
    <glyph glyph-name="uni24B5" unicode="&#x24b5;" 
d="M132 -155q-58 103 -90 227.5t-32 268.5q0 147 32 270t90 226h96q-32 -48 -56.5 -106t-41.5 -122t-25.5 -132t-8.5 -136q0 -64 8.5 -132.5t25.5 -134t41.5 -124.5t56.5 -105h-96zM732 -155q32 46 56.5 105t41.5 124.5t25.5 134t8.5 132.5q0 68 -8.5 136t-25.5 132
t-41.5 122t-56.5 106h96q58 -103 90 -226t32 -270q0 -144 -32 -268.5t-90 -227.5h-96zM669 131h-380v55l227 304h-221v69h368v-52l-227 -306h233v-70z" />
    <glyph glyph-name="uni24D0" unicode="&#x24d0;" 
d="M949 347q0 -97 -37 -182.5t-100.5 -149.5t-149 -101t-182.5 -37t-182.5 37t-149.5 101t-101 149.5t-37 182.5t37 182.5t101 149.5t149.5 101t182.5 37t182.5 -37t149 -101t100.5 -149.5t37 -182.5zM891 347q0 85 -32.5 161t-88 133t-130.5 90t-160 33t-160 -33
t-130.5 -90t-88 -133t-32.5 -161q0 -86 32.5 -161.5t88 -132.5t130.5 -90t160 -33t160 33t130.5 90t88 132.5t32.5 161.5zM666 130h-124v16q-27 -14 -54 -21t-65 -7q-30 0 -59 9.5t-51 27t-35.5 43t-13.5 57.5q0 53 28.5 84t70.5 47.5t90.5 22.5t88.5 9v6q0 24 -6 39.5
t-17 24t-26 11.5t-34 3q-23 0 -68 -10t-92 -27v79q12 4 31 8.5t40.5 9t44.5 7.5t44 3q37 0 74 -6.5t66.5 -23t48 -46t18.5 -75.5v-291zM542 347q-25 -1 -51.5 -4t-48.5 -11.5t-36.5 -25.5t-14.5 -46q0 -73 56 -73q24 0 47.5 12.5t47.5 29.5v118z" />
    <glyph glyph-name="uni24D1" unicode="&#x24d1;" 
d="M949 347q0 -97 -37 -182.5t-100.5 -149.5t-149 -101t-182.5 -37t-182.5 37t-149.5 101t-101 149.5t-37 182.5t37 182.5t101 149.5t149.5 101t182.5 37t182.5 -37t149 -101t100.5 -149.5t37 -182.5zM891 347q0 85 -32.5 161t-88 133t-130.5 90t-160 33t-160 -33
t-130.5 -90t-88 -133t-32.5 -161q0 -86 32.5 -161.5t88 -132.5t130.5 -90t160 -33t160 33t130.5 90t88 132.5t32.5 161.5zM297 602q0 12 -2 23.5t-11 23.5h89q47 0 47 -29v-158q23 14 49.5 24.5t58.5 10.5q85 0 134.5 -57t49.5 -165q0 -46 -14 -87.5t-40.5 -73t-65.5 -50.5
t-88 -19q-29 0 -49 8t-39 20v-16h-119v545zM588 273q0 155 -78 155q-20 0 -43 -10.5t-47 -29.5v-253q21 -11 37.5 -16t33.5 -5q45 0 71 38.5t26 120.5z" />
    <glyph glyph-name="uni24D2" unicode="&#x24d2;" 
d="M949 347q0 -97 -37 -182.5t-100.5 -149.5t-149 -101t-182.5 -37t-182.5 37t-149.5 101t-101 149.5t-37 182.5t37 182.5t101 149.5t149.5 101t182.5 37t182.5 -37t149 -101t100.5 -149.5t37 -182.5zM891 347q0 85 -32.5 161t-88 133t-130.5 90t-160 33t-160 -33
t-130.5 -90t-88 -133t-32.5 -161q0 -86 32.5 -161.5t88 -132.5t130.5 -90t160 -33t160 33t130.5 90t88 132.5t32.5 161.5zM649 164q-42 -21 -78 -33t-78 -12q-109 0 -167 60t-58 166q0 52 16 94t45.5 71.5t71 45.5t92.5 16q42 0 81.5 -12.5t74.5 -31.5v-77q-51 35 -87 43
t-65 8q-48 0 -76 -39t-28 -118q0 -76 28 -116t76 -40q29 0 63.5 9t88.5 41v-75z" />
    <glyph glyph-name="uni24D3" unicode="&#x24d3;" 
d="M949 347q0 -97 -37 -182.5t-100.5 -149.5t-149 -101t-182.5 -37t-182.5 37t-149.5 101t-101 149.5t-37 182.5t37 182.5t101 149.5t149.5 101t182.5 37t182.5 -37t149 -101t100.5 -149.5t37 -182.5zM891 347q0 85 -32.5 161t-88 133t-130.5 90t-160 33t-160 -33
t-130.5 -90t-88 -133t-32.5 -161q0 -86 32.5 -161.5t88 -132.5t130.5 -90t160 -33t160 33t130.5 90t88 132.5t32.5 161.5zM543 588q0 9 -2 28t-16 33h96q24 0 34.5 -6.5t10.5 -22.5v-563h-123v26q-22 -18 -48 -28t-57 -10q-87 0 -137 58.5t-50 164.5q0 46 14.5 87.5t42 72.5
t66 49.5t86.5 18.5q25 0 45 -5.5t38 -13.5v111zM543 412q-21 8 -38 12t-34 4q-46 0 -71 -41.5t-25 -116.5q0 -78 18 -116.5t60 -38.5q43 0 90 41v256z" />
    <glyph glyph-name="uni24D4" unicode="&#x24d4;" 
d="M949 347q0 -97 -37 -182.5t-100.5 -149.5t-149 -101t-182.5 -37t-182.5 37t-149.5 101t-101 149.5t-37 182.5t37 182.5t101 149.5t149.5 101t182.5 37t182.5 -37t149 -101t100.5 -149.5t37 -182.5zM891 347q0 85 -32.5 161t-88 133t-130.5 90t-160 33t-160 -33
t-130.5 -90t-88 -133t-32.5 -161q0 -86 32.5 -161.5t88 -132.5t130.5 -90t160 -33t160 33t130.5 90t88 132.5t32.5 161.5zM681 327h-302q1 -60 29.5 -100t88.5 -40q42 0 83 13t93 39v-78q-42 -17 -86 -30t-89 -13q-114 0 -176.5 58t-62.5 166q0 51 15.5 93.5t44.5 72.5
t70 47t93 17q94 0 146.5 -51.5t52.5 -145.5v-48zM561 397q-3 105 -83 105q-42 0 -67 -30t-31 -75h181z" />
    <glyph glyph-name="uni24D5" unicode="&#x24d5;" 
d="M949 347q0 -97 -37 -182.5t-100.5 -149.5t-149 -101t-182.5 -37t-182.5 37t-149.5 101t-101 149.5t-37 182.5t37 182.5t101 149.5t149.5 101t182.5 37t182.5 -37t149 -101t100.5 -149.5t37 -182.5zM891 347q0 85 -32.5 161t-88 133t-130.5 90t-160 33t-160 -33
t-130.5 -90t-88 -133t-32.5 -161q0 -86 32.5 -161.5t88 -132.5t130.5 -90t160 -33t160 33t130.5 90t88 132.5t32.5 161.5zM643 563q-56 12 -92 12q-31 0 -41.5 -18.5t-10.5 -70.5v-11h117v-69h-117v-359h-123v359h-45v69h45v10q0 78 42.5 118.5t123.5 40.5q26 0 51 -3.5
t50 -8.5v-69z" />
    <glyph glyph-name="uni24D6" unicode="&#x24d6;" 
d="M949 347q0 -97 -37 -182.5t-100.5 -149.5t-149 -101t-182.5 -37t-182.5 37t-149.5 101t-101 149.5t-37 182.5t37 182.5t101 149.5t149.5 101t182.5 37t182.5 -37t149 -101t100.5 -149.5t37 -182.5zM891 347q0 85 -32.5 161t-88 133t-130.5 90t-160 33t-160 -33
t-130.5 -90t-88 -133t-32.5 -161q0 -86 32.5 -161.5t88 -132.5t130.5 -90t160 -33t160 33t130.5 90t88 132.5t32.5 161.5zM676 258q0 -55 -13.5 -92.5t-41 -60.5t-69 -33t-96.5 -10q-74 0 -150 24v78q42 -15 82.5 -23.5t72.5 -8.5q51 0 71 24.5t21 75.5q-21 -14 -46 -21.5
t-60 -7.5q-84 0 -135 54t-51 156q0 46 14.5 86t41.5 70t65.5 47t86.5 17q29 0 50 -5.5t39 -13.5v7h118v-363zM553 547q-21 11 -39 14.5t-33 3.5q-45 0 -71.5 -38.5t-26.5 -111.5q0 -144 80 -144q22 0 45 8.5t45 26.5v241z" />
    <glyph glyph-name="uni24D7" unicode="&#x24d7;" 
d="M949 347q0 -97 -37 -182.5t-100.5 -149.5t-149 -101t-182.5 -37t-182.5 37t-149.5 101t-101 149.5t-37 182.5t37 182.5t101 149.5t149.5 101t182.5 37t182.5 -37t149 -101t100.5 -149.5t37 -182.5zM891 347q0 85 -32.5 161t-88 133t-130.5 90t-160 33t-160 -33
t-130.5 -90t-88 -133t-32.5 -161q0 -86 32.5 -161.5t88 -132.5t130.5 -90t160 -33t160 33t130.5 90t88 132.5t32.5 161.5zM419 47h-123v532q0 15 -1.5 30.5t-11.5 29.5h91q23 0 34 -5.5t11 -22.5v-167q24 18 51.5 31t59.5 13q81 0 119.5 -42t38.5 -120v-279h-122v266
q0 18 -1.5 37t-7 34t-17 25t-30.5 10q-32 0 -91 -47v-325z" />
    <glyph glyph-name="uni24D8" unicode="&#x24d8;" 
d="M949 347q0 -97 -37 -182.5t-100.5 -149.5t-149 -101t-182.5 -37t-182.5 37t-149.5 101t-101 149.5t-37 182.5t37 182.5t101 149.5t149.5 101t182.5 37t182.5 -37t149 -101t100.5 -149.5t37 -182.5zM891 347q0 85 -32.5 161t-88 133t-130.5 90t-160 33t-160 -33
t-130.5 -90t-88 -133t-32.5 -161q0 -86 32.5 -161.5t88 -132.5t130.5 -90t160 -33t160 33t130.5 90t88 132.5t32.5 161.5zM413 565q0 26 20 44.5t48 18.5q29 0 49 -18.5t20 -44.5q0 -25 -20 -42.5t-49 -17.5q-28 0 -48 17.5t-20 42.5zM422 395q0 11 -1.5 28.5t-11.5 32.5h90
q25 0 35.5 -7.5t10.5 -21.5v-379h-123v347z" />
    <glyph glyph-name="uni24D9" unicode="&#x24d9;" 
d="M949 347q0 -97 -37 -182.5t-100.5 -149.5t-149 -101t-182.5 -37t-182.5 37t-149.5 101t-101 149.5t-37 182.5t37 182.5t101 149.5t149.5 101t182.5 37t182.5 -37t149 -101t100.5 -149.5t37 -182.5zM891 347q0 85 -32.5 161t-88 133t-130.5 90t-160 33t-160 -33
t-130.5 -90t-88 -133t-32.5 -161q0 -86 32.5 -161.5t88 -132.5t130.5 -90t160 -33t160 33t130.5 90t88 132.5t32.5 161.5zM444 640q0 26 20 44t49 18q27 0 47 -18t20 -44q0 -25 -20 -43t-47 -18q-29 0 -49 18t-20 43zM530 530q45 0 45 -28v-357q0 -75 -43 -114t-116 -39
q-9 0 -22 1.5t-27.5 3.5t-28.5 5t-25 6v74q28 -11 53 -15.5t35 -4.5q17 0 27 6.5t15.5 18t7 25.5t1.5 29v329q0 11 -1.5 28t-11.5 32h91z" />
    <glyph glyph-name="uni24DA" unicode="&#x24da;" 
d="M949 347q0 -97 -37 -182.5t-100.5 -149.5t-149 -101t-182.5 -37t-182.5 37t-149.5 101t-101 149.5t-37 182.5t37 182.5t101 149.5t149.5 101t182.5 37t182.5 -37t149 -101t100.5 -149.5t37 -182.5zM891 347q0 85 -32.5 161t-88 133t-130.5 90t-160 33t-160 -33
t-130.5 -90t-88 -133t-32.5 -161q0 -86 32.5 -161.5t88 -132.5t130.5 -90t160 -33t160 33t130.5 90t88 132.5t32.5 161.5zM546 447q6 6 6 12q0 5 -6 16h106q17 0 26 -6t9 -14t-7 -15l-170 -166l214 -227h-144l-140 159l-24 -24v-135h-123v532q0 11 -1.5 28t-11.5 32h91
q23 0 34 -5.5t11 -22.5v-302z" />
    <glyph glyph-name="uni24DB" unicode="&#x24db;" 
d="M949 347q0 -97 -37 -182.5t-100.5 -149.5t-149 -101t-182.5 -37t-182.5 37t-149.5 101t-101 149.5t-37 182.5t37 182.5t101 149.5t149.5 101t182.5 37t182.5 -37t149 -101t100.5 -149.5t37 -182.5zM891 347q0 85 -32.5 161t-88 133t-130.5 90t-160 33t-160 -33
t-130.5 -90t-88 -133t-32.5 -161q0 -86 32.5 -161.5t88 -132.5t130.5 -90t160 -33t160 33t130.5 90t88 132.5t32.5 161.5zM548 47h-123v532q0 11 -1.5 28t-12.5 32h91q24 0 35 -5.5t11 -22.5v-564z" />
    <glyph glyph-name="uni24DC" unicode="&#x24dc;" 
d="M949 347q0 -97 -37 -182.5t-100.5 -149.5t-149 -101t-182.5 -37t-182.5 37t-149.5 101t-101 149.5t-37 182.5t37 182.5t101 149.5t149.5 101t182.5 37t182.5 -37t149 -101t100.5 -149.5t37 -182.5zM891 347q0 85 -32.5 161t-88 133t-130.5 90t-160 33t-160 -33
t-130.5 -90t-88 -133t-32.5 -161q0 -86 32.5 -161.5t88 -132.5t130.5 -90t160 -33t160 33t130.5 90t88 132.5t32.5 161.5zM404 565q39 0 70.5 -16t51.5 -45q32 29 63.5 45t68.5 16q66 0 108 -43t42 -119v-278h-123v265q0 18 -1.5 37t-7.5 34.5t-17.5 25.5t-30.5 10
q-33 0 -79 -48q5 -25 5 -46v-278h-123v265q0 18 -1.5 37t-7.5 34.5t-17.5 25.5t-30.5 10q-31 0 -74 -43v-329h-123v365q0 8 -1.5 28t-12.5 35h91q25 0 35.5 -7.5t10.5 -21.5v-1q48 42 104 42z" />
    <glyph glyph-name="uni24DD" unicode="&#x24dd;" 
d="M949 347q0 -97 -37 -182.5t-100.5 -149.5t-149 -101t-182.5 -37t-182.5 37t-149.5 101t-101 149.5t-37 182.5t37 182.5t101 149.5t149.5 101t182.5 37t182.5 -37t149 -101t100.5 -149.5t37 -182.5zM891 347q0 85 -32.5 161t-88 133t-130.5 90t-160 33t-160 -33
t-130.5 -90t-88 -133t-32.5 -161q0 -86 32.5 -161.5t88 -132.5t130.5 -90t160 -33t160 33t130.5 90t88 132.5t32.5 161.5zM409 125h-123v365q0 8 -1.5 28t-12.5 35h91q25 0 35.5 -7.5t10.5 -21.5v-1q26 21 52 31.5t58 10.5q81 0 120.5 -42t39.5 -120v-278h-123v265
q0 18 -1.5 37t-7.5 34.5t-17.5 25.5t-30.5 10q-17 0 -39 -11t-51 -35v-326z" />
    <glyph glyph-name="uni24DE" unicode="&#x24de;" 
d="M949 347q0 -97 -37 -182.5t-100.5 -149.5t-149 -101t-182.5 -37t-182.5 37t-149.5 101t-101 149.5t-37 182.5t37 182.5t101 149.5t149.5 101t182.5 37t182.5 -37t149 -101t100.5 -149.5t37 -182.5zM891 347q0 85 -32.5 161t-88 133t-130.5 90t-160 33t-160 -33
t-130.5 -90t-88 -133t-32.5 -161q0 -86 32.5 -161.5t88 -132.5t130.5 -90t160 -33t160 33t130.5 90t88 132.5t32.5 161.5zM694 343q0 -52 -15 -93.5t-43 -71t-67 -45t-87 -15.5q-50 0 -89.5 15.5t-67.5 45t-43 71t-15 93.5t15 94.5t43 72.5t67.5 46.5t89.5 16.5
q48 0 87 -16.5t67 -46.5t43 -72.5t15 -94.5zM570 343q0 82 -23.5 121.5t-65.5 39.5q-91 0 -91 -161q0 -156 91 -156q42 0 65.5 37.5t23.5 118.5z" />
    <glyph glyph-name="uni24DF" unicode="&#x24df;" 
d="M949 347q0 -97 -37 -182.5t-100.5 -149.5t-149 -101t-182.5 -37t-182.5 37t-149.5 101t-101 149.5t-37 182.5t37 182.5t101 149.5t149.5 101t182.5 37t182.5 -37t149 -101t100.5 -149.5t37 -182.5zM891 347q0 85 -32.5 161t-88 133t-130.5 90t-160 33t-160 -33
t-130.5 -90t-88 -133t-32.5 -161q0 -86 32.5 -161.5t88 -132.5t130.5 -90t160 -33t160 33t130.5 90t88 132.5t32.5 161.5zM420 58h-123v511q0 12 -2 23.5t-11 23.5h89q42 0 46 -22q24 16 52.5 26t56.5 10q85 0 134.5 -57t49.5 -165q0 -46 -14 -87.5t-40.5 -73t-65.5 -50.5
t-88 -19q-27 0 -46.5 7.5t-37.5 18.5v-146zM590 405q0 78 -17.5 116.5t-59.5 38.5q-18 0 -44 -10.5t-49 -25.5v-258q20 -9 39 -15t36 -6q45 0 70 38t25 122z" />
    <glyph glyph-name="uni24E0" unicode="&#x24e0;" 
d="M949 347q0 -97 -37 -182.5t-100.5 -149.5t-149 -101t-182.5 -37t-182.5 37t-149.5 101t-101 149.5t-37 182.5t37 182.5t101 149.5t149.5 101t182.5 37t182.5 -37t149 -101t100.5 -149.5t37 -182.5zM891 347q0 85 -32.5 161t-88 133t-130.5 90t-160 33t-160 -33
t-130.5 -90t-88 -133t-32.5 -161q0 -86 32.5 -161.5t88 -132.5t130.5 -90t160 -33t160 33t130.5 90t88 132.5t32.5 161.5zM544 617h121v-559h-123v159q-22 -18 -48 -28t-57 -10q-87 0 -137 58.5t-50 164.5q0 46 14.5 87.5t42 72.5t66 49.5t86.5 18.5q25 0 45 -5.5t38 -13.5z
M542 546q-21 8 -38 12t-34 4q-46 0 -71 -41.5t-25 -116.5q0 -78 18 -116.5t60 -38.5q43 0 90 41v256z" />
    <glyph glyph-name="uni24E1" unicode="&#x24e1;" 
d="M949 347q0 -97 -37 -182.5t-100.5 -149.5t-149 -101t-182.5 -37t-182.5 37t-149.5 101t-101 149.5t-37 182.5t37 182.5t101 149.5t149.5 101t182.5 37t182.5 -37t149 -101t100.5 -149.5t37 -182.5zM891 347q0 85 -32.5 161t-88 133t-130.5 90t-160 33t-160 -33
t-130.5 -90t-88 -133t-32.5 -161q0 -86 32.5 -161.5t88 -132.5t130.5 -90t160 -33t160 33t130.5 90t88 132.5t32.5 161.5zM456 125h-123v365q0 8 -1.5 28t-12.5 35h91q25 0 35.5 -7.5t10.5 -21.5v-9q49 37 109 37q12 0 28.5 -1.5t46.5 -7.5v-76q-20 5 -42.5 8.5t-45.5 3.5
q-17 0 -42 -8t-54 -32v-314z" />
    <glyph glyph-name="uni24E2" unicode="&#x24e2;" 
d="M949 347q0 -97 -37 -182.5t-100.5 -149.5t-149 -101t-182.5 -37t-182.5 37t-149.5 101t-101 149.5t-37 182.5t37 182.5t101 149.5t149.5 101t182.5 37t182.5 -37t149 -101t100.5 -149.5t37 -182.5zM891 347q0 85 -32.5 161t-88 133t-130.5 90t-160 33t-160 -33
t-130.5 -90t-88 -133t-32.5 -161q0 -86 32.5 -161.5t88 -132.5t130.5 -90t160 -33t160 33t130.5 90t88 132.5t32.5 161.5zM665 254q0 -30 -14 -55t-40 -43t-63 -28t-83 -10q-51 0 -94.5 14.5t-75.5 31.5v76q60 -31 103 -42t73 -11q33 0 52 13.5t19 44.5q0 21 -7.5 33
t-20.5 18.5t-29 9.5l-32 6q-26 6 -53.5 13.5t-50.5 21t-38 35t-15 54.5q0 37 17.5 63t44.5 42.5t60.5 24t66.5 7.5q42 0 86 -12t75 -28v-76q-48 26 -89 36t-76 10q-27 0 -44.5 -14t-17.5 -43q0 -20 5.5 -31t15 -18t23 -10t28.5 -6q27 -6 58 -13t56.5 -20t42.5 -35.5
t17 -58.5z" />
    <glyph glyph-name="uni24E3" unicode="&#x24e3;" 
d="M949 347q0 -97 -37 -182.5t-100.5 -149.5t-149 -101t-182.5 -37t-182.5 37t-149.5 101t-101 149.5t-37 182.5t37 182.5t101 149.5t149.5 101t182.5 37t182.5 -37t149 -101t100.5 -149.5t37 -182.5zM891 347q0 85 -32.5 161t-88 133t-130.5 90t-160 33t-160 -33
t-130.5 -90t-88 -133t-32.5 -161q0 -86 32.5 -161.5t88 -132.5t130.5 -90t160 -33t160 33t130.5 90t88 132.5t32.5 161.5zM370 566q0 8 -1.5 28t-12.5 35h90q25 0 35.5 -8t10.5 -22v-91h138v-69h-138v-215q0 -15 1.5 -30.5t6.5 -28t14.5 -20.5t25.5 -8q17 0 39 5.5t40 10.5
l11 3v-70q-27 -8 -57 -13t-51 -5q-75 0 -113.5 35t-38.5 114v222h-47v69h47v58z" />
    <glyph glyph-name="uni24E4" unicode="&#x24e4;" 
d="M949 347q0 -97 -37 -182.5t-100.5 -149.5t-149 -101t-182.5 -37t-182.5 37t-149.5 101t-101 149.5t-37 182.5t37 182.5t101 149.5t149.5 101t182.5 37t182.5 -37t149 -101t100.5 -149.5t37 -182.5zM891 347q0 85 -32.5 161t-88 133t-130.5 90t-160 33t-160 -33
t-130.5 -90t-88 -133t-32.5 -161q0 -86 32.5 -161.5t88 -132.5t130.5 -90t160 -33t160 33t130.5 90t88 132.5t32.5 161.5zM409 287q0 -18 1.5 -36.5t7.5 -33.5t17 -25t30 -10q17 0 40.5 11t51.5 35v262q0 8 -1.5 28t-12.5 35h91q25 0 35.5 -7.5t10.5 -21.5v-399h-123v26
q-27 -19 -54 -29t-57 -10q-81 0 -120.5 43t-39.5 119v216q0 8 -1.5 28t-12.5 35h91q25 0 35.5 -7.5t10.5 -21.5v-237z" />
    <glyph glyph-name="uni24E5" unicode="&#x24e5;" 
d="M949 347q0 -97 -37 -182.5t-100.5 -149.5t-149 -101t-182.5 -37t-182.5 37t-149.5 101t-101 149.5t-37 182.5t37 182.5t101 149.5t149.5 101t182.5 37t182.5 -37t149 -101t100.5 -149.5t37 -182.5zM891 347q0 85 -32.5 161t-88 133t-130.5 90t-160 33t-160 -33
t-130.5 -90t-88 -133t-32.5 -161q0 -86 32.5 -161.5t88 -132.5t130.5 -90t160 -33t160 33t130.5 90t88 132.5t32.5 161.5zM351 553q20 0 27 -5t14 -24l91 -257l89 247q5 13 6.5 20.5t-9.5 18.5h99q38 0 25 -34l-155 -394h-113l-158 403q-2 5 -6 12.5t-12 12.5h102z" />
    <glyph glyph-name="uni24E6" unicode="&#x24e6;" 
d="M949 347q0 -97 -37 -182.5t-100.5 -149.5t-149 -101t-182.5 -37t-182.5 37t-149.5 101t-101 149.5t-37 182.5t37 182.5t101 149.5t149.5 101t182.5 37t182.5 -37t149 -101t100.5 -149.5t37 -182.5zM891 347q0 85 -32.5 161t-88 133t-130.5 90t-160 33t-160 -33
t-130.5 -90t-88 -133t-32.5 -161q0 -86 32.5 -161.5t88 -132.5t130.5 -90t160 -33t160 33t130.5 90t88 132.5t32.5 161.5zM507 553q20 0 27 -5t12 -25l64 -249l43 239q2 11 3.5 20t-4.5 20h95q27 0 27 -19q0 -3 -2 -13l-98 -396h-111l-80 296l-82 -296h-110l-102 404
q-3 13 -17 24h101q19 0 26.5 -5.5t11.5 -25.5l48 -249l62 244q3 11 3 18.5t-5 17.5h88z" />
    <glyph glyph-name="uni24E7" unicode="&#x24e7;" 
d="M949 347q0 -97 -37 -182.5t-100.5 -149.5t-149 -101t-182.5 -37t-182.5 37t-149.5 101t-101 149.5t-37 182.5t37 182.5t101 149.5t149.5 101t182.5 37t182.5 -37t149 -101t100.5 -149.5t37 -182.5zM891 347q0 85 -32.5 161t-88 133t-130.5 90t-160 33t-160 -33
t-130.5 -90t-88 -133t-32.5 -161q0 -86 32.5 -161.5t88 -132.5t130.5 -90t160 -33t160 33t130.5 90t88 132.5t32.5 161.5zM484 410l70 105q8 13 10.5 18.5t-5.5 19.5h101q26 0 26 -16q0 -7 -9 -19l-136 -174l161 -219h-129l-95 144l-97 -144h-122l160 213l-132 180
q-5 6 -11 13.5t-20 21.5h103q17 0 27.5 -5.5t21.5 -22.5z" />
    <glyph glyph-name="uni24E8" unicode="&#x24e8;" 
d="M949 347q0 -97 -37 -182.5t-100.5 -149.5t-149 -101t-182.5 -37t-182.5 37t-149.5 101t-101 149.5t-37 182.5t37 182.5t101 149.5t149.5 101t182.5 37t182.5 -37t149 -101t100.5 -149.5t37 -182.5zM891 347q0 85 -32.5 161t-88 133t-130.5 90t-160 33t-160 -33
t-130.5 -90t-88 -133t-32.5 -161q0 -86 32.5 -161.5t88 -132.5t130.5 -90t160 -33t160 33t130.5 90t88 132.5t32.5 161.5zM266 596q-2 5 -5 10t-11 10h102q20 0 27 -5t14 -23l90 -242l89 232q5 12 6.5 20t-8.5 18h99q21 0 26.5 -8.5t-1.5 -25.5l-218 -524h-120l66 155z" />
    <glyph glyph-name="uni24E9" unicode="&#x24e9;" 
d="M949 347q0 -97 -37 -182.5t-100.5 -149.5t-149 -101t-182.5 -37t-182.5 37t-149.5 101t-101 149.5t-37 182.5t37 182.5t101 149.5t149.5 101t182.5 37t182.5 -37t149 -101t100.5 -149.5t37 -182.5zM891 347q0 85 -32.5 161t-88 133t-130.5 90t-160 33t-160 -33
t-130.5 -90t-88 -133t-32.5 -161q0 -86 32.5 -161.5t88 -132.5t130.5 -90t160 -33t160 33t130.5 90t88 132.5t32.5 161.5zM669 131h-380v55l227 304h-221v69h368v-52l-227 -306h233v-70z" />
    <glyph glyph-name="SF100000" unicode="&#x2500;" 
d="M960 310h-960v60h960v-60z" />
    <glyph glyph-name="uni2501" unicode="&#x2501;" 
d="M960 295h-960v90h960v-90z" />
    <glyph glyph-name="SF110000" unicode="&#x2502;" 
d="M510 -180h-60v1040h60v-1040z" />
    <glyph glyph-name="uni2503" unicode="&#x2503;" 
d="M435 -180v1040h90v-1040h-90z" />
    <glyph glyph-name="SF010000" unicode="&#x250c;" 
d="M960 310h-450v-490h-60v550h510v-60z" />
    <glyph glyph-name="uni250D" unicode="&#x250d;" 
d="M510 -180h-60v565h510v-90h-450v-475z" />
    <glyph glyph-name="uni250E" unicode="&#x250e;" 
d="M525 -180h-90v550h525v-59h-435v-491z" />
    <glyph glyph-name="uni250F" unicode="&#x250f;" 
d="M960 295h-435v-475h-90v565h525v-90z" />
    <glyph glyph-name="SF030000" unicode="&#x2510;" 
d="M510 -180h-60v490h-450v60h510v-550z" />
    <glyph glyph-name="uni2511" unicode="&#x2511;" 
d="M510 -180h-60v475h-450v90h510v-565z" />
    <glyph glyph-name="uni2512" unicode="&#x2512;" 
d="M525 -180h-90v491h-435v59h525v-550z" />
    <glyph glyph-name="uni2513" unicode="&#x2513;" 
d="M525 -180h-90v475h-435v90h525v-565z" />
    <glyph glyph-name="SF020000" unicode="&#x2514;" 
d="M960 310h-510v550h60v-490h450v-60z" />
    <glyph glyph-name="uni2515" unicode="&#x2515;" 
d="M450 295v565h60v-475h450v-90h-510z" />
    <glyph glyph-name="uni2516" unicode="&#x2516;" 
d="M435 311v549h90v-490h435v-59h-525z" />
    <glyph glyph-name="uni2517" unicode="&#x2517;" 
d="M960 295h-525v565h90v-475h435v-90z" />
    <glyph glyph-name="SF040000" unicode="&#x2518;" 
d="M510 310h-510v60h450v490h60v-550z" />
    <glyph glyph-name="uni2519" unicode="&#x2519;" 
d="M0 295v90h450v475h60v-565h-510z" />
    <glyph glyph-name="uni251A" unicode="&#x251a;" 
d="M0 311v59h435v490h90v-549h-525z" />
    <glyph glyph-name="uni251B" unicode="&#x251b;" 
d="M525 295h-525v90h435v475h90v-565z" />
    <glyph glyph-name="SF080000" unicode="&#x251c;" 
d="M960 310h-450v-490h-60v1040h60v-490h450v-60z" />
    <glyph glyph-name="uni251D" unicode="&#x251d;" 
d="M510 -180h-60v1040h60v-475h450v-90h-450v-475z" />
    <glyph glyph-name="uni251E" unicode="&#x251e;" 
d="M435 311v549h90v-490h435v-59h-450v-491h-60v491h-15z" />
    <glyph glyph-name="uni251F" unicode="&#x251f;" 
d="M435 370h15v490h60v-490h450v-59h-435v-491h-90v550z" />
    <glyph glyph-name="uni2520" unicode="&#x2520;" 
d="M525 -180h-90v1040h90v-490h435v-59h-435v-491z" />
    <glyph glyph-name="uni2521" unicode="&#x2521;" 
d="M435 295v565h90v-475h435v-90h-450v-475h-60v475h-15z" />
    <glyph glyph-name="uni2522" unicode="&#x2522;" 
d="M525 -180h-90v565h15v475h60v-475h450v-90h-435v-475z" />
    <glyph glyph-name="uni2523" unicode="&#x2523;" 
d="M960 295h-435v-475h-90v1040h90v-475h435v-90z" />
    <glyph glyph-name="SF090000" unicode="&#x2524;" 
d="M510 -180h-60v490h-450v60h450v490h60v-1040z" />
    <glyph glyph-name="uni2525" unicode="&#x2525;" 
d="M510 -180h-60v475h-450v90h450v475h60v-1040z" />
    <glyph glyph-name="uni2526" unicode="&#x2526;" 
d="M525 311h-15v-491h-60v491h-450v59h435v490h90v-549z" />
    <glyph glyph-name="uni2527" unicode="&#x2527;" 
d="M525 370v-550h-90v491h-435v59h450v490h60v-490h15z" />
    <glyph glyph-name="uni2528" unicode="&#x2528;" 
d="M525 -180h-90v491h-435v59h435v490h90v-1040z" />
    <glyph glyph-name="uni2529" unicode="&#x2529;" 
d="M525 295h-15v-475h-60v475h-450v90h435v475h90v-565z" />
    <glyph glyph-name="uni252A" unicode="&#x252a;" 
d="M435 -180v475h-435v90h450v475h60v-475h15v-565h-90z" />
    <glyph glyph-name="uni252B" unicode="&#x252b;" 
d="M525 -180h-90v475h-435v90h435v475h90v-1040z" />
    <glyph glyph-name="SF060000" unicode="&#x252c;" 
d="M960 310h-450v-490h-60v490h-450v60h960v-60z" />
    <glyph glyph-name="uni252D" unicode="&#x252d;" 
d="M960 310h-450v-490h-60v475h-450v90h510v-15h450v-60z" />
    <glyph glyph-name="uni252E" unicode="&#x252e;" 
d="M0 310v60h450v15h510v-90h-450v-475h-60v490h-450z" />
    <glyph glyph-name="uni252F" unicode="&#x252f;" 
d="M510 -180h-60v475h-450v90h960v-90h-450v-475z" />
    <glyph glyph-name="uni2530" unicode="&#x2530;" 
d="M525 -180h-90v491h-435v59h960v-59h-435v-491z" />
    <glyph glyph-name="uni2531" unicode="&#x2531;" 
d="M960 310h-435v-490h-90v475h-435v90h525v-15h435v-60z" />
    <glyph glyph-name="uni2532" unicode="&#x2532;" 
d="M0 310v60h435v15h525v-90h-435v-475h-90v490h-435z" />
    <glyph glyph-name="uni2533" unicode="&#x2533;" 
d="M960 295h-435v-475h-90v475h-435v90h960v-90z" />
    <glyph glyph-name="SF070000" unicode="&#x2534;" 
d="M960 310h-960v60h450v490h60v-490h450v-60z" />
    <glyph glyph-name="uni2535" unicode="&#x2535;" 
d="M0 295v90h450v475h60v-490h450v-60h-450v-15h-510z" />
    <glyph glyph-name="uni2536" unicode="&#x2536;" 
d="M960 295h-510v15h-450v60h450v490h60v-475h450v-90z" />
    <glyph glyph-name="uni2537" unicode="&#x2537;" 
d="M0 295v90h450v475h60v-475h450v-90h-960z" />
    <glyph glyph-name="uni2538" unicode="&#x2538;" 
d="M0 311v59h435v490h90v-490h435v-59h-960z" />
    <glyph glyph-name="uni2539" unicode="&#x2539;" 
d="M0 295v90h435v475h90v-490h435v-60h-435v-15h-525z" />
    <glyph glyph-name="uni253A" unicode="&#x253a;" 
d="M960 295h-525v15h-435v60h435v490h90v-475h435v-90z" />
    <glyph glyph-name="uni253B" unicode="&#x253b;" 
d="M960 295h-960v90h435v475h90v-475h435v-90z" />
    <glyph glyph-name="SF050000" unicode="&#x253c;" 
d="M960 310h-450v-490h-60v490h-450v60h450v490h60v-490h450v-60z" />
    <glyph glyph-name="uni253D" unicode="&#x253d;" 
d="M510 -180h-60v475h-450v90h450v475h60v-490h450v-60h-450v-490z" />
    <glyph glyph-name="uni253E" unicode="&#x253e;" 
d="M450 -180v490h-450v60h450v490h60v-475h450v-90h-450v-475h-60z" />
    <glyph glyph-name="uni253F" unicode="&#x253f;" 
d="M510 -180h-60v475h-450v90h450v475h60v-475h450v-90h-450v-475z" />
    <glyph glyph-name="uni2540" unicode="&#x2540;" 
d="M510 -180h-60v490h-450v60h435v490h90v-490h435v-60h-450v-490z" />
    <glyph glyph-name="uni2541" unicode="&#x2541;" 
d="M510 860v-490h450v-60h-435v-490h-90v490h-435v60h450v490h60z" />
    <glyph glyph-name="uni2542" unicode="&#x2542;" 
d="M525 -180h-90v491h-435v59h435v490h90v-490h435v-59h-435v-491z" />
    <glyph glyph-name="uni2543" unicode="&#x2543;" 
d="M510 -180h-60v475h-450v90h435v475h90v-490h435v-60h-450v-490z" />
    <glyph glyph-name="uni2544" unicode="&#x2544;" 
d="M450 -180v490h-450v60h435v490h90v-475h435v-90h-450v-475h-60z" />
    <glyph glyph-name="uni2545" unicode="&#x2545;" 
d="M510 860v-490h450v-60h-435v-490h-90v475h-435v90h450v475h60z" />
    <glyph glyph-name="uni2546" unicode="&#x2546;" 
d="M450 860h60v-475h450v-90h-435v-475h-90v490h-435v60h450v490z" />
    <glyph glyph-name="uni2547" unicode="&#x2547;" 
d="M450 -180v475h-450v90h435v475h90v-475h435v-90h-450v-475h-60z" />
    <glyph glyph-name="uni2548" unicode="&#x2548;" 
d="M450 860h60v-475h450v-90h-435v-475h-90v475h-435v90h450v475z" />
    <glyph glyph-name="uni2549" unicode="&#x2549;" 
d="M435 -180v475h-435v90h435v475h90v-490h435v-60h-435v-490h-90z" />
    <glyph glyph-name="uni254A" unicode="&#x254a;" 
d="M525 -180h-90v490h-435v60h435v490h90v-475h435v-90h-435v-475z" />
    <glyph glyph-name="uni254B" unicode="&#x254b;" 
d="M960 295h-435v-475h-90v475h-435v90h435v475h90v-475h435v-90z" />
    <glyph glyph-name="shade" unicode="&#x2592;" 
d="M874 -53h-788v787h788v-787zM839 -18v717h-718v-717h718zM209 621q0 -10 -7 -17.5t-19 -7.5t-19.5 7.5t-7.5 17.5q0 12 7.5 20t19.5 8t19 -8t7 -20zM408 621q0 -10 -8 -17.5t-20 -7.5t-19 7.5t-7 17.5q0 12 7 20t19 8t20 -8t8 -20zM607 621q0 -10 -8 -17.5t-19 -7.5
q-12 0 -20 7.5t-8 17.5q0 12 8 20t20 8q11 0 19 -8t8 -20zM805 621q0 -10 -7.5 -17.5t-19.5 -7.5t-19.5 7.5t-7.5 17.5q0 12 7.5 20t19.5 8t19.5 -8t7.5 -20zM308 439q0 -12 -8 -20t-18 -8q-12 0 -20 8t-8 20t8 19.5t20 7.5q10 0 18 -7.5t8 -19.5zM506 439q0 -12 -7 -20
t-19 -8q-11 0 -19 8t-8 20t8 19.5t19 7.5q12 0 19 -7.5t7 -19.5zM706 439q0 -12 -7.5 -20t-19.5 -8t-19 8t-7 20t7 19.5t19 7.5t19.5 -7.5t7.5 -19.5zM209 253q0 -10 -7 -17.5t-19 -7.5t-19.5 7.5t-7.5 17.5q0 12 7.5 20t19.5 8t19 -8t7 -20zM408 253q0 -10 -8 -17.5
t-20 -7.5t-19 7.5t-7 17.5q0 12 7 20t19 8t20 -8t8 -20zM607 253q0 -10 -8 -17.5t-19 -7.5q-12 0 -20 7.5t-8 17.5q0 12 8 20t20 8q11 0 19 -8t8 -20zM805 253q0 -10 -7.5 -17.5t-19.5 -7.5t-19.5 7.5t-7.5 17.5q0 12 7.5 20t19.5 8t19.5 -8t7.5 -20zM308 71q0 -12 -8 -20
t-18 -8q-12 0 -20 8t-8 20t8 19.5t20 7.5q10 0 18 -7.5t8 -19.5zM506 71q0 -12 -7 -20t-19 -8q-11 0 -19 8t-8 20t8 19.5t19 7.5q12 0 19 -7.5t7 -19.5zM706 71q0 -12 -7.5 -20t-19.5 -8t-19 8t-7 20t7 19.5t19 7.5t19.5 -7.5t7.5 -19.5z" />
    <glyph glyph-name="filledbox" unicode="&#x25a0;" 
d="M845 -27h-730v730h730v-730z" />
    <glyph glyph-name="H22073" unicode="&#x25a1;" 
d="M845 -27h-730v730h730v-730zM777 37v602h-583v-602h583z" />
    <glyph glyph-name="uni25A3" unicode="&#x25a3;" 
d="M874 -56h-788v787h788v-787zM812 1v673h-664v-673h664zM684 132h-409v410h409v-410z" />
    <glyph glyph-name="uni25A4" unicode="&#x25a4;" 
d="M874 -53h-788v787h788v-787zM121 699v-153h718v153h-718zM121 358h718v154h-718v-154zM121 170h718v154h-718v-154zM839 -18v154h-718v-154h718z" />
    <glyph glyph-name="uni25A5" unicode="&#x25a5;" 
d="M86 -53v787h788v-787h-788zM121 -18h153v717h-153v-717zM839 699h-153v-717h153v717zM497 699v-717h154v717h-154zM309 699v-717h154v717h-154z" />
    <glyph glyph-name="uni25A6" unicode="&#x25a6;" 
d="M874 -53h-788v787h788v-787zM121 699v-153h153v153h-153zM309 699v-153h154v153h-154zM497 699v-153h154v153h-154zM839 699h-153v-153h153v153zM121 358h153v154h-153v-154zM309 358h154v154h-154v-154zM497 358h154v154h-154v-154zM686 358h153v154h-153v-154zM121 170
h153v154h-153v-154zM309 170h154v154h-154v-154zM497 170h154v154h-154v-154zM686 170h153v154h-153v-154zM121 -18h153v154h-153v-154zM309 -18h154v154h-154v-154zM497 -18h154v154h-154v-154zM839 -18v154h-153v-154h153z" />
    <glyph glyph-name="uni25A7" unicode="&#x25a7;" 
d="M874 -53h-788v787h788v-787zM839 369v330h-329zM147 699l692 -692v311l-380 381h-312zM814 -18l-693 693v-312l382 -381h311zM452 -18l-331 331v-331h331z" />
    <glyph glyph-name="uni25A8" unicode="&#x25a8;" 
d="M86 -53v787h788v-787h-788zM121 369l329 330h-329v-330zM813 699h-312l-380 -381v-311zM146 -18h311l382 381v312zM508 -18h331v331z" />
    <glyph glyph-name="uni25A9" unicode="&#x25a9;" 
d="M874 -53h-788v787h788v-787zM813 699h-303l151 -152zM147 699l152 -152l151 152h-303zM324 522l156 -156l156 156l-156 156zM121 369l153 153l-153 153v-306zM839 369v306l-153 -153zM143 341l156 -156l156 156l-156 156zM505 341l156 -156l156 156l-156 156zM324 160
l156 -155l156 155l-156 156zM121 7l153 153l-153 153v-306zM686 160l153 -153v306zM452 -18l-153 153l-153 -153h306zM814 -18l-153 153l-153 -153h306z" />
    <glyph glyph-name="triagup" unicode="&#x25b2;" 
d="M940 -15h-920l460 735z" />
    <glyph glyph-name="uni25B3" unicode="&#x25b3;" 
d="M940 -15h-920l460 735zM819 49l-338 542l-339 -542h677z" />
    <glyph glyph-name="uni25B6" unicode="&#x25b6;" 
d="M124 812l734 -460l-734 -460v920z" />
    <glyph glyph-name="uni25B7" unicode="&#x25b7;" 
d="M124 812l734 -460l-734 -460v920zM187 691v-677l543 339z" />
    <glyph glyph-name="triagdn" unicode="&#x25bc;" 
d="M940 693l-460 -735l-460 735h920z" />
    <glyph glyph-name="uni25BD" unicode="&#x25bd;" 
d="M940 693l-460 -735l-460 735h920zM819 629h-677l339 -542z" />
    <glyph glyph-name="uni25C0" unicode="&#x25c0;" 
d="M837 812v-920l-734 460z" />
    <glyph glyph-name="uni25C1" unicode="&#x25c1;" 
d="M837 812v-920l-734 460zM774 691l-543 -338l543 -339v677z" />
    <glyph glyph-name="uni25C6" unicode="&#x25c6;" 
d="M947 338l-469 -467l-466 466l467 470z" />
    <glyph glyph-name="uni25C7" unicode="&#x25c7;" 
d="M947 338l-469 -467l-466 466l467 470zM858 338l-379 378l-381 -379l380 -380z" />
    <glyph glyph-name="uni25C8" unicode="&#x25c8;" 
d="M947 338l-469 -467l-466 466l467 470zM858 338l-379 378l-381 -379l380 -380zM704 337l-224 -225l-227 226l227 224z" />
    <glyph glyph-name="circle" unicode="&#x25cb;" 
d="M881 349q0 -84 -31.5 -156t-85.5 -125t-127 -83.5t-157 -30.5q-83 0 -156 30.5t-127.5 83.5t-86 125t-31.5 156q0 82 31.5 154t86.5 125t128 84t155 31q84 0 157 -30.5t127 -83.5t85.5 -125t31.5 -155zM817 349q0 71 -26 132.5t-71.5 107t-107 71.5t-132.5 26t-132.5 -26
t-107 -71.5t-71.5 -107t-26 -132.5q0 -72 25.5 -133.5t71 -107t107 -71t133.5 -25.5t133.5 25.5t107 71t71 107t25.5 133.5z" />
    <glyph glyph-name="uni25CE" unicode="&#x25ce;" 
d="M881 349q0 -84 -31.5 -156t-85.5 -125t-127 -83.5t-157 -30.5q-83 0 -156 30.5t-127.5 83.5t-86 125t-31.5 156q0 82 31.5 154t86.5 125t128 84t155 31q84 0 157 -30.5t127 -83.5t85.5 -125t31.5 -155zM817 349q0 71 -26 132.5t-71.5 107t-107 71.5t-132.5 26t-132.5 -26
t-107 -71.5t-71.5 -107t-26 -132.5q0 -72 25.5 -133.5t71 -107t107 -71t133.5 -25.5t133.5 25.5t107 71t71 107t25.5 133.5zM713 349q0 -49 -18.5 -90.5t-50 -72.5t-74 -48.5t-90.5 -17.5t-90.5 17.5t-74 48.5t-50 72.5t-18.5 90.5q0 48 18.5 89.5t50.5 72.5t74 49t90 18
t90.5 -17.5t74 -48.5t50 -73t18.5 -90zM650 349q0 36 -13 67.5t-35.5 54.5t-54 36t-67.5 13q-37 0 -68 -13t-53.5 -36t-35.5 -54.5t-13 -67.5q0 -37 12.5 -68.5t35 -54.5t54 -36t68.5 -13t68 13t53.5 36t35.5 54.5t13 68.5z" />
    <glyph glyph-name="H18533" unicode="&#x25cf;" 
d="M881 349q0 -84 -31.5 -156t-85.5 -125t-127 -83.5t-157 -30.5q-83 0 -156 30.5t-127.5 83.5t-86 125t-31.5 156q0 82 31.5 154t86.5 125t128 84t155 31q84 0 157 -30.5t127 -83.5t85.5 -125t31.5 -155z" />
    <glyph glyph-name="uni25D0" unicode="&#x25d0;" 
d="M896 343q0 -87 -32.5 -161.5t-89 -130t-132 -87t-162.5 -31.5q-86 0 -162 31.5t-132.5 87t-89.5 130t-33 161.5q0 86 33 160.5t90 130.5t133 88t161 32q87 0 162.5 -31.5t132 -87t89 -130.5t32.5 -162zM831 343q0 74 -27 138t-74.5 111.5t-111.5 74.5t-138 27v-702
q75 0 139 27t111 74t74 111t27 139z" />
    <glyph glyph-name="uni25D1" unicode="&#x25d1;" 
d="M896 343q0 -87 -32.5 -161.5t-89 -130t-132 -87t-162.5 -31.5q-86 0 -162 31.5t-132.5 87t-89.5 130t-33 161.5q0 86 33 160.5t90 130.5t133 88t161 32q87 0 162.5 -31.5t132 -87t89 -130.5t32.5 -162zM480 694q-74 0 -138 -27t-111.5 -74.5t-74.5 -111.5t-27 -138
q0 -75 27 -139t74 -111t111 -74t139 -27v702z" />
    <glyph glyph-name="uni2605" unicode="&#x2605;" 
d="M965 477l-296 -222l124 -353l-313 219l-312 -219l123 353l-297 222h369l117 334l117 -334h368z" />
    <glyph glyph-name="uni2606" unicode="&#x2606;" 
d="M965 477l-296 -222l124 -353l-313 219l-312 -219l123 353l-297 222h369l117 334l117 -334h368zM769 411h-228l-61 192l-62 -192h-227l179 -133l-75 -206l187 130l182 -128l-71 204z" />
    <glyph glyph-name="uni260E" unicode="&#x260e;" 
d="M881 350q-16 0 -46.5 5.5t-61 16t-54.5 25t-28 31.5q0 23 8.5 42.5t8.5 38.5t-16.5 27t-33.5 10q-3 -18 -3 -38q0 -72 28 -125.5t82 -99.5q27 -22 41.5 -46.5t22 -48t9 -44.5t1.5 -36q14 -8 19 -28.5t5 -39.5v-10t-1 -9q-1 -12 -11.5 -16.5t-27.5 -4.5h-689
q-17 0 -27.5 4.5t-11.5 16.5q-1 4 -1 9v10q0 20 4.5 40t18.5 28q0 15 1.5 35.5t9 43t22.5 46.5t42 46q54 47 82 104t28 129q0 18 -3 34q-17 -2 -34 -10.5t-17 -29.5q0 -15 9 -34t9 -36q0 -6 -1 -8q-3 -17 -27 -31.5t-55 -25t-61.5 -16t-46.5 -5.5q-31 0 -42 18
q-10 14 -10 45q0 29 9 63t29 59q26 33 71 57.5t101 40t119.5 23t126.5 7.5t126 -7.5t119 -23t101 -40t71 -57.5q20 -25 29 -59t9 -63t-10.5 -46t-42.5 -17zM563 487v69q-16 -4 -38 -7t-45 -3t-45.5 3t-37.5 7v-69h166zM636 243q0 32 -12.5 60t-33.5 49t-49.5 33.5
t-60.5 12.5t-60.5 -12.5t-49.5 -33.5t-33.5 -49t-12.5 -60t12.5 -60.5t33.5 -49.5t49.5 -33t60.5 -12t60.5 12t49.5 33t33.5 49.5t12.5 60.5z" />
    <glyph glyph-name="uni260F" unicode="&#x260f;" 
d="M882 350q-16 0 -46.5 5.5t-61 16t-54.5 25t-28 31.5q0 23 8.5 42.5t8.5 38.5t-16.5 27t-33.5 10q-3 -18 -3 -38q0 -72 28 -125.5t82 -99.5q27 -22 41.5 -46.5t22 -48t9 -44.5t1.5 -36q14 -8 19 -28.5t5 -39.5v-10t-1 -9q-1 -12 -11.5 -16.5t-27.5 -4.5h-689
q-17 0 -27.5 4.5t-11.5 16.5q-1 4 -1 9v10q0 20 4.5 40t18.5 28q0 15 1.5 35.5t9 43t22.5 46.5t42 46q54 47 82 104t28 129q0 18 -3 34q-17 -2 -34 -10.5t-17 -29.5q0 -15 9 -34t9 -36q0 -6 -1 -8q-3 -17 -27 -31.5t-55 -25t-61.5 -16t-46.5 -5.5q-31 0 -42 18
q-10 14 -10 45q0 29 9 63t29 59q26 33 71 57.5t101 40t119.5 23t126.5 7.5t126 -7.5t119 -23t101 -40t71 -57.5q20 -25 29 -59t9 -63t-10.5 -46t-42.5 -17zM895 384q9 2 9 33q0 28 -14.5 66t-50.5 68q-24 18 -62.5 33.5t-86 27t-101.5 18t-109 6.5q-57 0 -112 -6.5
t-102.5 -17.5t-85 -27t-60.5 -34q-37 -29 -50.5 -66t-13.5 -65q0 -32 8 -36q45 0 87 10t80 32q2 4 2 7q0 16 -7 35t-7 39q0 26 15.5 41t38 22t48 8.5t44.5 1.5q12 0 24.5 -2t24.5 -4q19 -4 33.5 -6t32.5 -2q17 0 31.5 2t33.5 6q12 2 24.5 4t23.5 2q36 0 61 -3.5t41.5 -10
t25.5 -15.5t15 -20q4 -11 4 -25q0 -20 -7 -38.5t-7 -33.5q0 -4 2 -8q38 -22 80 -32t87 -10zM828 30q1 0 1.5 5.5t0.5 13.5q0 11 -3 23.5t-14 18.5q0 53 -13 89.5t-51 73.5q-33 31 -56 59.5t-38 59.5t-22 67t-7 83q0 7 0.5 14t1.5 13h-42v-88h-213v88h-42q1 -6 1 -12v-13
q0 -48 -6.5 -84t-21 -67t-38 -59.5t-56.5 -60.5q-37 -37 -50.5 -73.5t-13.5 -89.5q-10 -6 -14 -18.5t-4 -24.5q0 -7 0.5 -12.5t2.5 -5.5h697zM558 489v60q-16 -4 -36.5 -6.5t-41.5 -2.5q-22 0 -43 2.5t-36 6.5v-60h157zM661 244q0 -37 -14.5 -70t-39 -57t-57.5 -38t-70 -14
t-70.5 14t-58 38t-39 57t-14.5 70t14.5 69.5t39 56.5t58 37.5t70.5 13.5t70 -13.5t57.5 -37.5t39 -56.5t14.5 -69.5zM630 244q0 31 -12 58t-32 47.5t-47.5 32t-58.5 11.5t-59 -11.5t-48 -32t-32 -47.5t-12 -58t12 -58t32 -47.5t48 -32t59 -11.5t58.5 11.5t47.5 32t32 47.5
t12 58z" />
    <glyph glyph-name="uni261C" unicode="&#x261c;" 
d="M772 142v54q-20 0 -43.5 -1.5t-53.5 -13.5q-45 -22 -83.5 -28.5t-75.5 -6.5q-22 0 -43.5 1t-44.5 2q-11 -18 -30.5 -24t-40.5 -6q-18 0 -43.5 5t-48 16t-38.5 28t-16 41q0 14 8 26.5t21 19.5q-8 8 -10 17.5t-2 18.5q0 19 10.5 32t26.5 21q-9 11 -9 27q0 23 18 41l-126 7
q-14 0 -37 1t-45.5 8t-39 21.5t-16.5 41.5q0 20 14 32t34.5 18t44.5 8t45 2l192 7l105 -2q25 17 57 17q33 0 63 -8t58.5 -21t55.5 -28t54 -29q6 -2 10 -4t7.5 -3t8 -1.5t13.5 -0.5v52h153v-388h-153zM772 448q-18 0 -25 0.5t-15 4.5q-27 11 -55.5 26.5t-57 30t-56 24.5
t-53.5 10t-41 -7.5t-31 -27.5l-58 -58q-8 -8 -19.5 -20.5t-11.5 -23.5q0 -8 5 -14t12 -9.5t14.5 -5.5t13.5 -2q23 0 41.5 12t34.5 26l54 43l12 -15l-48 -56q11 -8 23.5 -20t19.5 -25q1 0 11 -1.5t24.5 -3t32 -2t34.5 0.5q18 3 37 7.5t34 9.5l7 2l8 -10v-7q-1 0 -10 -3.5
t-21.5 -7.5t-26 -8t-23.5 -6q-27 -3 -50 -3t-37.5 1.5t-15.5 1.5q-7 -28 -19 -43t-42 -20q0 -21 -8 -37t-28 -21v-17q54 -5 115.5 1t118.5 35q26 14 51 15t49 1v222zM319 528l-167 -3q-10 0 -29 -0.5t-37.5 -4t-32 -10.5t-13.5 -21q0 -12 7 -20t17.5 -13.5t23 -7.5t22.5 -2
l155 -6h70l84 88h-100zM851 498h-48v-324h48v324zM465 279q14 0 26.5 9.5t12.5 28.5q0 8 -4.5 16.5t-12 15.5t-16 12t-16.5 5q-6 0 -22.5 -6.5t-39.5 -6.5q-28 0 -49.5 13t-37.5 33q-7 -5 -12.5 -10.5t-5.5 -15.5t7 -19t17 -16.5t21 -13t18 -8.5t23 -9.5t33.5 -12.5
t34 -10.5t23.5 -4.5zM412 215q16 0 24.5 9.5t5.5 23.5q0 8 -8 9.5t-13 4.5q-12 3 -26.5 8.5t-29.5 12.5t-28.5 14t-21.5 12q-13 9 -29 9q-12 0 -19 -8.5t-7 -18.5q0 -16 15 -31.5t29 -20.5q9 -3 23.5 -7.5t30 -8t30.5 -6t24 -2.5zM357 142q17 0 33.5 6t16.5 25q0 14 -19 17
q-48 7 -78 19t-49 26q-5 2 -12.5 -7t-5.5 -23q2 -15 16 -26.5t32 -19.5t36 -12.5t30 -4.5z" />
    <glyph glyph-name="uni261E" unicode="&#x261e;" 
d="M187 142h-153v388h153v-52q9 0 13.5 0.5t8 1.5t7.5 3t10 4q27 14 54 29t55.5 28t58.5 21t63 8q32 0 57 -17l105 2l192 -7q21 0 45 -2t44.5 -8t34.5 -18t14 -32q0 -27 -16.5 -41.5t-39 -21.5t-45.5 -8t-37 -1l-126 -7q18 -18 18 -41q0 -16 -9 -27q16 -8 26.5 -21t10.5 -32
q0 -9 -2 -18.5t-10 -17.5q13 -7 21 -19.5t8 -26.5q0 -24 -16 -41t-38.5 -28t-48 -16t-43.5 -5q-21 0 -40.5 6t-30.5 24q-23 -1 -44.5 -2t-43.5 -1q-37 0 -75.5 6.5t-83.5 28.5q-30 12 -53.5 13.5t-43.5 1.5v-54zM187 448v-222q24 0 49 -1t51 -15q57 -29 118.5 -35t115.5 -1
v17q-20 5 -28 21t-8 37q-30 5 -42 20t-19 43q-1 0 -15.5 -1.5t-37.5 -1.5t-50 3q-10 2 -23.5 6t-26 8t-21.5 7.5t-10 3.5v7l8 10l7 -2q15 -5 34 -9.5t37 -7.5q17 -1 34.5 -0.5t32 2t24.5 3t11 1.5q7 13 19.5 25t23.5 20l-48 56l12 15l54 -43q16 -14 34.5 -26t41.5 -12
q6 0 13.5 2t14.5 5.5t12 9.5t5 14q0 11 -11.5 23.5t-19.5 20.5l-58 58q-16 20 -31 27.5t-41 7.5t-53.5 -10t-56 -24.5t-57 -30t-55.5 -26.5q-8 -4 -15 -4.5t-25 -0.5zM640 528h-100l84 -88h70l155 6q10 0 22.5 2t23 7.5t17.5 13.5t7 20q0 14 -13.5 21t-32 10.5t-37.5 4
t-29 0.5zM108 498v-324h48v324h-48zM494 279q8 0 24 4.5t33.5 10.5t33.5 12.5t23 9.5t18 8.5t21 13t17 16.5t7 19t-5.5 15.5t-12.5 10.5q-16 -20 -37.5 -33t-49.5 -13q-23 0 -39.5 6.5t-22.5 6.5q-8 0 -16.5 -5t-16 -12t-12 -15.5t-4.5 -16.5q0 -19 12.5 -28.5t26.5 -9.5z
M547 215q9 0 24 2.5t31 6t30 8t23 7.5q14 5 29 20.5t15 31.5q0 10 -7 18.5t-19 8.5q-15 0 -29 -9q-8 -5 -21.5 -12t-28.5 -14t-29.5 -12.5t-26.5 -8.5q-5 -3 -13 -4.5t-8 -9.5q-3 -14 5.5 -23.5t24.5 -9.5zM602 142q12 0 30 4.5t36 12.5t32 19.5t16 26.5q2 14 -5.5 23
t-12.5 7q-19 -14 -49 -26t-78 -19q-19 -3 -19 -17q0 -10 4.5 -16t12 -9.5t16.5 -4.5t17 -1z" />
    <glyph glyph-name="female" unicode="&#x2640;" 
d="M207 557q0 57 21.5 104t58 80.5t86.5 52t107 18.5t106.5 -18.5t86 -52t58 -80.5t21.5 -104q0 -49 -16.5 -91t-45 -74.5t-68 -54t-86.5 -29.5v-124h197v-91h-197v-222h-112v222h-197v91h197v124q-47 8 -86.5 29.5t-68.5 54t-45.5 74.5t-16.5 91zM320 557q0 -35 12 -65
t33 -51.5t50.5 -34t64.5 -12.5t64.5 12.5t50.5 34t33 51.5t12 65q0 36 -12 66t-33 51.5t-50.5 34t-64.5 12.5t-64.5 -12.5t-50.5 -34t-33 -51.5t-12 -66z" />
    <glyph glyph-name="male" unicode="&#x2642;" 
d="M207 115q0 50 16.5 92t45.5 74t68.5 53.5t86.5 29.5v247l-171 -186l-83 80l310 317l309 -317l-82 -80l-171 186v-247q47 -8 86.5 -29.5t68 -53.5t45 -74t16.5 -92q0 -57 -21.5 -104t-58 -80t-86 -51.5t-106.5 -18.5t-107 18.5t-86.5 51.5t-58 80t-21.5 104zM320 115
q0 -35 12 -65t33 -52t50.5 -34t64.5 -12t64.5 12t50.5 34t33 52t12 65t-12 65t-33 52t-50.5 34t-64.5 12t-64.5 -12t-50.5 -34t-33 -52t-12 -65z" />
    <glyph glyph-name="spade" unicode="&#x2660;" 
d="M479 -134q-26 0 -47.5 0.5t-44.5 5.5q-20 4 -29.5 16t0.5 31q13 27 24.5 57.5t20 60.5t13.5 56.5t5 45.5q0 11 -4.5 5.5t-8.5 -10.5q-30 -43 -64 -63t-72 -20t-69 14t-53 38.5t-34 58t-12 72.5q0 54 25.5 114t68 125t97.5 134t115 141q17 20 35.5 42t34.5 42
q17 -20 35.5 -42t34.5 -42q60 -72 115 -141t98 -134t68.5 -125t25.5 -114q0 -39 -12 -72.5t-34 -58t-53 -38.5t-69 -14t-72 20t-65 63q-4 5 -8 10.5t-4 -5.5q0 -19 5 -45.5t14 -56.5t20.5 -60.5t23.5 -57.5q10 -19 0.5 -31t-29.5 -16q-24 -5 -45.5 -5.5t-49.5 -0.5z" />
    <glyph glyph-name="uni2661" unicode="&#x2661;" 
d="M75 534q0 50 17 93t45.5 74t67.5 48.5t82 17.5q68 0 116 -35t76 -119q29 84 77.5 119t115.5 35q43 0 81.5 -17.5t67.5 -48.5t46 -74t17 -93q0 -81 -38 -170t-97.5 -176.5t-131 -167.5t-138.5 -141q-44 41 -91.5 90.5t-92.5 104.5t-85 113.5t-70 117.5t-47.5 117
t-17.5 112zM479 523q-13 0 -22.5 8t-16 19.5t-10 25t-6.5 24.5q-20 65 -58.5 92.5t-78.5 27.5q-36 0 -65 -15.5t-49.5 -42.5t-31.5 -63t-11 -77q0 -59 29.5 -133t78.5 -151.5t111.5 -152t129.5 -135.5q67 61 130 135.5t112 152t78.5 151.5t29.5 133q0 41 -11 77t-31.5 63
t-49.5 42.5t-65 15.5q-20 0 -40.5 -6.5t-39 -21t-33.5 -37t-24 -55.5q-3 -11 -6.5 -24.5t-10 -25t-16 -19.5t-23.5 -8z" />
    <glyph glyph-name="club" unicode="&#x2663;" 
d="M400 136q-35 -57 -74 -86.5t-99 -29.5q-46 0 -84 18.5t-64.5 49t-41 71t-14.5 83.5q0 42 13 80t38.5 67.5t62.5 47t84 17.5q38 0 73 -10.5t67 -30.5q2 -2 5.5 -3t5.5 1q3 5 -6 12q-29 26 -49 48t-32 44t-17 46.5t-5 54.5q0 44 17.5 80t47 61.5t68.5 39.5t82 14t82 -14
t68.5 -39.5t47 -61.5t17.5 -80q0 -30 -5 -54.5t-17 -46.5t-31.5 -44t-49.5 -48q-3 -3 -5 -6t0 -6q2 -2 5 -1t5 3q33 20 67.5 30.5t72.5 10.5q48 0 85 -17.5t62.5 -47t38.5 -67.5t13 -80q0 -43 -14.5 -83.5t-41.5 -71t-64.5 -49t-83.5 -18.5q-60 0 -99 29.5t-76 86.5
q-6 10 -10 7q-3 -2 -1.5 -5t2.5 -6q6 -20 14 -49.5t15 -62t11.5 -63.5t4.5 -54q0 -14 -10.5 -23t-25.5 -11q-13 -1 -22 -1.5t-17 -1t-16.5 -0.5h-21.5h-21.5t-16 0.5t-17 1t-23.5 1.5q-14 2 -24.5 11t-10.5 23q0 23 5 54t11.5 63.5t14.5 62t14 49.5l2 6q2 4 -1 5q-3 2 -5 0
t-6 -7z" />
    <glyph glyph-name="uni2664" unicode="&#x2664;" 
d="M479 -134q-26 0 -47.5 0.5t-44.5 5.5q-20 4 -29.5 16t0.5 31q13 27 24.5 57.5t20 60.5t13.5 56.5t5 45.5q0 7 -3 7q-2 0 -5 -4.5l-5 -7.5q-30 -43 -64 -63t-72 -20t-69 14t-53 38.5t-34 58t-12 72.5q0 54 25.5 114t68 125t97.5 134t115 141q17 20 35.5 42t34.5 42
q17 -20 35.5 -42t34.5 -42q60 -72 115 -141t98 -134t68.5 -125t25.5 -114q0 -39 -12 -72.5t-34 -58t-53 -38.5t-69 -14t-72 20t-65 63l-5 7.5t-5 4.5t-2 -7q0 -19 5 -45.5t14 -56.5t20.5 -60.5t23.5 -57.5q10 -19 0.5 -31t-29.5 -16q-24 -5 -45.5 -5.5t-49.5 -0.5zM435 699
q-45 -53 -93.5 -112.5t-89 -119.5t-67 -119t-26.5 -111q0 -69 30.5 -103.5t82.5 -34.5q34 0 52.5 17t35.5 36q14 18 29.5 31.5t39.5 13.5q17 0 30 -12t13 -49q0 -18 -4.5 -45t-12 -56.5t-17.5 -60t-21 -55.5q-1 -3 2 -3q9 0 25.5 -0.5t34.5 -0.5h35.5t25.5 1q5 0 2 3
q-10 25 -19.5 55.5t-17.5 60t-13 56.5t-5 45q0 37 14 49t31 12q23 0 39 -13.5t30 -31.5q16 -19 35 -36t53 -17q52 0 82.5 34.5t30.5 103.5q0 53 -27 113t-69 121.5t-92 121.5t-96 113l-39 45z" />
    <glyph glyph-name="heart" unicode="&#x2665;" 
d="M75 534q0 50 17 93t45.5 74t67.5 48.5t82 17.5q68 0 116 -35t76 -119q29 84 77.5 119t115.5 35q43 0 81.5 -17.5t67.5 -48.5t46 -74t17 -93q0 -81 -38 -170t-97.5 -176.5t-131 -167.5t-138.5 -141q-44 41 -91.5 90.5t-92.5 104.5t-85 113.5t-70 117.5t-47.5 117
t-17.5 112z" />
    <glyph glyph-name="uni2667" unicode="&#x2667;" 
d="M595 413q33 20 67.5 30.5t72.5 10.5q48 0 85 -17.5t62.5 -47t38.5 -67.5t13 -80q0 -43 -14.5 -83.5t-41.5 -71t-65 -49t-84 -18.5q-60 0 -99.5 30t-73.5 86q-5 8 -9 8q-3 0 -3.5 -2t0.5 -4q6 -20 14.5 -50.5t15.5 -64t12 -65.5t5 -55q0 -14 -10.5 -23t-25.5 -11
q-13 -1 -22 -1.5t-17 -1t-16.5 -0.5h-21.5h-21.5t-16 0.5t-17 1t-23.5 1.5q-14 2 -24.5 11t-10.5 23q0 23 5 55t12 65.5t15.5 64t14.5 50.5q1 2 0.5 4t-3.5 2q-4 0 -9 -8q-34 -56 -73.5 -86t-99.5 -30q-46 0 -84 18.5t-64.5 49t-41 71t-14.5 83.5q0 42 13 80t38.5 67.5
t62.5 47t84 17.5q38 0 73 -10.5t67 -30.5q2 -2 3.5 -2.5t4.5 -0.5q5 0 4 4t-5 7q-30 26 -50 48t-32 45t-17.5 47.5t-5.5 54.5q0 44 17.5 80t47 61.5t68.5 39.5t82 14t82 -14t68.5 -39.5t47 -61.5t17.5 -80q0 -30 -5.5 -54.5t-17.5 -47.5t-32 -45t-50 -48q-4 -3 -5 -7t4 -4
q4 0 8 3zM478 -85q11 0 24.5 -0.5t26.5 1.5q5 1 5.5 1.5t0.5 2.5q-6 57 -17.5 112.5t-22.5 111.5q-2 10 -2 16q0 39 45 39q23 0 38.5 -16t32.5 -39q10 -13 21 -26.5t25.5 -24.5t32.5 -18t42 -7q30 0 56.5 13.5t47 37t32.5 54.5t12 66t-9.5 65.5t-27.5 53.5t-44.5 36
t-61.5 13q-34 0 -58 -9t-44 -20q-16 -8 -30 -14t-30 -6q-24 0 -34 15.5t-10 31.5q0 24 12.5 37.5t29.5 29.5q12 10 23.5 22t21.5 28t16 38.5t6 53.5q0 30 -12 57t-33.5 47.5t-51 32.5t-63.5 12t-63 -12t-50.5 -32.5t-34 -47.5t-12.5 -57q0 -31 6 -53.5t16 -38.5t21.5 -28
t23.5 -22q17 -16 29.5 -29.5t12.5 -37.5q0 -16 -10.5 -31.5t-34.5 -15.5q-16 0 -30 6t-29 14q-20 11 -44 20t-58 9t-61 -13t-45 -36t-27.5 -53.5t-9.5 -65.5t12 -66t32.5 -54.5t47.5 -37t57 -13.5q24 0 42 7t32.5 18t25.5 24.5t20 26.5q17 23 32.5 39t38.5 16q46 0 46 -39
q0 -6 -2 -16q-11 -56 -22.5 -111.5t-17.5 -112.5q0 -2 0.5 -2.5t5.5 -1.5q6 -1 23.5 -1h26.5z" />
    <glyph glyph-name="uni2668" unicode="&#x2668;" 
d="M554 336q5 -24 -2 -52.5t-18.5 -56.5t-24.5 -52t-21 -39q-16 -30 -23 -48.5t-8 -29.5q-1 -10 -8 -9t-10 8q-8 17 -9 51.5t17 78.5q16 37 19 74.5t0 69t-9.5 54.5t-10.5 32q-21 49 -24 87.5t3.5 69t19.5 55.5t23 47q15 31 20 56.5t5 42.5q0 12 5.5 11t10.5 -9
q5 -11 9.5 -30t6 -42t-1 -49.5t-11.5 -52.5q-14 -39 -12 -70t11 -61t22 -62.5t21 -73.5zM404 309q3 -32 -15 -78t-44 -97q-14 -25 -19 -40.5t-6 -24.5t-7 -9.5t-11 9.5q-7 14 -10 41t9 62q6 15 12 41.5t9 58t0.5 64.5t-14.5 62q-15 37 -19 72t0 68t15.5 64t27.5 61
q8 16 14.5 32.5t9.5 31.5q2 9 7.5 8.5t7.5 -7.5q5 -16 6.5 -55.5t-17.5 -103.5q-6 -23 -2 -51.5t13 -61.5t19 -70t14 -77zM694 349q3 -40 -5 -71t-21 -56t-27.5 -45t-22.5 -37q-14 -26 -21 -47t-9 -31q-2 -5 -7 -7t-8 7q-3 7 -4.5 19.5t-1.5 27.5t2.5 30.5t7.5 27.5
q10 24 20 53.5t16 60.5t5 62t-13 59q-18 41 -24.5 74t-5 62t9.5 56t20 55q8 18 11 38.5t3 34.5q0 9 4.5 11.5t10.5 -9.5q8 -17 14.5 -54t-2.5 -98q-5 -36 0.5 -60.5t14.5 -47.5t19 -49t14 -66zM902 140q0 -49 -34 -90t-91 -70t-132.5 -45.5t-159.5 -16.5t-161 14.5
t-136.5 40t-95 61t-35.5 77.5q0 43 26 75t62 55t73 37t59 20q6 2 10 0t4.5 -5.5t-2 -7.5t-9.5 -6q-3 -1 -15 -7t-28 -15t-34.5 -22t-33.5 -29t-25 -34.5t-10 -39.5q0 -27 31 -47t81.5 -33.5t113.5 -20.5t126 -7t126 9t113 26t81 41.5t31 54.5q0 22 -13.5 41t-33 34.5
t-40.5 26t-35 14.5q-13 5 -9.5 12t13.5 5q16 -2 46.5 -12t61 -29t53 -45.5t22.5 -61.5z" />
    <glyph glyph-name="uni2669" unicode="&#x2669;" horiz-adv-x="388" 
d="M297 717v-589q0 -38 -13.5 -70t-37 -54.5t-56 -35t-71.5 -12.5q-42 0 -60.5 15.5t-18.5 48.5q0 28 15 52t40.5 42t61 28t75.5 10h8v565h57z" />
    <glyph glyph-name="musicalnote" unicode="&#x266a;" horiz-adv-x="596" 
d="M240 726h46q8 -30 41 -54q120 -82 174 -161t54 -148q0 -42 -14.5 -78t-38.5 -66t-56 -53t-67 -39l-8 12q113 84 113 191q0 34 -18 67t-45.5 61.5t-60.5 51.5t-63 37v-414q0 -81 -49.5 -129t-133.5 -48q-37 0 -55.5 16.5t-18.5 45.5t15 53.5t40.5 42.5t60.5 28t75 10h9
v574z" />
    <glyph glyph-name="uni266C" unicode="&#x266c;" horiz-adv-x="773" 
d="M683 743v-526q0 -38 -13 -70.5t-36.5 -56t-56 -36.5t-70.5 -13q-39 0 -59 16t-20 44q0 38 19.5 64t49.5 42t65 23t65 7v262l-328 -76v-281q0 -40 -13 -74.5t-36.5 -59t-56.5 -38.5t-74 -14q-37 0 -58 16.5t-21 46.5q0 26 15.5 50t41 42t60 29t71.5 11h16v496zM627 583v65
l-328 -73v-66z" />
    <glyph glyph-name="uni266D" unicode="&#x266d;" horiz-adv-x="511" 
d="M192 404q29 39 63 56t66 17t59 -10.5t46.5 -30.5t31 -49t11.5 -66q0 -70 -35.5 -130t-91.5 -104t-125 -70t-137 -29v735h112v-319zM193 300v-207q32 14 62 35t53 48t36.5 59.5t12.5 69.5q0 17 -3 32.5t-10.5 28.5t-19.5 20.5t-32 7.5q-18 0 -34 -10t-29 -24.5t-22 -30.5
t-14 -29z" />
    <glyph glyph-name="uni3000" unicode="&#x3000;" horiz-adv-x="900" 
 />
    <glyph glyph-name="uni3000" unicode="&#x3164;" horiz-adv-x="900" 
 />
    <glyph glyph-name="uni3001" unicode="&#x3001;" 
d="M22 -14l-1 60l241 -100v-137z" />
    </font>
</defs>
</svg>
